<svg width="24" height="23" viewBox="0 0 24 23" fill="none" xmlns="http://www.w3.org/2000/svg">
<path d="M15.8944 7.94801C15.8944 7.84919 15.8136 7.76833 15.7147 7.76833L14.2323 7.77506L11.9997 10.4367L9.76931 7.77731L8.28465 7.77057C8.18582 7.77057 8.10496 7.84919 8.10496 7.95026C8.10496 7.99294 8.12068 8.03337 8.14763 8.06706L11.0698 11.5485L8.14763 15.0277C8.12049 15.0606 8.10543 15.1018 8.10496 15.1445C8.10496 15.2433 8.18582 15.3242 8.28465 15.3242L9.76931 15.3174L11.9997 12.6558L14.2301 15.3152L15.7125 15.3219C15.8113 15.3219 15.8922 15.2433 15.8922 15.1423C15.8922 15.0996 15.8764 15.0591 15.8495 15.0255L12.9318 11.5463L15.854 8.06481C15.8809 8.03337 15.8944 7.99069 15.8944 7.94801Z" fill="#CC3366"/>
<path d="M12 1.4375C6.44316 1.4375 1.9375 5.94316 1.9375 11.5C1.9375 17.0568 6.44316 21.5625 12 21.5625C17.5568 21.5625 22.0625 17.0568 22.0625 11.5C22.0625 5.94316 17.5568 1.4375 12 1.4375ZM12 19.8555C7.38652 19.8555 3.64453 16.1135 3.64453 11.5C3.64453 6.88652 7.38652 3.14453 12 3.14453C16.6135 3.14453 20.3555 6.88652 20.3555 11.5C20.3555 16.1135 16.6135 19.8555 12 19.8555Z" fill="#CC3366"/>
</svg>
