<svg width="294" height="184" viewBox="0 0 294 184" fill="none" xmlns="http://www.w3.org/2000/svg">
<g filter="url(#filter0_i_13326_76992)">
<g filter="url(#filter1_d_13326_76992)">
<path fill-rule="evenodd" clip-rule="evenodd" d="M127.077 30.8838C118.62 32.1149 109.747 35.2847 104.989 40.9958C102.701 43.7421 102.156 47.7162 102.741 52.1982C103.324 56.6649 105.015 61.5149 107.038 65.8744C109.059 70.2318 111.393 74.0596 113.232 76.4784C114.158 77.696 114.918 78.5023 115.422 78.8596C115.449 78.4642 115.472 78.0563 115.495 77.6342C115.611 75.5293 115.746 73.0729 116.663 70.0735C117.805 66.3373 120.149 61.7715 125.107 55.8215C128.849 51.3323 133.473 47.2563 137.45 43.7506C138.741 42.6131 139.963 41.5357 141.065 40.5236C143.345 38.4303 145.071 36.6522 145.915 35.1877C146.335 34.4597 146.493 33.8831 146.456 33.4297C146.422 33.0106 146.215 32.604 145.677 32.2051C145.114 31.7884 144.216 31.4028 143.003 31.0882C141.801 30.7765 140.335 30.5458 138.672 30.4124C135.349 30.1455 131.287 30.2709 127.077 30.8838ZM115.389 79.2014C115.389 79.2011 115.39 79.1974 115.392 79.1914C115.39 79.1987 115.389 79.2017 115.389 79.2014ZM143.336 29.827C144.621 30.1603 145.706 30.5993 146.465 31.161C147.247 31.7406 147.699 32.4664 147.768 33.3258C147.835 34.151 147.54 34.9991 147.058 35.8344C146.099 37.4965 144.225 39.3993 141.96 41.4798C140.821 42.5257 139.573 43.6259 138.265 44.7785C134.302 48.2724 129.792 52.2478 126.122 56.6515C121.245 62.5036 119.003 66.9193 117.923 70.4515C117.056 73.2867 116.929 75.5614 116.813 77.6547C116.784 78.1789 116.755 78.6917 116.716 79.1991C116.687 79.5754 116.525 80.1652 115.897 80.2988C115.641 80.3532 115.401 80.2999 115.217 80.2307C115.028 80.1597 114.843 80.0517 114.668 79.9287C113.987 79.4497 113.122 78.5002 112.181 77.2628C110.277 74.758 107.896 70.847 105.842 66.4188C103.789 61.9927 102.042 57.01 101.436 52.3654C100.832 47.7362 101.346 43.3202 103.974 40.1659C109.047 34.0759 118.327 30.8398 126.886 29.5938C131.184 28.9682 135.346 28.8372 138.779 29.1129C140.495 29.2507 142.041 29.491 143.336 29.827Z" fill="white" stroke="white" stroke-width="0.3" stroke-linecap="round"/>
<path fill-rule="evenodd" clip-rule="evenodd" d="M174.615 28.8622C175.315 30.2652 176.051 31.7374 176.843 33.2593C177.456 34.4378 178.066 35.5864 178.659 36.7046C180.691 40.5309 182.535 44.0023 183.671 47.1026C185.144 51.1195 185.513 54.7282 183.41 57.8189C182.352 59.3735 181.007 60.2048 179.416 60.5136C177.863 60.8152 176.116 60.6103 174.241 60.1953C172.828 59.8824 171.289 59.4365 169.66 58.9645C169.129 58.8105 168.589 58.6539 168.04 58.4981C165.791 57.8601 163.366 57.2264 160.765 56.8153C158.153 56.4025 155.802 56.2114 153.68 56.0693C153.263 56.0414 152.853 56.0153 152.452 55.9897C150.821 55.8858 149.319 55.7901 147.966 55.6132C146.273 55.3918 144.75 55.0369 143.418 54.3449C142.072 53.6459 140.954 52.6194 140.046 51.1066C139.12 49.5646 138.969 48.2341 139.5 46.9866C139.999 45.8155 141.064 44.8186 142.267 43.8184C142.62 43.5241 142.992 43.2242 143.378 42.9135C145.677 41.0612 148.447 38.8287 150.568 35.1543C152.553 31.715 153.354 27.926 154.077 24.5069C154.259 23.6431 154.437 22.8029 154.627 21.9979C155.09 20.0428 155.642 18.2514 156.592 16.948C157.581 15.5918 158.982 14.7898 161.006 14.7905C164.933 14.7914 167.554 16.8872 169.841 20.1933C171.436 22.498 172.924 25.4787 174.615 28.8622ZM168.756 20.9304C166.594 17.805 164.322 16.095 161.006 16.0943L161.005 16.0943C159.408 16.0938 158.402 16.6914 157.659 17.7114C156.876 18.7842 156.37 20.3456 155.909 22.2954C155.731 23.0446 155.563 23.8456 155.386 24.6832C154.663 28.1152 153.81 32.164 151.71 35.8014C149.458 39.7033 146.485 42.095 144.185 43.9448C143.808 44.2486 143.448 44.5378 143.113 44.8167C141.896 45.8293 141.073 46.6466 140.713 47.4932C140.385 48.2636 140.405 49.1545 141.177 50.44C141.966 51.7546 142.908 52.608 144.029 53.1904C145.163 53.7798 146.512 54.108 148.138 54.3206C149.444 54.4913 150.888 54.5834 152.514 54.6871C152.92 54.713 153.339 54.7397 153.769 54.7685C155.905 54.9115 158.302 55.1057 160.972 55.5278C163.652 55.9514 166.137 56.6022 168.402 57.2447C168.972 57.4063 169.525 57.5668 170.064 57.7228C171.681 58.1913 173.161 58.6201 174.528 58.923C176.352 59.3267 177.882 59.4828 179.163 59.2341C180.407 58.9926 181.453 58.3622 182.319 57.0901C184.063 54.5274 183.861 51.4397 182.434 47.5476C181.332 44.5389 179.547 41.1777 177.525 37.3702C176.925 36.2392 176.303 35.0688 175.673 33.8566C174.848 32.2711 174.095 30.7629 173.385 29.3427C171.718 26.0056 170.295 23.1549 168.756 20.9304Z" fill="white" stroke="white" stroke-width="0.3" stroke-linecap="square"/>
<mask id="path-4-inside-1_13326_76992" fill="white">
<path d="M137.983 96.7937C136.55 96.7817 135.121 96.632 133.717 96.3467C132.333 96.0652 130.983 95.6433 129.687 95.0878C129.042 94.8102 128.412 94.4984 127.8 94.1539C127.187 93.8076 126.593 93.4281 126.021 93.0171C123.685 91.3361 121.767 89.15 120.411 86.6249C120.08 86.0072 119.783 85.3718 119.521 84.7217C119.262 84.0739 119.038 83.4127 118.85 82.7411C118.476 81.3919 118.243 80.0082 118.155 78.6117C118.065 77.1945 118.114 75.7721 118.302 74.3643C118.493 72.9243 118.819 71.5049 119.275 70.1244C119.746 68.7062 120.345 67.333 121.065 66.0214C121.43 65.3547 121.831 64.6941 122.257 64.0585C122.684 63.423 123.156 62.7786 123.646 62.1722C124.136 61.5658 124.673 60.9574 125.229 60.3863C125.786 59.8152 126.389 59.2441 127.006 58.713C127.503 58.285 128.02 57.8712 128.543 57.4819C124.389 61.5411 121.789 66.9047 121.187 72.6544C120.895 75.3228 121.156 78.0222 121.954 80.587C122.753 83.1519 124.072 85.5281 125.831 87.5698C129.125 91.2729 133.714 93.6022 138.672 94.0887C142.946 93.8672 147.066 92.4337 150.541 89.959C154.017 87.4843 156.701 84.0725 158.275 80.1297C159.942 74.8805 159.234 69.2514 155.896 65.0176C152.707 60.9764 147.689 58.9327 142.417 59.0467C139.644 59.6397 137.057 60.8855 134.873 62.6786C132.689 64.4717 130.973 66.7594 129.87 69.3482C128.768 71.9371 128.31 74.751 128.537 77.5519C128.764 80.3528 129.668 83.0585 131.174 85.44C131.613 85.9613 132.103 86.4384 132.637 86.8644C134.465 88.3275 136.743 89.1278 139.093 89.1323C141.443 89.1369 143.724 88.3455 145.558 86.8895C147.205 85.2398 148.174 83.0431 148.278 80.7255C148.383 78.4078 147.615 76.1344 146.123 74.346C145.373 73.4213 144.47 72.629 143.453 72.0025C142.843 71.6794 142.195 71.4324 141.524 71.2673C140.275 70.9749 139.314 71.1479 138.818 71.7543C138.345 72.3335 138.351 73.2513 138.836 74.3392C139.446 75.5858 140.319 76.6883 141.396 77.5726C141.282 77.4864 141.167 77.3983 141.054 77.3087C140.414 76.7993 139.828 76.2286 139.302 75.6049C139.067 75.3251 138.848 75.0325 138.646 74.7285C138.462 74.4532 138.298 74.1661 138.153 73.8692C138.024 73.6071 137.917 73.3349 137.834 73.0552C137.762 72.811 137.718 72.5593 137.703 72.305C137.69 72.0833 137.713 71.8609 137.771 71.6464C137.825 71.4488 137.919 71.2644 138.049 71.1053C138.179 70.9462 138.341 70.8158 138.524 70.7226C138.724 70.6215 138.939 70.5528 139.16 70.5191C139.415 70.4806 139.672 70.471 139.929 70.4906C140.198 70.5104 140.465 70.551 140.728 70.6121C140.991 70.646 141.252 70.6894 141.509 70.7409C141.857 70.8088 142.206 70.8976 142.545 70.9987C142.884 71.0997 143.212 71.2157 143.534 71.346C143.857 71.4762 144.168 71.6173 144.472 71.7767C145.073 72.0871 145.643 72.4522 146.175 72.8673C146.696 73.274 147.177 73.7282 147.613 74.2239C148.043 74.7145 148.425 75.2451 148.752 75.8084C149.077 76.3683 149.345 76.9591 149.552 77.5719C149.655 77.8797 149.742 78.1926 149.812 78.5093C150.248 80.4666 150.032 82.5111 149.196 84.3364C149.06 84.6317 148.91 84.9199 148.744 85.1999C148.414 85.7567 148.028 86.2794 147.592 86.7599C147.332 87.0467 147.056 87.3185 146.765 87.5738C145.945 88.4452 144.977 89.168 143.905 89.7098C143.606 89.861 143.295 89.9994 142.982 90.1167C142.669 90.2341 142.339 90.3473 142.012 90.4375C141.679 90.5299 141.341 90.6055 141 90.6641C140.304 90.7832 139.597 90.832 138.891 90.8099C138.545 90.7989 138.2 90.7706 137.857 90.7251C137.52 90.6804 137.182 90.6187 136.851 90.5406C136.52 90.4626 136.197 90.3697 135.88 90.2619C134.618 89.8314 133.453 89.1635 132.448 88.2949C132.076 87.9733 131.728 87.6261 131.405 87.2557C130.81 86.7375 130.257 86.1737 129.75 85.5695C129.085 84.7714 128.501 83.909 128.009 82.9954C127.515 82.0772 127.112 81.1139 126.805 80.1189C126.494 79.1107 126.279 78.0758 126.164 77.0279C126.047 75.9599 126.03 74.8833 126.115 73.8122C126.202 72.7117 126.392 71.6217 126.684 70.5564C127.292 68.3477 128.314 66.272 129.697 64.4377C130.364 63.5549 131.113 62.7358 131.934 61.9911C132.733 61.2669 133.598 60.6179 134.519 60.0526C135.424 59.4975 136.379 59.0279 137.372 58.6499C137.913 58.4444 138.464 58.2674 139.024 58.1195C139.155 58.0742 139.287 58.0317 139.419 57.992C140.579 57.6285 141.771 57.3695 142.979 57.218C144.151 57.0713 145.334 57.0323 146.513 57.1014C147.667 57.1692 148.811 57.3478 149.93 57.6345C151.031 57.9174 152.1 58.312 153.12 58.812C154.138 59.3119 155.097 59.9205 155.981 60.6271C157.788 62.0756 159.237 63.9133 160.218 66.0004C160.696 67.0207 161.06 68.0897 161.304 69.1883C161.485 69.9992 161.602 70.8225 161.656 71.6512C161.762 72.2867 161.837 72.9284 161.883 73.5721C161.976 74.9139 161.939 76.2615 161.772 77.5963C161.602 78.9404 161.304 80.2656 160.882 81.5541C160.016 84.2015 158.644 86.6597 156.843 88.7954C156.381 89.3428 155.884 89.8759 155.371 90.3785C154.859 90.8811 154.293 91.381 153.719 91.8409C153.146 92.3008 152.544 92.7376 151.932 93.1378C151.319 93.538 150.699 93.9009 150.062 94.2346C148.81 94.8902 147.496 95.4251 146.14 95.8319C144.814 96.2302 143.453 96.5029 142.074 96.6465C141.215 96.7348 140.351 96.7722 139.487 96.7585C139.056 96.7824 138.626 96.7944 138.196 96.7944L137.983 96.7937Z"/>
</mask>
<path d="M137.983 96.7937C136.55 96.7817 135.121 96.632 133.717 96.3467C132.333 96.0652 130.983 95.6433 129.687 95.0878C129.042 94.8102 128.412 94.4984 127.8 94.1539C127.187 93.8076 126.593 93.4281 126.021 93.0171C123.685 91.3361 121.767 89.15 120.411 86.6249C120.08 86.0072 119.783 85.3718 119.521 84.7217C119.262 84.0739 119.038 83.4127 118.85 82.7411C118.476 81.3919 118.243 80.0082 118.155 78.6117C118.065 77.1945 118.114 75.7721 118.302 74.3643C118.493 72.9243 118.819 71.5049 119.275 70.1244C119.746 68.7062 120.345 67.333 121.065 66.0214C121.43 65.3547 121.831 64.6941 122.257 64.0585C122.684 63.423 123.156 62.7786 123.646 62.1722C124.136 61.5658 124.673 60.9574 125.229 60.3863C125.786 59.8152 126.389 59.2441 127.006 58.713C127.503 58.285 128.02 57.8712 128.543 57.4819C124.389 61.5411 121.789 66.9047 121.187 72.6544C120.895 75.3228 121.156 78.0222 121.954 80.587C122.753 83.1519 124.072 85.5281 125.831 87.5698C129.125 91.2729 133.714 93.6022 138.672 94.0887C142.946 93.8672 147.066 92.4337 150.541 89.959C154.017 87.4843 156.701 84.0725 158.275 80.1297C159.942 74.8805 159.234 69.2514 155.896 65.0176C152.707 60.9764 147.689 58.9327 142.417 59.0467C139.644 59.6397 137.057 60.8855 134.873 62.6786C132.689 64.4717 130.973 66.7594 129.87 69.3482C128.768 71.9371 128.31 74.751 128.537 77.5519C128.764 80.3528 129.668 83.0585 131.174 85.44C131.613 85.9613 132.103 86.4384 132.637 86.8644C134.465 88.3275 136.743 89.1278 139.093 89.1323C141.443 89.1369 143.724 88.3455 145.558 86.8895C147.205 85.2398 148.174 83.0431 148.278 80.7255C148.383 78.4078 147.615 76.1344 146.123 74.346C145.373 73.4213 144.47 72.629 143.453 72.0025C142.843 71.6794 142.195 71.4324 141.524 71.2673C140.275 70.9749 139.314 71.1479 138.818 71.7543C138.345 72.3335 138.351 73.2513 138.836 74.3392C139.446 75.5858 140.319 76.6883 141.396 77.5726C141.282 77.4864 141.167 77.3983 141.054 77.3087C140.414 76.7993 139.828 76.2286 139.302 75.6049C139.067 75.3251 138.848 75.0325 138.646 74.7285C138.462 74.4532 138.298 74.1661 138.153 73.8692C138.024 73.6071 137.917 73.3349 137.834 73.0552C137.762 72.811 137.718 72.5593 137.703 72.305C137.69 72.0833 137.713 71.8609 137.771 71.6464C137.825 71.4488 137.919 71.2644 138.049 71.1053C138.179 70.9462 138.341 70.8158 138.524 70.7226C138.724 70.6215 138.939 70.5528 139.16 70.5191C139.415 70.4806 139.672 70.471 139.929 70.4906C140.198 70.5104 140.465 70.551 140.728 70.6121C140.991 70.646 141.252 70.6894 141.509 70.7409C141.857 70.8088 142.206 70.8976 142.545 70.9987C142.884 71.0997 143.212 71.2157 143.534 71.346C143.857 71.4762 144.168 71.6173 144.472 71.7767C145.073 72.0871 145.643 72.4522 146.175 72.8673C146.696 73.274 147.177 73.7282 147.613 74.2239C148.043 74.7145 148.425 75.2451 148.752 75.8084C149.077 76.3683 149.345 76.9591 149.552 77.5719C149.655 77.8797 149.742 78.1926 149.812 78.5093C150.248 80.4666 150.032 82.5111 149.196 84.3364C149.06 84.6317 148.91 84.9199 148.744 85.1999C148.414 85.7567 148.028 86.2794 147.592 86.7599C147.332 87.0467 147.056 87.3185 146.765 87.5738C145.945 88.4452 144.977 89.168 143.905 89.7098C143.606 89.861 143.295 89.9994 142.982 90.1167C142.669 90.2341 142.339 90.3473 142.012 90.4375C141.679 90.5299 141.341 90.6055 141 90.6641C140.304 90.7832 139.597 90.832 138.891 90.8099C138.545 90.7989 138.2 90.7706 137.857 90.7251C137.52 90.6804 137.182 90.6187 136.851 90.5406C136.52 90.4626 136.197 90.3697 135.88 90.2619C134.618 89.8314 133.453 89.1635 132.448 88.2949C132.076 87.9733 131.728 87.6261 131.405 87.2557C130.81 86.7375 130.257 86.1737 129.75 85.5695C129.085 84.7714 128.501 83.909 128.009 82.9954C127.515 82.0772 127.112 81.1139 126.805 80.1189C126.494 79.1107 126.279 78.0758 126.164 77.0279C126.047 75.9599 126.03 74.8833 126.115 73.8122C126.202 72.7117 126.392 71.6217 126.684 70.5564C127.292 68.3477 128.314 66.272 129.697 64.4377C130.364 63.5549 131.113 62.7358 131.934 61.9911C132.733 61.2669 133.598 60.6179 134.519 60.0526C135.424 59.4975 136.379 59.0279 137.372 58.6499C137.913 58.4444 138.464 58.2674 139.024 58.1195C139.155 58.0742 139.287 58.0317 139.419 57.992C140.579 57.6285 141.771 57.3695 142.979 57.218C144.151 57.0713 145.334 57.0323 146.513 57.1014C147.667 57.1692 148.811 57.3478 149.93 57.6345C151.031 57.9174 152.1 58.312 153.12 58.812C154.138 59.3119 155.097 59.9205 155.981 60.6271C157.788 62.0756 159.237 63.9133 160.218 66.0004C160.696 67.0207 161.06 68.0897 161.304 69.1883C161.485 69.9992 161.602 70.8225 161.656 71.6512C161.762 72.2867 161.837 72.9284 161.883 73.5721C161.976 74.9139 161.939 76.2615 161.772 77.5963C161.602 78.9404 161.304 80.2656 160.882 81.5541C160.016 84.2015 158.644 86.6597 156.843 88.7954C156.381 89.3428 155.884 89.8759 155.371 90.3785C154.859 90.8811 154.293 91.381 153.719 91.8409C153.146 92.3008 152.544 92.7376 151.932 93.1378C151.319 93.538 150.699 93.9009 150.062 94.2346C148.81 94.8902 147.496 95.4251 146.14 95.8319C144.814 96.2302 143.453 96.5029 142.074 96.6465C141.215 96.7348 140.351 96.7722 139.487 96.7585C139.056 96.7824 138.626 96.7944 138.196 96.7944L137.983 96.7937Z" fill="white" stroke="white" stroke-width="2" mask="url(#path-4-inside-1_13326_76992)"/>
<mask id="path-5-inside-2_13326_76992" fill="white">
<path fill-rule="evenodd" clip-rule="evenodd" d="M156.843 88.7954C156.381 89.3428 155.884 89.8759 155.371 90.3785C154.859 90.8811 154.293 91.381 153.719 91.8409C153.146 92.3008 152.544 92.7376 151.932 93.1378C151.319 93.538 150.699 93.9009 150.062 94.2346C148.81 94.8902 147.496 95.4251 146.14 95.8319C144.814 96.2302 143.453 96.5029 142.074 96.6465C141.215 96.7348 140.351 96.7722 139.487 96.7585C139.056 96.7824 138.626 96.7944 138.196 96.7944L137.983 96.7937C136.55 96.7817 135.121 96.632 133.717 96.3467C132.333 96.0652 130.983 95.6433 129.687 95.0878C129.042 94.8102 128.412 94.4984 127.8 94.1539C127.187 93.8076 126.593 93.4281 126.021 93.0171C123.685 91.3361 121.767 89.15 120.411 86.6249C120.08 86.0072 119.783 85.3718 119.521 84.7217C119.262 84.0739 119.038 83.4127 118.85 82.7411C118.476 81.3919 118.243 80.0082 118.155 78.6117C118.065 77.1945 118.114 75.7721 118.302 74.3643C118.493 72.9243 118.819 71.5049 119.275 70.1244C119.746 68.7062 120.345 67.333 121.065 66.0214C121.43 65.3547 121.831 64.6941 122.257 64.0585C122.684 63.423 123.156 62.7786 123.646 62.1722C124.136 61.5658 124.673 60.9574 125.229 60.3863C125.786 59.8152 126.389 59.2441 127.006 58.713C127.259 58.4951 127.517 58.281 127.778 58.0719C128.031 57.8701 128.286 57.6731 128.543 57.4819C128.313 57.7065 128.088 57.9352 127.868 58.1677C124.107 62.136 121.755 67.223 121.187 72.6544C120.895 75.3228 121.156 78.0222 121.954 80.587C122.753 83.1519 124.072 85.5281 125.831 87.5698C129.125 91.2729 133.714 93.6022 138.672 94.0887C142.946 93.8672 147.066 92.4337 150.541 89.959C154.017 87.4843 156.701 84.0725 158.275 80.1297C159.942 74.8805 159.234 69.2514 155.896 65.0176C152.707 60.9764 147.689 58.9327 142.417 59.0467C139.644 59.6397 137.057 60.8855 134.873 62.6786C132.689 64.4717 130.973 66.7594 129.87 69.3482C128.768 71.9371 128.31 74.751 128.537 77.5519C128.764 80.3528 129.668 83.0585 131.174 85.44C131.613 85.9613 132.103 86.4384 132.637 86.8644C134.465 88.3275 136.743 89.1278 139.093 89.1323C141.443 89.1369 143.724 88.3455 145.558 86.8895C147.205 85.2398 148.174 83.0431 148.278 80.7255C148.383 78.4078 147.615 76.1344 146.123 74.346C145.373 73.4213 144.47 72.629 143.453 72.0025C142.843 71.6794 142.195 71.4324 141.524 71.2673C140.275 70.9749 139.314 71.1479 138.818 71.7543C138.345 72.3335 138.351 73.2513 138.836 74.3392C139.171 75.0236 139.585 75.6646 140.069 76.25C140.375 76.6202 140.709 76.9682 141.068 77.2908L141.068 77.2909C141.175 77.3871 141.284 77.481 141.396 77.5726C141.282 77.4864 141.167 77.3983 141.054 77.3087C140.674 77.0059 140.312 76.6815 139.971 76.3371C139.738 76.1021 139.515 75.8579 139.302 75.6049C139.067 75.3251 138.848 75.0325 138.646 74.7285C138.462 74.4532 138.298 74.1661 138.153 73.8692C138.024 73.6071 137.917 73.3349 137.834 73.0552C137.762 72.811 137.718 72.5593 137.703 72.305C137.69 72.0833 137.713 71.8609 137.771 71.6464C137.825 71.4488 137.919 71.2644 138.049 71.1053C138.179 70.9462 138.341 70.8158 138.524 70.7226C138.724 70.6215 138.939 70.5528 139.16 70.5191C139.415 70.4806 139.672 70.471 139.929 70.4906C140.198 70.5104 140.465 70.551 140.728 70.6121C140.991 70.646 141.252 70.6894 141.509 70.7409C141.857 70.8088 142.206 70.8976 142.545 70.9987C142.884 71.0997 143.212 71.2157 143.534 71.346C143.857 71.4762 144.168 71.6173 144.472 71.7767C145.073 72.0871 145.643 72.4522 146.175 72.8673C146.696 73.274 147.177 73.7282 147.613 74.2239C148.043 74.7145 148.425 75.2451 148.752 75.8084C149.077 76.3683 149.345 76.9591 149.552 77.5719C149.655 77.8797 149.742 78.1926 149.812 78.5093C150.248 80.4666 150.032 82.5111 149.196 84.3364C149.06 84.6317 148.91 84.9199 148.744 85.1999C148.414 85.7567 148.028 86.2794 147.592 86.7599C147.332 87.0467 147.056 87.3185 146.765 87.5738C145.945 88.4452 144.977 89.168 143.905 89.7098C143.606 89.861 143.295 89.9994 142.982 90.1167C142.669 90.2341 142.339 90.3473 142.012 90.4375C141.679 90.5299 141.341 90.6055 141 90.6641C140.304 90.7832 139.597 90.832 138.891 90.8099C138.545 90.7989 138.2 90.7706 137.857 90.7251C137.52 90.6804 137.182 90.6187 136.851 90.5406C136.52 90.4626 136.197 90.3697 135.88 90.2619C134.618 89.8314 133.453 89.1635 132.448 88.2949C132.076 87.9733 131.728 87.6261 131.405 87.2557C130.81 86.7375 130.257 86.1737 129.75 85.5695C129.085 84.7714 128.501 83.909 128.009 82.9954C127.515 82.0772 127.112 81.1139 126.805 80.1189C126.494 79.1107 126.279 78.0758 126.164 77.0279C126.047 75.9599 126.03 74.8833 126.115 73.8122C126.202 72.7117 126.392 71.6217 126.684 70.5564C127.292 68.3477 128.314 66.272 129.697 64.4377C130.364 63.5549 131.113 62.7358 131.934 61.9911C132.733 61.2669 133.598 60.6179 134.519 60.0526C135.424 59.4975 136.379 59.0279 137.372 58.6499C137.913 58.4444 138.464 58.2674 139.024 58.1195C139.155 58.0742 139.287 58.0317 139.419 57.992C140.579 57.6285 141.771 57.3695 142.979 57.218C144.151 57.0713 145.334 57.0323 146.513 57.1014C147.667 57.1692 148.811 57.3478 149.93 57.6345C151.031 57.9174 152.1 58.312 153.12 58.812C154.138 59.3119 155.097 59.9205 155.981 60.6271C157.788 62.0756 159.237 63.9133 160.218 66.0004C160.696 67.0207 161.06 68.0897 161.304 69.1883C161.485 69.9992 161.602 70.8225 161.656 71.6512"/>
</mask>
<path fill-rule="evenodd" clip-rule="evenodd" d="M156.843 88.7954C156.381 89.3428 155.884 89.8759 155.371 90.3785C154.859 90.8811 154.293 91.381 153.719 91.8409C153.146 92.3008 152.544 92.7376 151.932 93.1378C151.319 93.538 150.699 93.9009 150.062 94.2346C148.81 94.8902 147.496 95.4251 146.14 95.8319C144.814 96.2302 143.453 96.5029 142.074 96.6465C141.215 96.7348 140.351 96.7722 139.487 96.7585C139.056 96.7824 138.626 96.7944 138.196 96.7944L137.983 96.7937C136.55 96.7817 135.121 96.632 133.717 96.3467C132.333 96.0652 130.983 95.6433 129.687 95.0878C129.042 94.8102 128.412 94.4984 127.8 94.1539C127.187 93.8076 126.593 93.4281 126.021 93.0171C123.685 91.3361 121.767 89.15 120.411 86.6249C120.08 86.0072 119.783 85.3718 119.521 84.7217C119.262 84.0739 119.038 83.4127 118.85 82.7411C118.476 81.3919 118.243 80.0082 118.155 78.6117C118.065 77.1945 118.114 75.7721 118.302 74.3643C118.493 72.9243 118.819 71.5049 119.275 70.1244C119.746 68.7062 120.345 67.333 121.065 66.0214C121.43 65.3547 121.831 64.6941 122.257 64.0585C122.684 63.423 123.156 62.7786 123.646 62.1722C124.136 61.5658 124.673 60.9574 125.229 60.3863C125.786 59.8152 126.389 59.2441 127.006 58.713C127.259 58.4951 127.517 58.281 127.778 58.0719C128.031 57.8701 128.286 57.6731 128.543 57.4819C128.313 57.7065 128.088 57.9352 127.868 58.1677C124.107 62.136 121.755 67.223 121.187 72.6544C120.895 75.3228 121.156 78.0222 121.954 80.587C122.753 83.1519 124.072 85.5281 125.831 87.5698C129.125 91.2729 133.714 93.6022 138.672 94.0887C142.946 93.8672 147.066 92.4337 150.541 89.959C154.017 87.4843 156.701 84.0725 158.275 80.1297C159.942 74.8805 159.234 69.2514 155.896 65.0176C152.707 60.9764 147.689 58.9327 142.417 59.0467C139.644 59.6397 137.057 60.8855 134.873 62.6786C132.689 64.4717 130.973 66.7594 129.87 69.3482C128.768 71.9371 128.31 74.751 128.537 77.5519C128.764 80.3528 129.668 83.0585 131.174 85.44C131.613 85.9613 132.103 86.4384 132.637 86.8644C134.465 88.3275 136.743 89.1278 139.093 89.1323C141.443 89.1369 143.724 88.3455 145.558 86.8895C147.205 85.2398 148.174 83.0431 148.278 80.7255C148.383 78.4078 147.615 76.1344 146.123 74.346C145.373 73.4213 144.47 72.629 143.453 72.0025C142.843 71.6794 142.195 71.4324 141.524 71.2673C140.275 70.9749 139.314 71.1479 138.818 71.7543C138.345 72.3335 138.351 73.2513 138.836 74.3392C139.171 75.0236 139.585 75.6646 140.069 76.25C140.375 76.6202 140.709 76.9682 141.068 77.2908L141.068 77.2909C141.175 77.3871 141.284 77.481 141.396 77.5726C141.282 77.4864 141.167 77.3983 141.054 77.3087C140.674 77.0059 140.312 76.6815 139.971 76.3371C139.738 76.1021 139.515 75.8579 139.302 75.6049C139.067 75.3251 138.848 75.0325 138.646 74.7285C138.462 74.4532 138.298 74.1661 138.153 73.8692C138.024 73.6071 137.917 73.3349 137.834 73.0552C137.762 72.811 137.718 72.5593 137.703 72.305C137.69 72.0833 137.713 71.8609 137.771 71.6464C137.825 71.4488 137.919 71.2644 138.049 71.1053C138.179 70.9462 138.341 70.8158 138.524 70.7226C138.724 70.6215 138.939 70.5528 139.16 70.5191C139.415 70.4806 139.672 70.471 139.929 70.4906C140.198 70.5104 140.465 70.551 140.728 70.6121C140.991 70.646 141.252 70.6894 141.509 70.7409C141.857 70.8088 142.206 70.8976 142.545 70.9987C142.884 71.0997 143.212 71.2157 143.534 71.346C143.857 71.4762 144.168 71.6173 144.472 71.7767C145.073 72.0871 145.643 72.4522 146.175 72.8673C146.696 73.274 147.177 73.7282 147.613 74.2239C148.043 74.7145 148.425 75.2451 148.752 75.8084C149.077 76.3683 149.345 76.9591 149.552 77.5719C149.655 77.8797 149.742 78.1926 149.812 78.5093C150.248 80.4666 150.032 82.5111 149.196 84.3364C149.06 84.6317 148.91 84.9199 148.744 85.1999C148.414 85.7567 148.028 86.2794 147.592 86.7599C147.332 87.0467 147.056 87.3185 146.765 87.5738C145.945 88.4452 144.977 89.168 143.905 89.7098C143.606 89.861 143.295 89.9994 142.982 90.1167C142.669 90.2341 142.339 90.3473 142.012 90.4375C141.679 90.5299 141.341 90.6055 141 90.6641C140.304 90.7832 139.597 90.832 138.891 90.8099C138.545 90.7989 138.2 90.7706 137.857 90.7251C137.52 90.6804 137.182 90.6187 136.851 90.5406C136.52 90.4626 136.197 90.3697 135.88 90.2619C134.618 89.8314 133.453 89.1635 132.448 88.2949C132.076 87.9733 131.728 87.6261 131.405 87.2557C130.81 86.7375 130.257 86.1737 129.75 85.5695C129.085 84.7714 128.501 83.909 128.009 82.9954C127.515 82.0772 127.112 81.1139 126.805 80.1189C126.494 79.1107 126.279 78.0758 126.164 77.0279C126.047 75.9599 126.03 74.8833 126.115 73.8122C126.202 72.7117 126.392 71.6217 126.684 70.5564C127.292 68.3477 128.314 66.272 129.697 64.4377C130.364 63.5549 131.113 62.7358 131.934 61.9911C132.733 61.2669 133.598 60.6179 134.519 60.0526C135.424 59.4975 136.379 59.0279 137.372 58.6499C137.913 58.4444 138.464 58.2674 139.024 58.1195C139.155 58.0742 139.287 58.0317 139.419 57.992C140.579 57.6285 141.771 57.3695 142.979 57.218C144.151 57.0713 145.334 57.0323 146.513 57.1014C147.667 57.1692 148.811 57.3478 149.93 57.6345C151.031 57.9174 152.1 58.312 153.12 58.812C154.138 59.3119 155.097 59.9205 155.981 60.6271C157.788 62.0756 159.237 63.9133 160.218 66.0004C160.696 67.0207 161.06 68.0897 161.304 69.1883C161.485 69.9992 161.602 70.8225 161.656 71.6512" fill="white"/>
<path d="M127.866 94.0405L127.62 94.476L127.62 94.4761L127.866 94.0405ZM129.739 94.9683L129.541 95.4275L129.542 95.4278L129.739 94.9683ZM133.743 96.219L133.643 96.709L133.644 96.709L133.743 96.219ZM137.984 96.6633L137.989 96.1634L137.988 96.1634L137.984 96.6633ZM137.984 96.6634L137.978 97.1633L137.982 97.1634L137.984 96.6634ZM138.196 96.664L138.195 97.164H138.196V96.664ZM138.197 96.664V97.164H138.197L138.197 96.664ZM139.48 96.6283L139.452 96.129L139.452 96.1291L139.48 96.6283ZM139.484 96.628L139.492 96.1281L139.475 96.1278L139.457 96.1288L139.484 96.628ZM139.489 96.6281L139.497 96.1282L139.489 96.6281ZM142.061 96.5169L142.112 97.0143L142.112 97.0142L142.061 96.5169ZM146.102 95.7072L145.958 95.2282L145.958 95.2283L146.102 95.7072ZM150.001 94.1193L150.233 94.5623L150.233 94.5621L150.001 94.1193ZM151.859 93.0289L152.133 93.4476L151.859 93.0289ZM153.637 91.7396L153.324 91.3494L153.324 91.3494L153.637 91.7396ZM155.279 90.2859L155.629 90.6429L155.629 90.6429L155.279 90.2859ZM156.742 88.7119L156.36 88.3895L156.359 88.3896L156.742 88.7119ZM160.757 81.5139L160.282 81.3583L160.282 81.3583L160.757 81.5139ZM161.641 77.5803L161.146 77.5099L161.145 77.5177L161.641 77.5803ZM161.641 77.5801L161.703 77.0839L161.215 77.0236L161.146 77.5098L161.641 77.5801ZM153.062 58.9288L153.282 58.4801L153.282 58.4799L153.062 58.9288ZM149.897 57.7607L150.021 57.2764L150.021 57.2764L149.897 57.7607ZM146.505 57.2315L146.535 56.7324L146.535 56.7324L146.505 57.2315ZM142.995 57.3474L142.933 56.8513L142.933 56.8513L142.995 57.3474ZM139.458 58.1163L139.608 58.5934L139.608 58.5934L139.458 58.1163ZM139.457 58.1167L139.601 58.5954L139.606 58.5939L139.457 58.1167ZM139.068 58.2426L138.904 57.77L138.904 57.77L139.068 58.2426ZM139.063 58.2442L139.191 58.7276L139.209 58.7229L139.226 58.7168L139.063 58.2442ZM139.058 58.2454L138.93 57.762L138.93 57.762L139.058 58.2454ZM137.419 58.7716L137.242 58.3042L137.241 58.3043L137.419 58.7716ZM134.588 60.1634L134.327 59.7372L134.327 59.7373L134.588 60.1634ZM132.023 62.0873L131.687 61.7167L131.687 61.7169L132.023 62.0873ZM129.802 64.5157L129.403 64.2143L129.403 64.2147L129.802 64.5157ZM126.811 70.5907L126.329 70.4581L126.329 70.4585L126.811 70.5907ZM126.246 73.8223L125.748 73.783L125.748 73.7831L126.246 73.8223ZM126.295 77.0138L125.798 77.0684L125.798 77.0686L126.295 77.0138ZM126.931 80.0808L126.453 80.2281L126.453 80.2282L126.931 80.0808ZM128.125 82.9341L127.685 83.1709L127.685 83.1711L128.125 82.9341ZM129.852 85.4863L129.468 85.8065L129.468 85.8074L129.852 85.4863ZM131.492 87.1578L131.164 87.5349L131.164 87.5349L131.492 87.1578ZM131.499 87.1638L131.876 86.8355L131.853 86.8093L131.827 86.7866L131.499 87.1638ZM131.505 87.1706L131.882 86.8423L131.882 86.8423L131.505 87.1706ZM132.535 88.1966L132.208 88.5749L132.208 88.5749L132.535 88.1966ZM138.896 90.6796L138.88 91.1794L138.88 91.1794L138.896 90.6796ZM140.977 90.5356L141.061 91.0285L141.062 91.0284L140.977 90.5356ZM141.977 90.312L142.11 90.7939H142.11L141.977 90.312ZM141.977 90.3119L141.844 89.8299L141.843 89.8301L141.977 90.3119ZM142.936 89.9948L143.111 90.463L142.936 89.9948ZM143.845 89.5936L144.071 90.0398L144.071 90.0398L143.845 89.5936ZM146.669 87.4849L147.033 87.8277L147.033 87.8276L146.669 87.4849ZM146.673 87.4804L146.343 87.1045L146.325 87.1202L146.309 87.1376L146.673 87.4804ZM146.678 87.4762L147.008 87.8521L147.008 87.8521L146.678 87.4762ZM147.493 86.6729L147.864 87.0083L147.865 87.0077L147.493 86.6729ZM147.494 86.6728L147.123 86.3368L147.122 86.3379L147.494 86.6728ZM148.631 85.1337L149.061 85.3891L149.062 85.388L148.631 85.1337ZM149.076 84.2825L149.53 84.4907L149.53 84.4907L149.076 84.2825ZM149.683 78.5374L149.195 78.6458L149.195 78.6461L149.683 78.5374ZM149.427 77.613L149.901 77.4543L149.901 77.4534L149.427 77.613ZM148.638 75.8734L149.07 75.6222L149.07 75.6222L148.638 75.8734ZM147.513 74.3094L147.889 73.9797L147.889 73.9795L147.513 74.3094ZM146.094 72.9698L146.401 72.5756L146.401 72.5755L146.094 72.9698ZM144.411 71.8923L144.182 72.3364L144.182 72.3364L144.411 71.8923ZM144.411 71.8919L144.178 72.3347L144.181 72.3361L144.411 71.8919ZM143.484 71.4667L143.672 71.0031V71.0031L143.484 71.4667ZM142.507 71.1235L142.65 70.6444L142.507 71.1235ZM141.484 70.8689L141.388 71.3596L141.388 71.3597L141.484 70.8689ZM141.483 70.8687L141.384 71.3589L141.387 71.3595L141.483 70.8687ZM140.711 70.7413L140.775 70.2455L140.775 70.2455L140.711 70.7413ZM140.705 70.7405L140.592 71.2275L140.616 71.2332L140.641 71.2364L140.705 70.7405ZM140.698 70.739L140.585 71.226L140.585 71.226L140.698 70.739ZM139.919 70.6207L139.956 70.122L139.955 70.122L139.919 70.6207ZM139.919 70.6206L139.88 71.1192L139.882 71.1193L139.919 70.6206ZM139.18 70.648L139.105 70.1537L139.105 70.1537L139.18 70.648ZM138.584 70.8387L138.358 70.3927L138.358 70.3927L138.584 70.8387ZM138.151 71.1872L137.764 70.8713L137.764 70.8713L138.151 71.1872ZM137.898 71.6801L137.416 71.55L137.415 71.5512L137.898 71.6801ZM137.898 71.6803L138.381 71.8114L138.381 71.8091L137.898 71.6803ZM137.834 72.2975L138.333 72.2686L138.333 72.2684L137.834 72.2975ZM137.961 73.0184L138.44 72.8761L138.44 72.8759L137.961 73.0184ZM138.271 73.8121L138.72 73.5915L138.72 73.5914L138.271 73.8121ZM138.271 73.8124L138.72 73.5929L138.72 73.5918L138.271 73.8124ZM138.755 74.6568L139.172 74.3801L139.172 74.3798L138.755 74.6568ZM139.216 75.2923L138.824 75.602L139.64 75.0267L139.216 75.2923ZM138.718 74.3961L138.268 74.6159L138.268 74.616L138.718 74.3961ZM138.717 74.394L138.26 74.5978L138.264 74.6059L138.267 74.6138L138.717 74.394ZM138.716 74.3919L138.259 74.5954L138.259 74.5956L138.716 74.3919ZM138.716 71.6723L138.329 71.3558L138.329 71.356L138.716 71.6723ZM141.554 71.1404L141.668 70.6536L141.668 70.6536L141.554 71.1404ZM141.556 71.1407L141.675 70.6552L141.67 70.6539L141.556 71.1407ZM143.515 71.8876L143.281 72.3294L143.281 72.3294L143.515 71.8876ZM143.519 71.8896L143.781 71.4639L143.767 71.4554L143.753 71.4478L143.519 71.8896ZM143.522 71.8918L143.26 72.3175L143.26 72.3175L143.522 71.8918ZM146.225 74.2636L145.837 74.5787L145.841 74.5838L146.225 74.2636ZM148.41 80.7313L147.91 80.7088L148.41 80.7313ZM145.652 86.9811L145.298 86.6279L145.298 86.628L145.652 86.9811ZM145.646 86.9865L145.957 87.378L145.98 87.3601L146 87.3396L145.646 86.9865ZM145.64 86.9912L145.951 87.3828L145.951 87.3827L145.64 86.9912ZM139.093 89.2627L139.092 89.7627L139.093 89.2627ZM132.554 86.9659L132.867 86.5755L132.866 86.5751L132.554 86.9659ZM131.073 85.5235L130.69 85.8457L130.69 85.8457L131.073 85.5235ZM131.067 85.5167L130.644 85.7838L130.663 85.8127L130.685 85.8389L131.067 85.5167ZM131.062 85.5092L131.485 85.242L131.485 85.242L131.062 85.5092ZM128.406 77.5623L127.908 77.6027L128.406 77.5623ZM129.749 69.2976L129.289 69.1016L129.749 69.2976ZM134.789 62.5782L134.472 62.1918V62.1918L134.789 62.5782ZM142.389 58.9192L142.494 59.4082L142.494 59.4082L142.389 58.9192ZM142.401 58.9166L142.391 58.4167L142.343 58.4177L142.297 58.4277L142.401 58.9166ZM142.414 58.9163L142.425 59.4162L142.414 58.9163ZM156 64.9373L156.392 64.6277L156.392 64.6275L156 64.9373ZM158.401 80.1688L157.924 80.0175L157.924 80.0178L158.401 80.1688ZM158.399 80.1733L158.863 80.3589L158.87 80.3419L158.876 80.3243L158.399 80.1733ZM158.397 80.1777L157.933 79.992L157.933 79.9923L158.397 80.1777ZM138.679 94.2189L138.653 93.7196L138.653 93.7196L138.679 94.2189ZM138.669 94.2195L138.62 94.7171L138.658 94.7207L138.695 94.7188L138.669 94.2195ZM138.659 94.2185L138.611 94.7161L138.611 94.7161L138.659 94.2185ZM125.732 87.656L125.358 87.9883L125.358 87.9883L125.732 87.656ZM125.731 87.6552L125.353 87.9818L125.358 87.9875L125.731 87.6552ZM125.731 87.6544L125.352 87.9807L125.352 87.981L125.731 87.6544ZM121.829 80.6254L122.306 80.4768L121.829 80.6254ZM121.056 72.6406L121.553 72.695L121.554 72.6926L121.056 72.6406ZM127.143 58.7677L127.518 59.0979L126.817 58.388L127.143 58.7677ZM127.092 58.8114L126.766 58.4325L126.765 58.4326L127.092 58.8114ZM125.324 60.4768L125.682 60.8258L125.324 60.4768ZM123.749 62.2537L123.36 61.9394H123.36L123.749 62.2537ZM122.367 64.1307L121.952 63.8521H121.952L122.367 64.1307ZM121.18 66.0836L120.742 65.8435L120.742 65.8437L121.18 66.0836ZM121.18 66.0837L121.619 66.3243L121.619 66.3236L121.18 66.0837ZM119.4 70.165L118.925 70.0075L118.925 70.0082L119.4 70.165ZM118.432 74.3813L118.928 74.4474L118.928 74.4472L118.432 74.3813ZM118.286 78.6035L118.785 78.572L118.785 78.5719L118.286 78.6035ZM118.977 82.7065L118.495 82.8401L118.496 82.841L118.977 82.7065ZM161.525 71.6595L161.026 71.6918V71.6919L161.525 71.6595ZM161.525 71.666L161.026 71.6984L161.028 71.7235L161.032 71.7483L161.525 71.666ZM161.526 71.6725L161.033 71.7547L161.033 71.7548L161.526 71.6725ZM128.111 93.605C127.518 93.2702 126.943 92.9031 126.39 92.5056L125.806 93.3175C126.389 93.7364 126.994 94.1232 127.62 94.476L128.111 93.605ZM129.937 94.509C129.312 94.2402 128.703 93.9385 128.111 93.6049L127.62 94.4761C128.243 94.8271 128.884 95.1447 129.541 95.4275L129.937 94.509ZM133.843 95.7291C132.502 95.4561 131.193 95.0472 129.936 94.5087L129.542 95.4278C130.861 95.9932 132.236 96.4225 133.643 96.709L133.843 95.7291ZM137.988 96.1634C136.595 96.1517 135.207 96.0062 133.843 95.729L133.644 96.709C135.071 96.999 136.523 97.1511 137.979 97.1633L137.988 96.1634ZM137.99 96.1634L137.989 96.1634L137.978 97.1633L137.978 97.1633L137.99 96.1634ZM138.198 96.164L137.986 96.1634L137.982 97.1634L138.195 97.164L138.198 96.164ZM138.197 96.164H138.196V97.164H138.197V96.164ZM139.452 96.1291C139.032 96.1524 138.614 96.164 138.197 96.164L138.197 97.164C138.633 97.164 139.07 97.1518 139.507 97.1275L139.452 96.1291ZM139.457 96.1288L139.452 96.129L139.507 97.1275L139.512 97.1273L139.457 96.1288ZM139.497 96.1282L139.492 96.1281L139.476 97.128L139.481 97.128L139.497 96.1282ZM142.01 96.0195C141.175 96.1052 140.336 96.1415 139.497 96.1282L139.481 97.128C140.36 97.142 141.238 97.104 142.112 97.0143L142.01 96.0195ZM145.958 95.2283C144.67 95.6151 143.348 95.8801 142.009 96.0196L142.112 97.0142C143.514 96.8682 144.897 96.5909 146.246 96.186L145.958 95.2283ZM149.769 93.6763C148.552 94.3132 147.276 94.833 145.958 95.2282L146.246 96.1861C147.624 95.7725 148.959 95.2288 150.233 94.5623L149.769 93.6763ZM151.586 92.6103C150.99 92.9993 150.388 93.352 149.769 93.6764L150.233 94.5621C150.88 94.223 151.51 93.8542 152.133 93.4476L151.586 92.6103ZM153.324 91.3494C152.766 91.7969 152.181 92.2216 151.586 92.6103L152.133 93.4476C152.756 93.0407 153.366 92.5968 153.949 92.1297L153.324 91.3494ZM154.929 89.9288C154.432 90.416 153.882 90.9021 153.324 91.3494L153.949 92.1297C154.532 91.6625 155.107 91.1545 155.629 90.6429L154.929 89.9288ZM156.359 88.3896C155.912 88.9209 155.428 89.4394 154.929 89.9288L155.629 90.6429C156.15 90.1326 156.655 89.5909 157.124 89.0341L156.359 88.3896ZM160.282 81.3583C159.44 83.9286 158.109 86.3155 156.36 88.3895L157.124 89.0342C158.956 86.8624 160.351 84.3623 161.232 81.6694L160.282 81.3583ZM161.029 81.0762L160.91 81.0378L160.604 81.9899L160.724 82.0283L161.029 81.0762ZM161.145 77.5177C160.98 78.822 160.691 80.1079 160.282 81.3583L161.232 81.6695C161.662 80.3586 161.965 79.0104 162.137 77.6429L161.145 77.5177ZM161.146 77.5098L161.146 77.5099L162.136 77.6507L162.136 77.6505L161.146 77.5098ZM161.833 77.1001L161.703 77.0839L161.58 78.0764L161.71 78.0925L161.833 77.1001ZM152.841 59.3776C153.818 59.8573 154.738 60.4413 155.587 61.1191L156.211 60.338C155.306 59.6147 154.324 58.9917 153.282 58.4801L152.841 59.3776ZM149.772 58.245C150.832 58.5172 151.861 58.8968 152.842 59.3778L153.282 58.4799C152.24 57.9688 151.147 57.5655 150.021 57.2764L149.772 58.245ZM146.476 57.7307C147.589 57.7961 148.693 57.9684 149.772 58.245L150.021 57.2764C148.879 56.9838 147.712 56.8016 146.535 56.7324L146.476 57.7307ZM143.057 57.8435C144.191 57.7016 145.336 57.6638 146.476 57.7307L146.535 56.7324C145.333 56.662 144.127 56.7018 142.933 56.8513L143.057 57.8435ZM139.608 58.5934C140.733 58.2413 141.887 57.9903 143.058 57.8435L142.933 56.8513C141.704 57.0054 140.491 57.2691 139.309 57.6391L139.608 58.5934ZM139.606 58.5939L139.608 58.5934L139.309 57.6391L139.308 57.6395L139.606 58.5939ZM139.231 58.7152C139.354 58.6727 139.477 58.6328 139.601 58.5954L139.313 57.638C139.176 57.6792 139.04 57.7232 138.904 57.77L139.231 58.7152ZM139.226 58.7168L139.231 58.7152L138.904 57.77L138.9 57.7716L139.226 58.7168ZM139.186 58.7289L139.191 58.7276L138.935 57.7608L138.93 57.762L139.186 58.7289ZM137.597 59.239C138.117 59.0414 138.647 58.8711 139.186 58.7289L138.93 57.762C138.358 57.9132 137.795 58.0942 137.242 58.3042L137.597 59.239ZM134.85 60.5896C135.721 60.0551 136.641 59.6029 137.597 59.2389L137.241 58.3043C136.227 58.6904 135.251 59.1702 134.327 59.7372L134.85 60.5896ZM132.358 62.4578C133.129 61.7598 133.963 61.1344 134.85 60.5895L134.327 59.7373C133.387 60.3145 132.503 60.9772 131.687 61.7167L132.358 62.4578ZM130.201 64.8171C130.845 63.9658 131.567 63.1758 132.359 62.4576L131.687 61.7169C130.849 62.477 130.084 63.3131 129.403 64.2143L130.201 64.8171ZM127.293 70.7234C127.88 68.5914 128.867 66.5876 130.202 64.8167L129.403 64.2147C127.992 66.0861 126.95 68.2041 126.329 70.4581L127.293 70.7234ZM126.744 73.8617C126.828 72.8008 127.012 71.7499 127.294 70.7229L126.329 70.4585C126.031 71.5463 125.836 72.6592 125.748 73.783L126.744 73.8617ZM126.792 76.9593C126.679 75.9304 126.663 74.8934 126.744 73.8616L125.748 73.7831C125.661 74.8773 125.678 75.9772 125.798 77.0684L126.792 76.9593ZM127.409 79.9334C127.109 78.9633 126.903 77.9675 126.792 76.9591L125.798 77.0686C125.916 78.1398 126.135 79.1976 126.453 80.2281L127.409 79.9334ZM128.566 82.6972C128.091 81.8149 127.704 80.8893 127.409 79.9333L126.453 80.2282C126.767 81.2461 127.18 82.2316 127.685 83.1709L128.566 82.6972ZM130.236 85.166C129.597 84.4003 129.037 83.5732 128.566 82.697L127.685 83.1711C128.189 84.1066 128.786 84.9894 129.468 85.8065L130.236 85.166ZM131.82 86.7807C131.25 86.2841 130.72 85.7439 130.235 85.1652L129.468 85.8074C129.987 86.4264 130.554 87.004 131.164 87.5349L131.82 86.7807ZM131.827 86.7866L131.82 86.7806L131.164 87.5349L131.171 87.5409L131.827 86.7866ZM131.882 86.8423L131.876 86.8355L131.122 87.492L131.128 87.4989L131.882 86.8423ZM132.861 87.8184C132.512 87.5163 132.185 87.1902 131.882 86.8423L131.128 87.4989C131.462 87.8824 131.822 88.242 132.208 88.5749L132.861 87.8184ZM136.084 89.6654C134.899 89.2611 133.805 88.6338 132.861 87.8183L132.208 88.5749C133.249 89.4746 134.455 90.1661 135.761 90.6118L136.084 89.6654ZM138.912 90.1799C138.587 90.1695 138.262 90.1429 137.94 90.1002L137.809 91.0916C138.164 91.1386 138.521 91.1679 138.88 91.1794L138.912 90.1799ZM140.893 90.0428C140.239 90.1547 139.575 90.2006 138.911 90.1799L138.88 91.1794C139.61 91.2022 140.341 91.1517 141.061 91.0285L140.893 90.0428ZM141.843 89.8301C141.53 89.9168 141.213 89.9878 140.892 90.0429L141.062 91.0284C141.415 90.9677 141.765 90.8894 142.11 90.7939L141.843 89.8301ZM141.843 89.8301L141.843 89.8301L142.11 90.7939L142.11 90.7938L141.843 89.8301ZM142.76 89.5266C142.458 89.64 142.147 89.7464 141.844 89.8299L142.11 90.794C142.451 90.6998 142.792 90.5826 143.111 90.463L142.76 89.5266ZM143.62 89.1474C143.339 89.2893 143.049 89.4182 142.76 89.5266L143.111 90.463C143.438 90.3404 143.761 90.1965 144.071 90.0398L143.62 89.1474ZM146.305 87.1421C145.535 87.96 144.626 88.6387 143.62 89.1474L144.071 90.0398C145.18 89.4789 146.183 88.7304 147.033 87.8277L146.305 87.1421ZM146.309 87.1376L146.305 87.1422L147.033 87.8276L147.037 87.8231L146.309 87.1376ZM146.348 87.1003L146.343 87.1045L147.003 87.8563L147.008 87.8521L146.348 87.1003ZM147.123 86.3375C146.88 86.6063 146.621 86.861 146.348 87.1004L147.008 87.8521C147.309 87.5874 147.595 87.3057 147.864 87.0083L147.123 86.3375ZM147.122 86.3379L147.122 86.3381L147.865 87.0077L147.865 87.0076L147.122 86.3379ZM148.201 84.8784C147.892 85.3989 147.531 85.8875 147.123 86.3368L147.864 87.0087C148.317 86.5099 148.718 85.9673 149.061 85.3891L148.201 84.8784ZM148.621 84.0743C148.495 84.3497 148.355 84.6184 148.201 84.8795L149.062 85.388C149.233 85.0971 149.39 84.7977 149.53 84.4907L148.621 84.0743ZM149.195 78.6461C149.601 80.4692 149.4 82.3737 148.621 84.0744L149.53 84.4907C150.4 82.5921 150.625 80.465 150.171 78.4287L149.195 78.6461ZM148.953 77.7717C149.049 78.0587 149.13 78.3505 149.195 78.6458L150.171 78.429C150.098 78.0997 150.008 77.7743 149.901 77.4543L148.953 77.7717ZM148.206 76.1247C148.51 76.6479 148.76 77.2 148.953 77.7726L149.901 77.4534C149.686 76.817 149.408 76.2035 149.07 75.6222L148.206 76.1247ZM147.138 74.6391C147.541 75.0992 147.899 75.5967 148.206 76.1247L149.07 75.6222C148.731 75.0382 148.335 74.4882 147.889 73.9797L147.138 74.6391ZM145.786 73.3639C146.276 73.7463 146.728 74.1734 147.138 74.6394L147.889 73.9795C147.438 73.4664 146.94 72.9964 146.401 72.5756L145.786 73.3639ZM144.182 72.3364C144.748 72.6289 145.285 72.9729 145.786 73.364L146.401 72.5755C145.851 72.1463 145.262 71.7689 144.641 71.4481L144.182 72.3364ZM144.181 72.3361L144.182 72.3364L144.641 71.4481L144.64 71.4477L144.181 72.3361ZM143.297 71.9303C143.604 72.0541 143.896 72.1866 144.178 72.3347L144.643 71.4491C144.326 71.2831 144.003 71.137 143.672 71.0031L143.297 71.9303ZM142.364 71.6027C142.683 71.6977 142.992 71.8071 143.297 71.9303L143.672 71.0031C143.339 70.8688 143 70.7489 142.65 70.6444L142.364 71.6027ZM141.388 71.3597C141.713 71.4229 142.041 71.5064 142.364 71.6027L142.65 70.6444C142.301 70.5405 141.941 70.4486 141.579 70.3781L141.388 71.3597ZM141.387 71.3595L141.388 71.3596L141.579 70.3781L141.578 70.3779L141.387 71.3595ZM140.647 71.2372C140.895 71.2692 141.142 71.3102 141.384 71.3589L141.581 70.3785C141.316 70.3253 141.046 70.2805 140.775 70.2455L140.647 71.2372ZM140.641 71.2364L140.647 71.2372L140.775 70.2455L140.769 70.2446L140.641 71.2364ZM140.585 71.226L140.592 71.2275L140.818 70.2535L140.811 70.252L140.585 71.226ZM139.882 71.1193C140.119 71.1367 140.354 71.1723 140.585 71.226L140.811 70.252C140.53 70.1866 140.244 70.1431 139.956 70.122L139.882 71.1193ZM139.882 71.1193L139.883 71.1194L139.955 70.122L139.955 70.122L139.882 71.1193ZM139.255 71.1423C139.462 71.111 139.672 71.1032 139.88 71.1192L139.957 70.1221C139.673 70.1003 139.387 70.1109 139.105 70.1537L139.255 71.1423ZM138.81 71.2847C138.95 71.214 139.1 71.1659 139.255 71.1423L139.105 70.1537C138.845 70.1931 138.593 70.2738 138.358 70.3927L138.81 71.2847ZM138.539 71.5032C138.613 71.4126 138.705 71.3381 138.81 71.2847L138.358 70.3927C138.129 70.509 137.926 70.672 137.764 70.8713L138.539 71.5032ZM138.381 71.8102C138.411 71.6983 138.465 71.5937 138.539 71.5032L137.764 70.8713C137.601 71.0706 137.483 71.3018 137.416 71.55L138.381 71.8102ZM138.381 71.8091L138.382 71.8089L137.415 71.5512L137.415 71.5515L138.381 71.8091ZM138.333 72.2684C138.324 72.1146 138.34 71.9603 138.381 71.8114L137.416 71.5492C137.347 71.8023 137.32 72.0648 137.335 72.3266L138.333 72.2684ZM138.44 72.8759C138.381 72.6782 138.345 72.4743 138.333 72.2686L137.335 72.3265C137.351 72.6092 137.401 72.8892 137.481 73.1609L138.44 72.8759ZM138.72 73.5914C138.606 73.3611 138.513 73.1218 138.44 72.8761L137.481 73.1607C137.57 73.4603 137.684 73.752 137.822 74.0327L138.72 73.5914ZM138.72 73.5918L138.72 73.5915L137.822 74.0326L137.822 74.033L138.72 73.5918ZM139.172 74.3798C139.004 74.1276 138.853 73.8647 138.72 73.5929L137.822 74.0318C137.974 74.3435 138.147 74.6448 138.339 74.9338L139.172 74.3798ZM139.609 74.9827C139.455 74.7878 139.309 74.5867 139.172 74.3801L138.339 74.9335C138.491 75.1628 138.653 75.3858 138.824 75.602L139.609 74.9827ZM138.268 74.616C138.427 74.9395 138.602 75.2539 138.793 75.558L139.64 75.0267C139.468 74.7521 139.31 74.4683 139.167 74.1762L138.268 74.616ZM138.267 74.6138L138.268 74.6159L139.167 74.1763L139.166 74.1742L138.267 74.6138ZM138.259 74.5956L138.26 74.5978L139.173 74.1903L139.172 74.1881L138.259 74.5956ZM138.329 71.356C137.628 72.214 137.74 73.4304 138.259 74.5954L139.172 74.1884C138.708 73.1455 138.764 72.4039 139.103 71.9886L138.329 71.356ZM141.668 70.6536C140.346 70.3441 139.06 70.4617 138.329 71.3558L139.103 71.9887C139.461 71.5504 140.233 71.3447 141.44 71.6272L141.668 70.6536ZM141.67 70.6539L141.668 70.6536L141.44 71.6272L141.442 71.6275L141.67 70.6539ZM143.749 71.4458C143.093 71.0983 142.397 70.8328 141.675 70.6552L141.436 71.6263C142.078 71.7842 142.698 72.0204 143.281 72.3294L143.749 71.4458ZM143.753 71.4478L143.749 71.4458L143.281 72.3294L143.284 72.3314L143.753 71.4478ZM143.784 71.4661L143.781 71.4639L143.256 72.3153L143.26 72.3175L143.784 71.4661ZM146.613 73.9485C145.818 72.9688 144.862 72.1295 143.784 71.4661L143.26 72.3175C144.242 72.9221 145.113 73.6867 145.837 74.5787L146.613 73.9485ZM148.909 80.7538C149.021 78.279 148.201 75.852 146.609 73.9434L145.841 74.5838C147.273 76.3016 148.01 78.4843 147.91 80.7088L148.909 80.7538ZM146.006 87.3343C147.763 85.5739 148.798 83.2289 148.909 80.7538L147.91 80.7088C147.81 82.9335 146.88 85.043 145.298 86.6279L146.006 87.3343ZM146 87.3396L146.006 87.3343L145.298 86.628L145.292 86.6333L146 87.3396ZM145.951 87.3827L145.957 87.378L145.335 86.5949L145.329 86.5996L145.951 87.3827ZM139.092 89.7627C141.585 89.7676 144.005 88.9281 145.951 87.3828L145.329 86.5996C143.561 88.0036 141.361 88.7671 139.094 88.7627L139.092 89.7627ZM132.242 87.3563C134.182 88.9091 136.599 89.7579 139.092 89.7627L139.094 88.7627C136.826 88.7583 134.629 87.9863 132.867 86.5755L132.242 87.3563ZM130.69 85.8457C131.156 86.3988 131.676 86.9049 132.242 87.3567L132.866 86.5751C132.351 86.1642 131.879 85.704 131.455 85.2013L130.69 85.8457ZM130.685 85.8389L130.69 85.8457L131.455 85.2013L131.449 85.1945L130.685 85.8389ZM130.64 85.7763L130.644 85.7838L131.49 85.2496L131.485 85.242L130.64 85.7763ZM127.908 77.6027C128.143 80.5053 129.08 83.3089 130.64 85.7763L131.485 85.242C130.011 82.9109 129.126 80.2629 128.904 77.522L127.908 77.6027ZM129.289 69.1016C128.146 71.7841 127.672 74.7001 127.908 77.6027L128.904 77.522C128.682 74.781 129.13 72.0273 130.209 69.4935L129.289 69.1016ZM134.472 62.1918C132.21 64.0491 130.432 66.4191 129.289 69.1016L130.209 69.4935C131.288 66.9597 132.968 64.7202 135.106 62.9646L134.472 62.1918ZM142.284 58.4303C139.413 59.0444 136.734 60.3345 134.472 62.1918L135.106 62.9646C137.244 61.209 139.778 59.989 142.494 59.4082L142.284 58.4303ZM142.297 58.4277L142.284 58.4303L142.494 59.4082L142.506 59.4055L142.297 58.4277ZM142.403 58.4165L142.391 58.4167L142.412 59.4165L142.425 59.4162L142.403 58.4165ZM156.392 64.6275C153.062 60.4084 147.843 58.2989 142.403 58.4165L142.425 59.4162C147.6 59.3044 152.5 61.31 155.607 65.247L156.392 64.6275ZM158.877 80.3201C160.597 74.9023 159.878 69.0491 156.392 64.6277L155.607 65.2468C158.858 69.3706 159.559 74.8678 157.924 80.0175L158.877 80.3201ZM158.876 80.3243L158.877 80.3199L157.924 80.0178L157.923 80.0223L158.876 80.3243ZM158.862 80.3633L158.863 80.3589L157.935 79.9876L157.933 79.992L158.862 80.3633ZM150.908 90.4722C154.482 87.9275 157.243 84.4187 158.862 80.363L157.933 79.9923C156.386 83.8687 153.746 87.2237 150.328 89.6576L150.908 90.4722ZM138.705 94.7183C143.099 94.4905 147.335 93.0168 150.908 90.4722L150.328 89.6576C146.91 92.0915 142.858 93.5016 138.653 93.7196L138.705 94.7183ZM138.695 94.7188L138.705 94.7183L138.653 93.7196L138.643 93.7201L138.695 94.7188ZM138.611 94.7161L138.62 94.7171L138.718 93.7218L138.708 93.7209L138.611 94.7161ZM125.358 87.9883C128.759 91.8107 133.494 94.2141 138.611 94.7161L138.708 93.7209C133.841 93.2433 129.338 90.957 126.105 87.3236L125.358 87.9883ZM125.358 87.9875L125.358 87.9883L126.105 87.3236L126.105 87.3229L125.358 87.9875ZM125.352 87.981L125.353 87.9818L126.11 87.3286L126.109 87.3278L125.352 87.981ZM121.351 80.7741C122.175 83.4215 123.537 85.8738 125.352 87.9807L126.109 87.3281C124.384 85.3245 123.089 82.9931 122.306 80.4768L121.351 80.7741ZM120.559 72.5861C120.258 75.3405 120.527 78.1268 121.351 80.7741L122.306 80.4768C121.523 77.9607 121.267 75.3126 121.553 72.695L120.559 72.5861ZM126.767 58.4375C123.286 62.3955 121.109 67.3346 120.559 72.5886L121.554 72.6926C122.082 67.6464 124.173 62.9014 127.518 59.0979L126.767 58.4375ZM127.418 59.1903C127.435 59.176 127.451 59.1617 127.468 59.1474L126.817 58.388C126.8 58.4028 126.783 58.4176 126.766 58.4325L127.418 59.1903ZM125.682 60.8258C126.227 60.2669 126.817 59.7085 127.418 59.1901L126.765 58.4326C126.141 58.9711 125.53 59.5496 124.966 60.1279L125.682 60.8258ZM124.137 62.568C124.616 61.9759 125.14 61.3821 125.682 60.8258L124.966 60.1279C124.401 60.7076 123.857 61.3246 123.36 61.9394L124.137 62.568ZM122.782 64.4093C123.199 63.7881 123.66 63.1589 124.137 62.568L123.36 61.9394C122.862 62.5548 122.384 63.2081 121.952 63.8521L122.782 64.4093ZM121.619 66.3237C121.975 65.6735 122.366 65.0291 122.782 64.4093L121.952 63.8521C121.519 64.4968 121.112 65.167 120.742 65.8435L121.619 66.3237ZM121.619 66.3236L121.619 66.3235L120.742 65.8437L120.742 65.8439L121.619 66.3236ZM119.874 70.3226C120.333 68.9406 120.917 67.6025 121.619 66.3243L120.742 65.8431C120.011 67.1743 119.403 68.568 118.925 70.0075L119.874 70.3226ZM118.928 74.4472C119.114 73.0461 119.431 71.665 119.875 70.3218L118.925 70.0082C118.462 71.4106 118.131 72.8525 117.937 74.3155L118.928 74.4472ZM118.785 78.5719C118.698 77.1958 118.746 75.8144 118.928 74.4474L117.937 74.3153C117.746 75.747 117.696 77.1938 117.787 78.6351L118.785 78.5719ZM119.459 82.5728C119.096 81.2656 118.871 79.925 118.785 78.572L117.787 78.6351C117.877 80.0571 118.114 81.4663 118.495 82.8401L119.459 82.5728ZM120.108 84.4877C119.857 83.861 119.64 83.2215 119.459 82.5719L118.496 82.841C118.687 83.5254 118.915 84.1992 119.179 84.8593L120.108 84.4877ZM160.688 69.325C160.861 70.1042 160.974 70.8956 161.026 71.6918L162.024 71.6272C161.969 70.7795 161.848 69.9371 161.664 69.1076L160.688 69.325ZM161.026 71.6919L161.026 71.6984L162.024 71.6337L162.024 71.6272L161.026 71.6919ZM161.032 71.7483L161.033 71.7547L162.019 71.5902L162.018 71.5838L161.032 71.7483ZM161.033 71.7548C161.136 72.3702 161.209 72.992 161.253 73.6161L162.25 73.5461C162.204 72.8909 162.127 72.2375 162.019 71.5901L161.033 71.7548ZM155.371 90.3785L154.671 89.6644L154.671 89.6644L155.371 90.3785ZM153.719 91.8409L154.345 92.6212L154.345 92.6212L153.719 91.8409ZM151.932 93.1378L152.478 93.9751V93.9751L151.932 93.1378ZM150.062 94.2346L150.526 95.1206L150.527 95.1203L150.062 94.2346ZM146.14 95.8319L145.853 94.8741L145.852 94.8742L146.14 95.8319ZM142.074 96.6465L142.177 97.6413L142.178 97.6412L142.074 96.6465ZM139.487 96.7585L139.503 95.7586L139.467 95.758L139.432 95.76L139.487 96.7585ZM138.196 96.7944L138.193 97.7944H138.196V96.7944ZM137.983 96.7937L137.974 97.7937L137.98 97.7937L137.983 96.7937ZM133.717 96.3467L133.517 97.3266L133.518 97.3267L133.717 96.3467ZM129.687 95.0878L129.291 96.0064L129.293 96.007L129.687 95.0878ZM127.8 94.1539L127.309 95.0248L127.309 95.025L127.8 94.1539ZM126.021 93.0171L125.437 93.8287L125.437 93.8289L126.021 93.0171ZM120.411 86.6249L121.293 86.152L121.292 86.1518L120.411 86.6249ZM119.521 84.7217L118.593 85.0933L118.593 85.0944L119.521 84.7217ZM118.85 82.7411L117.887 83.0084L117.887 83.0102L118.85 82.7411ZM118.155 78.6117L119.153 78.5487L119.153 78.5485L118.155 78.6117ZM118.302 74.3643L119.293 74.4964L119.293 74.4961L118.302 74.3643ZM119.275 70.1244L118.326 69.8093L118.325 69.8108L119.275 70.1244ZM121.065 66.0214L121.941 66.5026L121.942 66.5016L121.065 66.0214ZM122.257 64.0585L123.088 64.6158L123.088 64.6158L122.257 64.0585ZM123.646 62.1722L122.868 61.5435L122.868 61.5435L123.646 62.1722ZM125.229 60.3863L125.946 61.0843L125.229 60.3863ZM127.006 58.713L126.353 57.9552L126.353 57.9555L127.006 58.713ZM127.778 58.0719L127.154 57.2908L127.154 57.2908L127.778 58.0719ZM128.543 57.4819L129.242 58.1971L127.947 56.6793L128.543 57.4819ZM127.868 58.1677L127.142 57.4799L127.142 57.4799L127.868 58.1677ZM121.187 72.6544L122.181 72.7633L122.182 72.7584L121.187 72.6544ZM125.831 87.5698L125.073 88.2224L125.078 88.2285L125.084 88.2345L125.831 87.5698ZM138.672 94.0887L138.575 95.084L138.649 95.0913L138.724 95.0874L138.672 94.0887ZM150.541 89.959L149.961 89.1444L150.541 89.959ZM158.275 80.1297L159.204 80.5005L159.217 80.4668L159.228 80.4323L158.275 80.1297ZM155.896 65.0176L156.681 64.3985L156.681 64.3981L155.896 65.0176ZM142.417 59.0467L142.395 58.0469L142.3 58.049L142.208 58.0688L142.417 59.0467ZM134.873 62.6786L134.238 61.9057L134.873 62.6786ZM129.87 69.3482L130.79 69.7401L129.87 69.3482ZM128.537 77.5519L127.54 77.6326L128.537 77.5519ZM131.174 85.44L130.329 85.9743L130.365 86.0321L130.409 86.0844L131.174 85.44ZM132.637 86.8644L133.262 86.0837L133.261 86.0828L132.637 86.8644ZM139.093 89.1323L139.095 88.1323L139.093 89.1323ZM145.558 86.8895L146.18 87.6726L146.225 87.6367L146.266 87.5959L145.558 86.8895ZM148.278 80.7255L147.279 80.6805L148.278 80.7255ZM146.123 74.346L145.346 74.9762L145.355 74.9865L146.123 74.346ZM143.453 72.0025L143.977 71.1511L143.95 71.1341L143.921 71.1189L143.453 72.0025ZM141.524 71.2673L141.763 70.2962L141.752 70.2936L141.524 71.2673ZM138.818 71.7543L138.044 71.1214L138.044 71.1217L138.818 71.7543ZM138.836 74.3392L137.923 74.7462L137.93 74.7627L137.938 74.779L138.836 74.3392ZM140.069 76.25L140.84 75.6129L140.069 76.25ZM141.068 77.2908L140.4 78.0347L140.403 78.038L141.068 77.2908ZM141.068 77.2909L141.736 76.547L141.733 76.5438L141.068 77.2909ZM141.396 77.5726L140.794 78.3713L142.031 76.7998L141.396 77.5726ZM141.054 77.3087L140.43 78.0908L140.435 78.0943L141.054 77.3087ZM139.971 76.3371L139.261 77.0409L139.261 77.0409L139.971 76.3371ZM139.302 75.6049L138.536 76.2479L138.537 76.2496L139.302 75.6049ZM138.646 74.7285L139.478 74.1751L139.478 74.1746L138.646 74.7285ZM138.153 73.8692L139.051 73.4302L139.05 73.4279L138.153 73.8692ZM137.834 73.0552L138.793 72.7706L138.793 72.7703L137.834 73.0552ZM137.703 72.305L138.701 72.2471L138.701 72.2468L137.703 72.305ZM137.771 71.6464L138.736 71.9087L138.737 71.9066L137.771 71.6464ZM138.049 71.1053L138.824 71.7372L138.824 71.7372L138.049 71.1053ZM138.524 70.7226L138.072 69.8306L138.072 69.8307L138.524 70.7226ZM139.16 70.5191L139.01 69.5304L139.01 69.5305L139.16 70.5191ZM139.929 70.4906L139.852 71.4877L139.856 71.488L139.929 70.4906ZM140.728 70.6121L140.502 71.5861L140.551 71.5974L140.6 71.6038L140.728 70.6121ZM141.509 70.7409L141.312 71.7214L141.318 71.7225L141.509 70.7409ZM143.534 71.346L143.909 70.4187L143.909 70.4187L143.534 71.346ZM144.472 71.7767L144.008 72.6623L144.013 72.665L144.472 71.7767ZM146.175 72.8673L146.79 72.079L146.79 72.0789L146.175 72.8673ZM147.613 74.2239L148.365 73.5645L148.364 73.564L147.613 74.2239ZM148.752 75.8084L149.617 75.3059L149.617 75.3058L148.752 75.8084ZM149.552 77.5719L150.5 77.2545L150.499 77.2527L149.552 77.5719ZM149.812 78.5093L148.836 78.726L148.836 78.7266L149.812 78.5093ZM149.196 84.3364L150.105 84.7528L150.105 84.7528L149.196 84.3364ZM148.744 85.1999L149.604 85.7105L149.606 85.7084L148.744 85.1999ZM147.592 86.7599L146.851 86.0879L146.85 86.0891L147.592 86.7599ZM146.765 87.5738L146.106 86.8222L146.07 86.8536L146.037 86.8883L146.765 87.5738ZM143.905 89.7098L144.356 90.6022L144.356 90.6022L143.905 89.7098ZM142.982 90.1167L143.333 91.053H143.333L142.982 90.1167ZM142.012 90.4375L141.746 89.4735L141.745 89.4738L142.012 90.4375ZM141 90.6641L141.168 91.6498L141.169 91.6496L141 90.6641ZM138.891 90.8099L138.86 91.8094L138.86 91.8094L138.891 90.8099ZM137.857 90.7251L137.725 91.7164L137.726 91.7165L137.857 90.7251ZM136.851 90.5406L137.081 89.5674L137.081 89.5674L136.851 90.5406ZM135.88 90.2619L135.556 91.2083L135.558 91.2088L135.88 90.2619ZM132.448 88.2949L131.794 89.0514L131.794 89.0515L132.448 88.2949ZM131.405 87.2557L132.16 86.5992L132.114 86.5469L132.062 86.5015L131.405 87.2557ZM129.75 85.5695L128.982 86.2101L128.984 86.2117L129.75 85.5695ZM128.009 82.9954L127.129 83.4691L127.129 83.4696L128.009 82.9954ZM126.805 80.1189L125.849 80.4136L125.849 80.4138L126.805 80.1189ZM126.164 77.0279L125.17 77.137L125.17 77.1374L126.164 77.0279ZM126.115 73.8122L125.118 73.7335L125.118 73.7336L126.115 73.8122ZM126.684 70.5564L125.72 70.2911L125.72 70.2921L126.684 70.5564ZM129.697 64.4377L128.899 63.8348L128.898 63.8357L129.697 64.4377ZM131.934 61.9911L131.262 61.2501L131.262 61.2504L131.934 61.9911ZM134.519 60.0526L133.996 59.2003L133.996 59.2004L134.519 60.0526ZM137.372 58.6499L137.017 57.7151L137.016 57.7153L137.372 58.6499ZM139.024 58.1195L139.28 59.0863L139.315 59.0768L139.351 59.0647L139.024 58.1195ZM139.419 57.992L139.707 58.9494L139.717 58.9463L139.419 57.992ZM142.979 57.218L142.855 56.2258L142.854 56.2258L142.979 57.218ZM146.513 57.1014L146.572 56.1031L146.572 56.1031L146.513 57.1014ZM149.93 57.6345L150.178 56.6659L150.178 56.6658L149.93 57.6345ZM153.12 58.812L153.561 57.9144L153.56 57.9141L153.12 58.812ZM155.981 60.6271L156.607 59.8469L156.606 59.8459L155.981 60.6271ZM160.218 66.0004L161.124 65.5761L161.123 65.5749L160.218 66.0004ZM161.304 69.1883L160.328 69.4048L160.328 69.4058L161.304 69.1883ZM156.078 88.1509C155.638 88.6727 155.163 89.1827 154.671 89.6644L156.071 91.0927C156.606 90.5691 157.124 90.0129 157.607 89.44L156.078 88.1509ZM154.671 89.6644C154.183 90.1427 153.643 90.6206 153.094 91.0606L154.345 92.6212C154.943 92.1415 155.534 91.6196 156.071 91.0927L154.671 89.6644ZM153.094 91.0606C152.545 91.5008 151.97 91.9186 151.385 92.3005L152.478 93.9751C153.119 93.5567 153.746 93.1007 154.345 92.6212L153.094 91.0606ZM151.385 92.3005C150.799 92.6831 150.207 93.0298 149.598 93.3488L150.527 95.1203C151.191 94.7719 151.839 94.3929 152.478 93.9751L151.385 92.3005ZM149.599 93.3485C148.402 93.9746 147.148 94.4855 145.853 94.8741L146.427 96.7897C147.844 96.3647 149.217 95.8057 150.526 95.1206L149.599 93.3485ZM145.852 94.8742C144.586 95.2544 143.287 95.5148 141.971 95.6519L142.178 97.6412C143.619 97.4911 145.041 97.206 146.428 96.7897L145.852 94.8742ZM141.972 95.6518C141.152 95.736 140.327 95.7717 139.503 95.7586L139.471 97.7583C140.375 97.7727 141.278 97.7336 142.177 97.6413L141.972 95.6518ZM139.432 95.76C139.019 95.7829 138.607 95.7944 138.196 95.7944V97.7944C138.644 97.7944 139.093 97.7819 139.543 97.7569L139.432 95.76ZM138.2 95.7944L137.986 95.7937L137.98 97.7937L138.193 97.7944L138.2 95.7944ZM137.991 95.7938C136.622 95.7823 135.257 95.6393 133.916 95.3668L133.518 97.3267C134.985 97.6248 136.477 97.7811 137.974 97.7937L137.991 95.7938ZM133.916 95.3668C132.599 95.0988 131.314 94.6973 130.081 94.1687L129.293 96.007C130.652 96.5893 132.067 97.0315 133.517 97.3266L133.916 95.3668ZM130.082 94.1693C129.469 93.9057 128.872 93.6097 128.291 93.2827L127.309 95.025C127.952 95.3871 128.614 95.7147 129.291 96.0064L130.082 94.1693ZM128.292 93.2829C127.71 92.9546 127.147 92.5948 126.605 92.2052L125.437 93.8289C126.039 94.2614 126.663 94.6606 127.309 95.0248L128.292 93.2829ZM126.605 92.2054C124.392 90.6129 122.576 88.5425 121.293 86.152L119.53 87.0979C120.958 89.7576 122.978 92.0592 125.437 93.8287L126.605 92.2054ZM121.292 86.1518C120.978 85.5666 120.697 84.9647 120.449 84.3489L118.593 85.0944C118.868 85.7789 119.181 86.4478 119.53 87.0981L121.292 86.1518ZM120.45 84.3501C120.204 83.7357 119.991 83.1088 119.814 82.4719L117.887 83.0102C118.085 83.7166 118.32 84.412 118.593 85.0933L120.45 84.3501ZM119.814 82.4737C119.458 81.1913 119.237 79.876 119.153 78.5487L117.157 78.6747C117.249 80.1404 117.494 81.5926 117.887 83.0084L119.814 82.4737ZM119.153 78.5485C119.067 77.1965 119.114 75.8395 119.293 74.4964L117.311 74.2322C117.114 75.7047 117.063 77.1925 117.157 78.6749L119.153 78.5485ZM119.293 74.4961C119.476 73.1178 119.788 71.7593 120.224 70.4379L118.325 69.8108C117.85 71.2505 117.51 72.7307 117.311 74.2326L119.293 74.4961ZM120.224 70.4395C120.676 69.0788 121.25 67.7612 121.941 66.5026L120.188 65.5403C119.439 66.9048 118.816 68.3336 118.326 69.8093L120.224 70.4395ZM121.942 66.5016C122.292 65.8612 122.678 65.2263 123.088 64.6158L121.427 63.5012C120.984 64.1618 120.567 64.8482 120.187 65.5413L121.942 66.5016ZM123.088 64.6158C123.499 64.003 123.953 63.3826 124.424 62.8009L122.868 61.5435C122.358 62.1745 121.869 62.8429 121.427 63.5012L123.088 64.6158ZM124.424 62.8009C124.896 62.2171 125.412 61.6319 125.946 61.0843L124.513 59.6883C123.934 60.2829 123.377 60.9146 122.868 61.5435L124.424 62.8009ZM125.946 61.0843C126.483 60.5325 127.066 59.9814 127.658 59.4704L126.353 57.9555C125.713 58.5067 125.089 59.0979 124.513 59.6883L125.946 61.0843ZM127.658 59.4708C127.902 59.2609 128.151 59.0545 128.403 58.8529L127.154 57.2908C126.883 57.5074 126.615 57.7293 126.353 57.9552L127.658 59.4708ZM128.403 58.8529C128.646 58.6585 128.892 58.4686 129.14 58.2844L127.947 56.6793C127.68 56.8776 127.415 57.0818 127.154 57.2908L128.403 58.8529ZM127.844 56.7667C127.605 57.0003 127.371 57.2381 127.142 57.4799L128.594 58.8555C128.805 58.6323 129.021 58.4128 129.242 58.1971L127.844 56.7667ZM127.142 57.4799C123.231 61.6069 120.784 66.8987 120.193 72.5503L122.182 72.7584C122.727 67.5472 124.984 62.6651 128.594 58.8555L127.142 57.4799ZM120.193 72.5455C119.886 75.3506 120.16 78.1883 121 80.8843L122.909 80.2898C122.152 77.8561 121.904 75.2949 122.181 72.7633L120.193 72.5455ZM121 80.8843C121.839 83.5802 123.225 86.0773 125.073 88.2224L126.588 86.9171C124.919 84.9788 123.667 82.7235 122.909 80.2898L121 80.8843ZM125.084 88.2345C128.546 92.1266 133.367 94.573 138.575 95.084L138.77 93.0935C134.06 92.6314 129.704 90.4192 126.578 86.9051L125.084 88.2345ZM138.724 95.0874C143.188 94.856 147.491 93.3591 151.121 90.7736L149.961 89.1444C146.642 91.5084 142.705 92.8783 138.621 93.0901L138.724 95.0874ZM151.121 90.7736C154.752 88.1881 157.558 84.6226 159.204 80.5005L157.346 79.7589C155.844 83.5225 153.281 86.7805 149.961 89.1444L151.121 90.7736ZM159.228 80.4323C160.98 74.9149 160.254 68.9299 156.681 64.3985L155.111 65.6367C158.214 69.573 158.903 74.846 157.322 79.8271L159.228 80.4323ZM156.681 64.3981C153.269 60.0748 147.932 57.9272 142.395 58.0469L142.438 60.0464C147.445 59.9382 152.144 61.878 155.111 65.6371L156.681 64.3981ZM142.208 58.0688C139.28 58.6951 136.546 60.011 134.238 61.9057L135.507 63.4515C137.567 61.76 140.009 60.5843 142.626 60.0246L142.208 58.0688ZM134.238 61.9057C131.931 63.8005 130.117 66.2187 128.95 68.9563L130.79 69.7401C131.83 67.3 133.447 65.1428 135.507 63.4515L134.238 61.9057ZM128.95 68.9563C127.784 71.694 127.3 74.67 127.54 77.6326L129.534 77.4712C129.32 74.8319 129.751 72.1802 130.79 69.7401L128.95 68.9563ZM127.54 77.6326C127.78 80.5952 128.737 83.4564 130.329 85.9743L132.019 84.9056C130.6 82.6605 129.748 80.1104 129.534 77.4712L127.54 77.6326ZM130.409 86.0844C130.891 86.656 131.428 87.179 132.013 87.646L133.261 86.0828C132.778 85.6977 132.335 85.2665 131.939 84.7956L130.409 86.0844ZM132.012 87.6451C134.018 89.2504 136.515 90.1273 139.091 90.1323L139.095 88.1323C136.97 88.1282 134.912 87.4047 133.262 86.0837L132.012 87.6451ZM139.091 90.1323C141.667 90.1373 144.168 89.2701 146.18 87.6726L144.936 86.1063C143.28 87.421 141.22 88.1365 139.095 88.1323L139.091 90.1323ZM146.266 87.5959C148.088 85.7706 149.162 83.3384 149.277 80.7705L147.279 80.6805C147.186 82.7478 146.322 84.7089 144.85 86.183L146.266 87.5959ZM149.277 80.7705C149.393 78.2024 148.542 75.6847 146.891 73.7055L145.355 74.9865C146.687 76.5841 147.372 78.6132 147.279 80.6805L149.277 80.7705ZM146.899 73.7159C146.078 72.7035 145.09 71.8364 143.977 71.1511L142.928 72.854C143.85 73.4215 144.667 74.1391 145.346 74.9761L146.899 73.7159ZM143.921 71.1189C143.239 70.7573 142.514 70.481 141.763 70.2963L141.285 72.2383C141.877 72.3839 142.447 72.6015 142.984 72.8861L143.921 71.1189ZM141.752 70.2936C140.387 69.9741 138.912 70.0598 138.044 71.1214L139.592 72.3872C139.716 72.236 140.163 71.9758 141.296 72.241L141.752 70.2936ZM138.044 71.1217C137.209 72.1431 137.383 73.5351 137.923 74.7462L139.749 73.9322C139.32 72.9674 139.481 72.5239 139.593 72.3869L138.044 71.1217ZM137.938 74.779C138.308 75.5343 138.765 76.2414 139.298 76.887L140.84 75.6129C140.406 75.0879 140.035 74.513 139.734 73.8994L137.938 74.779ZM139.298 76.887C139.636 77.2954 140.004 77.6791 140.4 78.0347L141.736 76.5469C141.414 76.2574 141.114 75.9451 140.84 75.6129L139.298 76.887ZM140.403 78.038L140.403 78.0381L141.733 76.5438L141.733 76.5437L140.403 78.038ZM140.4 78.0348C140.518 78.1409 140.638 78.2444 140.761 78.3453L142.031 76.7998C141.931 76.7176 141.832 76.6333 141.736 76.547L140.4 78.0348ZM141.998 76.7739C141.889 76.6923 141.781 76.6085 141.672 76.5232L140.435 78.0943C140.554 78.188 140.674 78.2806 140.794 78.3713L141.998 76.7739ZM141.677 76.5267C141.327 76.2482 140.995 75.9499 140.681 75.6333L139.261 77.0409C139.629 77.413 140.02 77.7636 140.43 78.0908L141.677 76.5267ZM140.681 75.6333C140.467 75.4173 140.262 75.1927 140.066 74.9602L138.537 76.2496C138.768 76.523 139.009 76.787 139.261 77.0409L140.681 75.6333ZM140.067 74.9619C139.856 74.7106 139.66 74.4479 139.478 74.1751L137.813 75.282C138.035 75.6171 138.277 75.9396 138.536 76.2479L140.067 74.9619ZM139.478 74.1746C139.319 73.936 139.177 73.6873 139.051 73.4302L137.254 74.3081C137.419 74.6448 137.605 74.9703 137.813 75.2825L139.478 74.1746ZM139.05 73.4279C138.946 73.2162 138.86 72.9964 138.793 72.7706L136.876 73.3398C136.975 73.6734 137.102 73.9981 137.255 74.3105L139.05 73.4279ZM138.793 72.7703C138.742 72.5999 138.711 72.4244 138.701 72.2471L136.704 72.3629C136.724 72.6942 136.781 73.0221 136.876 73.3402L138.793 72.7703ZM138.701 72.2468C138.694 72.133 138.706 72.0189 138.736 71.9087L136.806 71.3842C136.72 71.703 136.685 72.0335 136.705 72.3633L138.701 72.2468ZM138.737 71.9066C138.753 71.8454 138.783 71.7876 138.824 71.7372L137.274 70.4734C137.055 70.7413 136.896 71.0522 136.806 71.3862L138.737 71.9066ZM138.824 71.7372C138.865 71.6868 138.917 71.6448 138.977 71.6146L138.072 69.8307C137.764 69.9868 137.492 70.2056 137.274 70.4734L138.824 71.7372ZM138.976 71.6147C139.081 71.5617 139.194 71.5255 139.311 71.5078L139.01 69.5305C138.684 69.58 138.367 69.6813 138.072 69.8306L138.976 71.6147ZM139.31 71.5078C139.49 71.4806 139.672 71.4739 139.852 71.4877L140.005 69.4936C139.673 69.4682 139.339 69.4805 139.01 69.5304L139.31 71.5078ZM139.856 71.488C140.073 71.5039 140.29 71.5367 140.502 71.5861L140.955 69.638C140.641 69.5652 140.323 69.5168 140.002 69.4933L139.856 71.488ZM140.6 71.6038C140.839 71.6347 141.077 71.6743 141.312 71.7214L141.706 69.7605C141.427 69.7045 141.142 69.6573 140.857 69.6203L140.6 71.6038ZM141.318 71.7225C141.629 71.7831 141.946 71.8635 142.259 71.957L142.831 70.0404C142.466 69.9317 142.086 69.8344 141.7 69.7594L141.318 71.7225ZM142.259 71.957C142.566 72.0486 142.865 72.154 143.16 72.2732L143.909 70.4187C143.559 70.2774 143.201 70.1509 142.831 70.0404L142.259 71.957ZM143.16 72.2732C143.457 72.3932 143.738 72.5208 144.008 72.6623L144.937 70.891C144.599 70.7138 144.256 70.5591 143.909 70.4187L143.16 72.2732ZM144.013 72.665C144.559 72.9471 145.077 73.2788 145.56 73.6558L146.79 72.0789C146.209 71.6256 145.587 71.227 144.931 70.8883L144.013 72.665ZM145.56 73.6557C146.031 74.0239 146.467 74.4351 146.861 74.8838L148.364 73.564C147.887 73.0212 147.36 72.5241 146.79 72.079L145.56 73.6557ZM146.861 74.8833C147.249 75.3255 147.593 75.8036 147.887 76.3109L149.617 75.3058C149.257 74.6867 148.837 74.1035 148.365 73.5645L146.861 74.8833ZM147.887 76.3108C148.179 76.8127 148.419 77.3421 148.604 77.8911L150.499 77.2527C150.272 76.5761 149.976 75.9239 149.617 75.3059L147.887 76.3108ZM148.603 77.8893C148.695 78.1641 148.773 78.4434 148.836 78.726L150.788 78.2925C150.71 77.9418 150.614 77.5953 150.5 77.2545L148.603 77.8893ZM148.836 78.7266C149.224 80.4708 149.032 82.2928 148.286 83.9201L150.105 84.7528C151.031 82.7294 151.271 80.4624 150.788 78.2919L148.836 78.7266ZM148.287 83.92C148.166 84.1838 148.031 84.4412 147.883 84.6913L149.606 85.7084C149.788 85.3987 149.955 85.0797 150.105 84.7528L148.287 83.92ZM147.885 84.6892C147.588 85.1884 147.242 85.657 146.851 86.0879L148.332 87.4319C148.813 86.9018 149.239 86.3251 149.604 85.7105L147.885 84.6892ZM146.85 86.0891C146.616 86.3474 146.368 86.5921 146.106 86.8222L147.425 88.3255C147.745 88.0449 148.048 87.7461 148.333 87.4307L146.85 86.0891ZM146.037 86.8883C145.296 87.6749 144.422 88.3278 143.454 88.8173L144.356 90.6022C145.531 90.0083 146.593 89.2155 147.493 88.2594L146.037 86.8883ZM143.454 88.8173C143.184 88.9538 142.907 89.0771 142.631 89.1804L143.333 91.053C143.684 90.9216 144.028 90.7682 144.356 90.6022L143.454 88.8173ZM142.631 89.1804C142.335 89.2915 142.035 89.3939 141.746 89.4735L142.278 91.4016C142.644 91.3007 143.004 91.1766 143.333 91.053L142.631 89.1804ZM141.745 89.4738C141.444 89.5572 141.139 89.6255 140.83 89.6785L141.169 91.6496C141.543 91.5854 141.913 91.5025 142.279 91.4013L141.745 89.4738ZM140.831 89.6784C140.201 89.7862 139.562 89.8304 138.923 89.8104L138.86 91.8094C139.633 91.8336 140.406 91.7801 141.168 91.6498L140.831 89.6784ZM138.923 89.8104C138.61 89.8004 138.298 89.7749 137.988 89.7338L137.726 91.7165C138.102 91.7663 138.48 91.7973 138.86 91.8094L138.923 89.8104ZM137.989 89.7339C137.684 89.6933 137.378 89.6375 137.081 89.5674L136.622 91.5139C136.985 91.5998 137.356 91.6674 137.725 91.7164L137.989 89.7339ZM137.081 89.5674C136.781 89.4967 136.489 89.4126 136.201 89.3149L135.558 91.2088C135.906 91.3268 136.26 91.4286 136.622 91.5139L137.081 89.5674ZM136.203 89.3155C135.062 88.9263 134.01 88.3227 133.102 87.5382L131.794 89.0515C132.897 90.0043 134.174 90.7365 135.556 91.2083L136.203 89.3155ZM133.102 87.5383C132.766 87.2477 132.451 86.9338 132.16 86.5992L130.651 87.9123C131.004 88.3183 131.386 88.699 131.794 89.0514L133.102 87.5383ZM132.062 86.5015C131.506 86.0176 130.989 85.4912 130.517 84.9273L128.984 86.2117C129.524 86.8561 130.114 87.4574 130.749 88.01L132.062 86.5015ZM130.518 84.9289C129.895 84.1823 129.35 83.3757 128.89 82.5213L127.129 83.4696C127.653 84.4424 128.274 85.3605 128.982 86.2101L130.518 84.9289ZM128.89 82.5218C128.427 81.6604 128.048 80.757 127.76 79.8239L125.849 80.4138C126.176 81.4707 126.604 82.4939 127.129 83.4691L128.89 82.5218ZM127.761 79.8242C127.468 78.8764 127.267 77.9035 127.158 76.9185L125.17 77.1374C125.292 78.2482 125.52 79.3451 125.849 80.4136L127.761 79.8242ZM127.158 76.9189C127.048 75.9131 127.032 74.8993 127.112 73.8907L125.118 73.7336C125.029 74.8672 125.046 76.0066 125.17 77.137L127.158 76.9189ZM127.112 73.8909C127.194 72.8532 127.373 71.8254 127.649 70.8208L125.72 70.2921C125.411 71.418 125.21 72.5702 125.118 73.7335L127.112 73.8909ZM127.649 70.8218C128.223 68.735 129.188 66.7734 130.495 65.0396L128.898 63.8357C127.44 65.7705 126.362 67.9604 125.72 70.2911L127.649 70.8218ZM130.495 65.0405C131.124 64.2076 131.831 63.4346 132.606 62.7318L131.262 61.2504C130.395 62.0369 129.604 62.9022 128.899 63.8348L130.495 65.0405ZM132.605 62.7321C133.359 62.0495 134.174 61.4377 135.042 60.9047L133.996 59.2004C133.023 59.7981 132.107 60.4842 131.262 61.2501L132.605 62.7321ZM135.042 60.9049C135.893 60.3824 136.793 59.9403 137.728 59.5845L137.016 57.7153C135.965 58.1154 134.954 58.6125 133.996 59.2003L135.042 60.9049ZM137.727 59.5847C138.235 59.3916 138.754 59.2253 139.28 59.0863L138.769 57.1526C138.175 57.3094 137.591 57.4972 137.017 57.7151L137.727 59.5847ZM139.351 59.0647C139.469 59.0238 139.588 58.9853 139.707 58.9493L139.13 57.0346C138.985 57.0782 138.841 57.1247 138.698 57.1742L139.351 59.0647ZM139.717 58.9463C140.821 58.6007 141.955 58.3543 143.103 58.2103L142.854 56.2258C141.588 56.3847 140.338 56.6564 139.12 57.0376L139.717 58.9463ZM143.103 58.2103C144.214 58.0712 145.336 58.0341 146.455 58.0997L146.572 56.1031C145.331 56.0304 144.087 56.0715 142.855 56.2258L143.103 58.2103ZM146.454 58.0996C147.544 58.1637 148.625 58.3324 149.681 58.6032L150.178 56.6658C148.997 56.3632 147.789 56.1747 146.572 56.1031L146.454 58.0996ZM149.681 58.6031C150.716 58.869 151.721 59.2399 152.68 59.7099L153.56 57.9141C152.479 57.384 151.346 56.9658 150.178 56.6659L149.681 58.6031ZM152.679 59.7096C153.632 60.1775 154.53 60.7471 155.357 61.4082L156.606 59.8459C155.665 59.0939 154.644 58.4462 153.561 57.9144L152.679 59.7096ZM155.356 61.4072C157.044 62.7608 158.397 64.4774 159.313 66.4259L161.123 65.5749C160.077 63.3493 158.532 61.3904 156.607 59.8469L155.356 61.4072ZM159.313 66.4248C159.76 67.3786 160.1 68.3779 160.328 69.4048L162.28 68.9719C162.021 67.8014 161.633 66.6627 161.124 65.5761L159.313 66.4248ZM160.328 69.4058C160.497 70.1663 160.608 70.9386 160.658 71.7158L162.654 71.5866C162.597 70.7065 162.472 69.832 162.28 68.9709L160.328 69.4058Z" fill="white" mask="url(#path-5-inside-2_13326_76992)"/>
<path d="M169.988 36.99L169.597 37.2845L169.988 36.99C169.906 36.8804 169.806 36.7872 169.693 36.7132C169.98 36.6676 170.279 36.6638 170.583 36.7077C172.184 36.9398 173.285 38.4119 173.053 39.9879C172.82 41.5638 171.34 42.6619 169.738 42.4299C168.136 42.1978 167.035 40.7257 167.268 39.1498C167.344 38.6341 167.554 38.1696 167.858 37.7861C167.874 38.0094 167.955 38.2231 168.09 38.402C168.23 38.5885 168.422 38.7291 168.642 38.8065L168.81 38.3351L168.642 38.8065C168.862 38.884 169.1 38.8951 169.327 38.8384C169.554 38.7817 169.759 38.6595 169.917 38.4864L169.547 38.1505L169.917 38.4864C170.074 38.3134 170.177 38.0974 170.211 37.8658C170.257 37.5552 170.176 37.2402 169.988 36.99Z" fill="white" stroke="white"/>
<mask id="path-8-inside-3_13326_76992" fill="white">
<path fill-rule="evenodd" clip-rule="evenodd" d="M166.903 39.0969C166.64 40.879 167.885 42.5349 169.684 42.7955C171.483 43.0561 173.154 41.8228 173.417 40.0407C173.68 38.2586 172.435 36.6027 170.637 36.3421C168.838 36.0815 167.166 37.3149 166.903 39.0969ZM169.847 37.813C169.823 37.9713 169.753 38.1191 169.645 38.2378C169.537 38.3566 169.395 38.4408 169.239 38.48C169.082 38.5192 168.918 38.5115 168.766 38.4579C168.613 38.4044 168.481 38.3073 168.384 38.179C168.288 38.0508 168.232 37.8971 168.224 37.7373C168.216 37.5776 168.255 37.419 168.338 37.2817C168.421 37.1443 168.543 37.0344 168.688 36.9657C168.834 36.897 168.997 36.8727 169.157 36.8959C169.371 36.9269 169.564 37.041 169.694 37.213C169.823 37.385 169.878 37.6008 169.847 37.813ZM166.773 39.0781C166.499 40.9314 167.794 42.6535 169.665 42.9245C171.536 43.1956 173.274 41.9129 173.548 40.0596C173.821 38.2063 172.526 36.4841 170.656 36.2131C168.785 35.9421 167.047 37.2248 166.773 39.0781ZM169.716 37.7942C169.697 37.9269 169.638 38.0509 169.547 38.1505C169.457 38.2501 169.338 38.3208 169.207 38.3536C169.075 38.3865 168.937 38.38 168.81 38.3351C168.682 38.2902 168.571 38.2088 168.49 38.1012C168.409 37.9936 168.362 37.8646 168.355 37.7307C168.348 37.5967 168.382 37.4637 168.451 37.3485C168.52 37.2333 168.623 37.141 168.745 37.0834C168.867 37.0258 169.004 37.0054 169.138 37.0249C169.318 37.0509 169.48 37.1466 169.588 37.2908C169.697 37.4351 169.743 37.6162 169.716 37.7942Z"/>
</mask>
<path fill-rule="evenodd" clip-rule="evenodd" d="M166.903 39.0969C166.64 40.879 167.885 42.5349 169.684 42.7955C171.483 43.0561 173.154 41.8228 173.417 40.0407C173.68 38.2586 172.435 36.6027 170.637 36.3421C168.838 36.0815 167.166 37.3149 166.903 39.0969ZM169.847 37.813C169.823 37.9713 169.753 38.1191 169.645 38.2378C169.537 38.3566 169.395 38.4408 169.239 38.48C169.082 38.5192 168.918 38.5115 168.766 38.4579C168.613 38.4044 168.481 38.3073 168.384 38.179C168.288 38.0508 168.232 37.8971 168.224 37.7373C168.216 37.5776 168.255 37.419 168.338 37.2817C168.421 37.1443 168.543 37.0344 168.688 36.9657C168.834 36.897 168.997 36.8727 169.157 36.8959C169.371 36.9269 169.564 37.041 169.694 37.213C169.823 37.385 169.878 37.6008 169.847 37.813ZM166.773 39.0781C166.499 40.9314 167.794 42.6535 169.665 42.9245C171.536 43.1956 173.274 41.9129 173.548 40.0596C173.821 38.2063 172.526 36.4841 170.656 36.2131C168.785 35.9421 167.047 37.2248 166.773 39.0781ZM169.716 37.7942C169.697 37.9269 169.638 38.0509 169.547 38.1505C169.457 38.2501 169.338 38.3208 169.207 38.3536C169.075 38.3865 168.937 38.38 168.81 38.3351C168.682 38.2902 168.571 38.2088 168.49 38.1012C168.409 37.9936 168.362 37.8646 168.355 37.7307C168.348 37.5967 168.382 37.4637 168.451 37.3485C168.52 37.2333 168.623 37.141 168.745 37.0834C168.867 37.0258 169.004 37.0054 169.138 37.0249C169.318 37.0509 169.48 37.1466 169.588 37.2908C169.697 37.4351 169.743 37.6162 169.716 37.7942Z" fill="white"/>
<path d="M169.645 38.2378L168.906 37.5659L168.906 37.5659L169.645 38.2378ZM169.239 38.48L168.998 37.5104L168.998 37.5104L169.239 38.48ZM168.766 38.4579L168.431 39.4008L168.431 39.4008L168.766 38.4579ZM168.384 38.179L169.185 37.5773L169.185 37.5773L168.384 38.179ZM168.224 37.7373L169.223 37.6832L169.223 37.6832L168.224 37.7373ZM168.338 37.2817L169.195 37.7955L169.195 37.7955L168.338 37.2817ZM169.694 37.213L170.494 36.6112L170.494 36.6112L169.694 37.213ZM169.547 38.1505L170.286 38.8224L170.286 38.8224L169.547 38.1505ZM168.81 38.3351L168.475 39.278L168.475 39.278L168.81 38.3351ZM168.49 38.1012L169.29 37.4994L169.29 37.4994L168.49 38.1012ZM168.355 37.7307L169.354 37.6766L169.354 37.6766L168.355 37.7307ZM168.451 37.3485L169.308 37.8623L169.308 37.8623L168.451 37.3485ZM168.745 37.0834L168.32 36.1794L168.32 36.1794L168.745 37.0834ZM169.588 37.2908L170.388 36.6891L170.388 36.6891L169.588 37.2908ZM169.83 41.8062C168.569 41.6236 167.712 40.4676 167.893 39.2403L165.914 38.9535C165.569 41.2903 167.201 43.4462 169.538 43.7848L169.83 41.8062ZM172.428 39.8973C172.247 41.1247 171.091 41.9889 169.83 41.8062L169.538 43.7848C171.875 44.1234 174.062 42.5209 174.407 40.1841L172.428 39.8973ZM170.491 37.3314C171.751 37.514 172.609 38.67 172.428 39.8973L174.407 40.1841C174.752 37.8473 173.12 35.6914 170.783 35.3528L170.491 37.3314ZM167.893 39.2403C168.074 38.013 169.23 37.1487 170.491 37.3314L170.783 35.3528C168.446 35.0142 166.258 36.6168 165.914 38.9535L167.893 39.2403ZM170.384 38.9098C170.626 38.644 170.784 38.3123 170.836 37.9564L168.857 37.6696C168.863 37.6302 168.88 37.5942 168.906 37.5659L170.384 38.9098ZM169.48 39.4496C169.827 39.3627 170.142 39.1754 170.384 38.9098L168.906 37.5659C168.932 37.5378 168.964 37.519 168.998 37.5104L169.48 39.4496ZM168.431 39.4008C168.768 39.5194 169.133 39.5365 169.48 39.4496L168.998 37.5104C169.032 37.5019 169.068 37.5036 169.1 37.5151L168.431 39.4008ZM167.584 38.7808C167.799 39.0669 168.094 39.2822 168.431 39.4008L169.1 37.5151C169.133 37.5266 169.163 37.5478 169.185 37.5773L167.584 38.7808ZM167.225 37.7914C167.243 38.1504 167.369 38.4946 167.584 38.7808L169.185 37.5773C169.207 37.607 169.221 37.6437 169.223 37.6832L167.225 37.7914ZM167.481 36.7679C167.296 37.0761 167.206 37.4324 167.225 37.7914L169.223 37.6832C169.225 37.7228 169.215 37.762 169.195 37.7955L167.481 36.7679ZM168.264 36.0617C167.94 36.2145 167.667 36.4598 167.481 36.7679L169.195 37.7955C169.175 37.8289 169.146 37.8543 169.113 37.8697L168.264 36.0617ZM169.303 35.9066C168.95 35.8554 168.588 35.909 168.264 36.0617L169.113 37.8697C169.081 37.885 169.045 37.8901 169.011 37.8851L169.303 35.9066ZM170.494 36.6112C170.206 36.2277 169.777 35.9752 169.303 35.9066L169.011 37.8851C168.966 37.8786 168.923 37.8542 168.893 37.8147L170.494 36.6112ZM170.836 37.9564C170.907 37.4789 170.783 36.9951 170.494 36.6112L168.893 37.8147C168.863 37.7748 168.849 37.7227 168.857 37.6696L170.836 37.9564ZM169.811 41.9352C168.478 41.7422 167.571 40.52 167.763 39.2214L165.783 38.9347C165.428 41.3427 167.11 43.5648 169.519 43.9138L169.811 41.9352ZM172.558 39.9162C172.366 41.2148 171.144 42.1283 169.811 41.9352L169.519 43.9138C171.928 44.2628 174.182 42.611 174.537 40.203L172.558 39.9162ZM170.51 37.2024C171.842 37.3954 172.75 38.6176 172.558 39.9162L174.537 40.203C174.893 37.7949 173.211 35.5728 170.802 35.2238L170.51 37.2024ZM167.763 39.2214C167.954 37.9229 169.177 37.0093 170.51 37.2024L170.802 35.2238C168.393 34.8748 166.139 36.5266 165.783 38.9347L167.763 39.2214ZM170.286 38.8224C170.511 38.5758 170.657 38.2679 170.706 37.9375L168.727 37.6508C168.736 37.5859 168.765 37.526 168.808 37.4786L170.286 38.8224ZM169.447 39.3232C169.769 39.2426 170.062 39.0689 170.286 38.8224L168.808 37.4786C168.851 37.4313 168.907 37.3989 168.966 37.384L169.447 39.3232ZM168.475 39.278C168.787 39.388 169.126 39.4038 169.447 39.3232L168.966 37.384C169.025 37.3691 169.087 37.3721 169.144 37.3922L168.475 39.278ZM167.69 38.7029C167.889 38.9683 168.163 39.168 168.475 39.278L169.144 37.3922C169.202 37.4124 169.253 37.4492 169.29 37.4994L167.69 38.7029ZM167.356 37.7848C167.373 38.118 167.49 38.4374 167.69 38.7029L169.29 37.4994C169.328 37.5498 169.351 37.6113 169.354 37.6766L167.356 37.7848ZM167.594 36.8347C167.422 37.1208 167.339 37.4515 167.356 37.7848L169.354 37.6766C169.358 37.7419 169.341 37.8066 169.308 37.8623L167.594 36.8347ZM168.32 36.1794C168.02 36.3211 167.766 36.5487 167.594 36.8347L169.308 37.8623C169.274 37.9178 169.226 37.961 169.17 37.9874L168.32 36.1794ZM169.284 36.0356C168.956 35.9881 168.621 36.0378 168.32 36.1794L169.17 37.9874C169.114 38.0139 169.052 38.0228 168.992 38.0141L169.284 36.0356ZM170.388 36.6891C170.121 36.3333 169.723 36.0992 169.284 36.0356L168.992 38.0141C168.912 38.0026 168.838 37.9598 168.788 37.8926L170.388 36.6891ZM170.706 37.9375C170.772 37.4943 170.656 37.0452 170.388 36.6891L168.788 37.8926C168.737 37.825 168.714 37.738 168.727 37.6508L170.706 37.9375Z" fill="white" mask="url(#path-8-inside-3_13326_76992)"/>
</g>
<g filter="url(#filter2_d_13326_76992)">
<path d="M34.9895 150.171C33.2689 150.171 31.5579 149.794 29.8565 149.04C28.1552 148.286 26.7342 147.107 25.5935 145.502C24.4722 143.878 23.9115 141.848 23.9115 139.412C23.9115 137.595 24.3369 135.807 25.1875 134.047C26.0382 132.269 27.2465 130.819 28.8125 129.697C30.3979 128.576 32.2152 128.015 34.2645 128.015C34.8252 128.015 35.3762 128.083 35.9175 128.218C36.4589 128.354 37.0582 128.537 37.7155 128.769C37.8702 128.808 38.1312 128.885 38.4985 129.001C38.8659 129.117 39.1559 129.175 39.3685 129.175C39.6585 129.175 39.9292 129.108 40.1805 128.972C40.4512 128.837 40.7315 128.644 41.0215 128.392L42.1525 133.264L42.2105 133.554C42.2105 133.651 42.1332 133.738 41.9785 133.815C41.9399 133.835 41.8915 133.844 41.8335 133.844C41.7369 133.844 41.6402 133.786 41.5435 133.67C40.9249 132.781 40.3159 132.017 39.7165 131.379C39.1365 130.722 38.4115 130.171 37.5415 129.726C36.6909 129.262 35.7049 129.03 34.5835 129.03C32.9402 129.03 31.6642 129.707 30.7555 131.06C29.8662 132.394 29.2765 133.844 28.9865 135.41C28.7159 136.957 28.5805 138.252 28.5805 139.296C28.5805 141.326 28.9092 143.066 29.5665 144.516C30.2239 145.947 31.0745 147.03 32.1185 147.764C33.1625 148.48 34.2742 148.837 35.4535 148.837C37.1162 148.837 38.4502 148.422 39.4555 147.59C40.4802 146.759 41.4179 145.657 42.2685 144.284C42.3652 144.188 42.4522 144.139 42.5295 144.139C42.5682 144.139 42.6359 144.168 42.7325 144.226C42.8485 144.304 42.9065 144.4 42.9065 144.516L42.8485 144.69C42.1525 146.082 41.1569 147.349 39.8615 148.489C38.5855 149.611 36.9615 150.171 34.9895 150.171ZM57.9043 150.171C56.2416 150.171 54.608 149.746 53.0033 148.895C51.3986 148.045 50.0743 146.788 49.0303 145.125C48.0056 143.443 47.4933 141.433 47.4933 139.093C47.4933 136.773 48.0056 134.782 49.0303 133.119C50.0743 131.437 51.3986 130.171 53.0033 129.32C54.608 128.45 56.2416 128.015 57.9043 128.015C59.5476 128.015 61.1716 128.45 62.7763 129.32C64.381 130.171 65.6956 131.437 66.7203 133.119C67.7643 134.782 68.2863 136.773 68.2863 139.093C68.2863 141.433 67.7643 143.443 66.7203 145.125C65.6956 146.788 64.381 148.045 62.7763 148.895C61.1716 149.746 59.5476 150.171 57.9043 150.171ZM57.9043 149.301C59.0256 149.301 60.0213 148.924 60.8913 148.17C61.7613 147.416 62.4476 146.276 62.9503 144.748C63.453 143.221 63.7043 141.346 63.7043 139.122C63.7043 136.899 63.453 135.024 62.9503 133.496C62.467 131.969 61.7903 130.828 60.9203 130.074C60.0503 129.32 59.0546 128.943 57.9333 128.943C56.7926 128.943 55.7873 129.32 54.9173 130.074C54.0473 130.828 53.361 131.969 52.8583 133.496C52.3556 135.024 52.1043 136.899 52.1043 139.122C52.1043 141.346 52.346 143.221 52.8293 144.748C53.332 146.276 54.0183 147.416 54.8883 148.17C55.7776 148.924 56.783 149.301 57.9043 149.301ZM72.7115 149.794C72.5762 149.794 72.5085 149.678 72.5085 149.446C72.5085 149.253 72.5762 149.156 72.7115 149.156H72.9725C73.6105 149.156 74.1808 148.924 74.6835 148.46C75.2055 147.977 75.4665 147.291 75.4665 146.401V130.654C75.4665 129.533 74.6352 128.972 72.9725 128.972H72.7115C72.5762 128.972 72.5085 128.866 72.5085 128.653C72.5085 128.441 72.5762 128.334 72.7115 128.334H80.0485L85.7905 142.892L91.1265 128.334H98.3475C98.4829 128.334 98.5505 128.441 98.5505 128.653C98.5505 128.885 98.4829 129.001 98.3475 129.001H98.0285C97.3325 129.001 96.7525 129.175 96.2885 129.523C95.8438 129.852 95.6215 130.509 95.6215 131.495L95.5925 146.633C95.5925 148.315 96.4045 149.156 98.0285 149.156H98.3475C98.4829 149.156 98.5505 149.253 98.5505 149.446C98.5505 149.678 98.4829 149.794 98.3475 149.794H88.5745C88.4585 149.794 88.4005 149.678 88.4005 149.446C88.4005 149.253 88.4585 149.156 88.5745 149.156H88.9515C90.5368 149.156 91.3295 148.315 91.3295 146.633L91.3585 131.06L84.4565 149.794H83.5865L76.6265 131.64V146.401C76.6265 147.291 76.8875 147.977 77.4095 148.46C77.9315 148.924 78.5018 149.156 79.1205 149.156H79.3815C79.5168 149.156 79.5845 149.253 79.5845 149.446C79.5845 149.678 79.5168 149.794 79.3815 149.794H72.7115ZM103.383 149.794C103.248 149.794 103.18 149.678 103.18 149.446C103.18 149.234 103.248 149.127 103.383 149.127H103.702C104.398 149.127 104.968 148.953 105.413 148.605C105.877 148.257 106.109 147.6 106.109 146.633L106.138 131.495C106.138 130.509 105.906 129.852 105.442 129.523C104.978 129.175 104.398 129.001 103.702 129.001H103.383C103.248 129.001 103.18 128.885 103.18 128.653C103.18 128.441 103.248 128.334 103.383 128.334H113.185C113.32 128.334 113.388 128.441 113.388 128.653C113.388 128.885 113.32 129.001 113.185 129.001H112.866C112.17 129.001 111.59 129.175 111.126 129.523C110.681 129.852 110.459 130.509 110.459 131.495L110.43 146.633C110.43 147.619 110.662 148.286 111.126 148.634C111.59 148.963 112.17 149.127 112.866 149.127H113.185C113.32 149.127 113.388 149.234 113.388 149.446C113.388 149.678 113.32 149.794 113.185 149.794H103.383ZM117.808 149.794C117.692 149.794 117.634 149.678 117.634 149.446C117.634 149.253 117.692 149.156 117.808 149.156H118.069C118.707 149.156 119.277 148.924 119.78 148.46C120.302 147.977 120.563 147.291 120.563 146.401V131.118C120.234 130.48 119.876 130.007 119.49 129.697C119.122 129.369 118.678 129.146 118.156 129.03L117.808 128.972C117.672 128.934 117.605 128.827 117.605 128.653C117.605 128.441 117.672 128.334 117.808 128.334H124.101L134.686 143.704V131.698C134.686 130.828 134.425 130.161 133.903 129.697C133.4 129.233 132.83 128.992 132.192 128.972H131.931C131.795 128.972 131.728 128.866 131.728 128.653C131.728 128.441 131.795 128.334 131.931 128.334H138.601C138.736 128.334 138.804 128.441 138.804 128.653C138.804 128.866 138.736 128.972 138.601 128.972H138.311C137.673 128.992 137.102 129.233 136.6 129.697C136.097 130.161 135.846 130.828 135.846 131.698V149.794H133.613L121.723 132.452V146.401C121.723 147.291 121.974 147.977 122.477 148.46C122.999 148.924 123.579 149.156 124.217 149.156H124.478C124.613 149.156 124.681 149.253 124.681 149.446C124.681 149.678 124.613 149.794 124.478 149.794H117.808ZM153.33 150.171C152.073 150.171 150.642 149.785 149.038 149.011C147.452 148.238 146.08 147.049 144.92 145.444C143.76 143.84 143.18 141.868 143.18 139.528C143.18 138.001 143.528 136.348 144.224 134.569C144.92 132.771 146.051 131.234 147.617 129.958C149.183 128.663 151.174 128.015 153.591 128.015C154.19 128.015 154.741 128.073 155.244 128.189C155.746 128.305 156.288 128.47 156.868 128.682C157.68 128.953 158.24 129.088 158.55 129.088C158.859 129.088 159.149 129.04 159.42 128.943C159.69 128.827 159.98 128.605 160.29 128.276L161.044 131.698L161.392 133.322C161.411 133.4 161.421 133.487 161.421 133.583C161.421 133.661 161.372 133.728 161.276 133.786C161.237 133.825 161.179 133.844 161.102 133.844C160.966 133.844 160.86 133.786 160.783 133.67C160.164 132.762 159.545 131.988 158.927 131.35C158.327 130.693 157.593 130.142 156.723 129.697C155.853 129.253 154.857 129.03 153.736 129.03C151.28 129.03 149.656 130.248 148.864 132.684C148.09 135.101 147.704 137.489 147.704 139.847C147.704 141.046 147.897 142.38 148.284 143.849C148.67 145.299 149.279 146.566 150.111 147.648C150.961 148.712 152.015 149.243 153.272 149.243C154.548 149.243 155.505 148.982 156.143 148.46C156.8 147.919 157.216 147.223 157.39 146.372C157.525 145.754 157.593 145.087 157.593 144.371C157.593 144.081 157.573 143.743 157.535 143.356C157.477 142.834 157.254 142.419 156.868 142.109C156.5 141.781 155.746 141.616 154.606 141.616C154.451 141.616 154.374 141.51 154.374 141.297C154.374 141.085 154.451 140.978 154.606 140.978H164.031C164.166 140.978 164.234 141.085 164.234 141.297C164.234 141.51 164.166 141.616 164.031 141.616C163.335 141.616 162.745 141.771 162.262 142.08C161.798 142.39 161.517 142.844 161.421 143.443C161.382 143.714 161.363 144.178 161.363 144.835C161.363 145.86 161.392 147.194 161.45 148.837H160.899C160.106 148.837 159.429 148.895 158.869 149.011C158.308 149.127 157.67 149.301 156.955 149.533C156.278 149.746 155.679 149.901 155.157 149.997C154.654 150.113 154.045 150.171 153.33 150.171ZM186.48 150.171C185.069 150.171 183.416 149.785 181.521 149.011C181.27 148.895 181.028 148.837 180.796 148.837C180.506 148.837 180.216 148.934 179.926 149.127C179.636 149.301 179.278 149.601 178.853 150.026L177.519 144.371L177.461 144.081C177.461 144.043 177.48 144.004 177.519 143.965C177.577 143.927 177.625 143.898 177.664 143.878C177.722 143.859 177.761 143.84 177.78 143.82C177.819 143.801 177.877 143.791 177.954 143.791C178.031 143.791 178.138 143.869 178.273 144.023C179.259 145.415 180.39 146.585 181.666 147.532C182.942 148.46 184.44 148.924 186.161 148.924C187.398 148.924 188.394 148.615 189.148 147.996C189.902 147.358 190.279 146.45 190.279 145.27C190.279 143.801 189.457 142.728 187.814 142.051C187.06 141.723 186.113 141.384 184.972 141.036C184.779 140.978 184.295 140.814 183.522 140.543C182.749 140.273 182.062 139.983 181.463 139.673C180.38 139.113 179.568 138.388 179.027 137.498C178.486 136.609 178.215 135.594 178.215 134.453C178.215 133.545 178.428 132.597 178.853 131.611C179.278 130.625 180.013 129.784 181.057 129.088C182.12 128.373 183.512 128.015 185.233 128.015C185.852 128.015 186.441 128.083 187.002 128.218C187.582 128.354 188.278 128.566 189.09 128.856C189.419 128.972 189.689 129.03 189.902 129.03C190.192 129.03 190.463 128.953 190.714 128.798C190.965 128.644 191.246 128.392 191.555 128.044L193.034 133.061L193.092 133.293C193.092 133.39 193.005 133.477 192.831 133.554C192.715 133.593 192.628 133.612 192.57 133.612C192.473 133.612 192.377 133.545 192.28 133.409C192.048 133.023 191.632 132.501 191.033 131.843C190.434 131.167 189.622 130.538 188.597 129.958C187.572 129.359 186.432 129.059 185.175 129.059C184.073 129.059 183.222 129.282 182.623 129.726C182.043 130.171 181.656 130.664 181.463 131.205C181.27 131.747 181.173 132.22 181.173 132.626C181.173 133.206 181.318 133.728 181.608 134.192C181.898 134.656 182.323 135.043 182.884 135.352C183.406 135.642 184.121 135.942 185.03 136.251C185.958 136.561 186.509 136.744 186.683 136.802C186.934 136.88 187.456 137.054 188.249 137.324C189.042 137.595 189.709 137.856 190.25 138.107C192.86 139.306 194.165 141.114 194.165 143.53C194.165 144.768 193.865 145.889 193.266 146.894C192.667 147.9 191.787 148.702 190.627 149.301C189.467 149.881 188.085 150.171 186.48 150.171ZM209.128 150.171C207.465 150.171 205.832 149.746 204.227 148.895C202.622 148.045 201.298 146.788 200.254 145.125C199.229 143.443 198.717 141.433 198.717 139.093C198.717 136.773 199.229 134.782 200.254 133.119C201.298 131.437 202.622 130.171 204.227 129.32C205.832 128.45 207.465 128.015 209.128 128.015C210.771 128.015 212.395 128.45 214 129.32C215.605 130.171 216.919 131.437 217.944 133.119C218.988 134.782 219.51 136.773 219.51 139.093C219.51 141.433 218.988 143.443 217.944 145.125C216.919 146.788 215.605 148.045 214 148.895C212.395 149.746 210.771 150.171 209.128 150.171ZM209.128 149.301C210.249 149.301 211.245 148.924 212.115 148.17C212.985 147.416 213.671 146.276 214.174 144.748C214.677 143.221 214.928 141.346 214.928 139.122C214.928 136.899 214.677 135.024 214.174 133.496C213.691 131.969 213.014 130.828 212.144 130.074C211.274 129.32 210.278 128.943 209.157 128.943C208.016 128.943 207.011 129.32 206.141 130.074C205.271 130.828 204.585 131.969 204.082 133.496C203.579 135.024 203.328 136.899 203.328 139.122C203.328 141.346 203.57 143.221 204.053 144.748C204.556 146.276 205.242 147.416 206.112 148.17C207.001 148.924 208.007 149.301 209.128 149.301ZM234.607 150.171C232.945 150.171 231.311 149.746 229.706 148.895C228.102 148.045 226.777 146.788 225.733 145.125C224.709 143.443 224.196 141.433 224.196 139.093C224.196 136.773 224.709 134.782 225.733 133.119C226.777 131.437 228.102 130.171 229.706 129.32C231.311 128.45 232.945 128.015 234.607 128.015C236.251 128.015 237.875 128.45 239.479 129.32C241.084 130.171 242.399 131.437 243.423 133.119C244.467 134.782 244.989 136.773 244.989 139.093C244.989 141.433 244.467 143.443 243.423 145.125C242.399 146.788 241.084 148.045 239.479 148.895C237.875 149.746 236.251 150.171 234.607 150.171ZM234.607 149.301C235.729 149.301 236.724 148.924 237.594 148.17C238.464 147.416 239.151 146.276 239.653 144.748C240.156 143.221 240.407 141.346 240.407 139.122C240.407 136.899 240.156 135.024 239.653 133.496C239.17 131.969 238.493 130.828 237.623 130.074C236.753 129.32 235.758 128.943 234.636 128.943C233.496 128.943 232.49 129.32 231.62 130.074C230.75 130.828 230.064 131.969 229.561 133.496C229.059 135.024 228.807 136.899 228.807 139.122C228.807 141.346 229.049 143.221 229.532 144.748C230.035 146.276 230.721 147.416 231.591 148.17C232.481 148.924 233.486 149.301 234.607 149.301ZM249.414 149.794C249.298 149.794 249.24 149.678 249.24 149.446C249.24 149.253 249.298 149.156 249.414 149.156H249.675C250.313 149.156 250.884 148.924 251.386 148.46C251.908 147.977 252.169 147.291 252.169 146.401V131.118C251.841 130.48 251.483 130.007 251.096 129.697C250.729 129.369 250.284 129.146 249.762 129.03L249.414 128.972C249.279 128.934 249.211 128.827 249.211 128.653C249.211 128.441 249.279 128.334 249.414 128.334H255.707L266.292 143.704V131.698C266.292 130.828 266.031 130.161 265.509 129.697C265.007 129.233 264.436 128.992 263.798 128.972H263.537C263.402 128.972 263.334 128.866 263.334 128.653C263.334 128.441 263.402 128.334 263.537 128.334H270.207C270.343 128.334 270.41 128.441 270.41 128.653C270.41 128.866 270.343 128.972 270.207 128.972H269.917C269.279 128.992 268.709 129.233 268.206 129.697C267.704 130.161 267.452 130.828 267.452 131.698V149.794H265.219L253.329 132.452V146.401C253.329 147.291 253.581 147.977 254.083 148.46C254.605 148.924 255.185 149.156 255.823 149.156H256.084C256.22 149.156 256.287 149.253 256.287 149.446C256.287 149.678 256.22 149.794 256.084 149.794H249.414Z" fill="white"/>
</g>
<rect x="2" y="1.70557" width="290" height="180.589" rx="15.5" stroke="white" stroke-width="3"/>
</g>
<defs>
<filter id="filter0_i_13326_76992" x="0.5" y="0.205566" width="293" height="188.589" filterUnits="userSpaceOnUse" color-interpolation-filters="sRGB">
<feFlood flood-opacity="0" result="BackgroundImageFix"/>
<feBlend mode="normal" in="SourceGraphic" in2="BackgroundImageFix" result="shape"/>
<feColorMatrix in="SourceAlpha" type="matrix" values="0 0 0 0 0 0 0 0 0 0 0 0 0 0 0 0 0 0 127 0" result="hardAlpha"/>
<feOffset dy="5"/>
<feGaussianBlur stdDeviation="2.5"/>
<feComposite in2="hardAlpha" operator="arithmetic" k2="-1" k3="1"/>
<feColorMatrix type="matrix" values="0 0 0 0 0 0 0 0 0 0 0 0 0 0 0 0 0 0 0.43 0"/>
<feBlend mode="normal" in2="shape" result="effect1_innerShadow_13326_76992"/>
</filter>
<filter id="filter1_d_13326_76992" x="99.0576" y="14.6409" width="87.9746" height="86.1536" filterUnits="userSpaceOnUse" color-interpolation-filters="sRGB">
<feFlood flood-opacity="0" result="BackgroundImageFix"/>
<feColorMatrix in="SourceAlpha" type="matrix" values="0 0 0 0 0 0 0 0 0 0 0 0 0 0 0 0 0 0 127 0" result="hardAlpha"/>
<feOffset dy="2"/>
<feGaussianBlur stdDeviation="1"/>
<feComposite in2="hardAlpha" operator="out"/>
<feColorMatrix type="matrix" values="0 0 0 0 0 0 0 0 0 0 0 0 0 0 0 0 0 0 0.25 0"/>
<feBlend mode="normal" in2="BackgroundImageFix" result="effect1_dropShadow_13326_76992"/>
<feBlend mode="normal" in="SourceGraphic" in2="effect1_dropShadow_13326_76992" result="shape"/>
</filter>
<filter id="filter2_d_13326_76992" x="21.9111" y="128.015" width="250.499" height="26.156" filterUnits="userSpaceOnUse" color-interpolation-filters="sRGB">
<feFlood flood-opacity="0" result="BackgroundImageFix"/>
<feColorMatrix in="SourceAlpha" type="matrix" values="0 0 0 0 0 0 0 0 0 0 0 0 0 0 0 0 0 0 127 0" result="hardAlpha"/>
<feOffset dy="2"/>
<feGaussianBlur stdDeviation="1"/>
<feComposite in2="hardAlpha" operator="out"/>
<feColorMatrix type="matrix" values="0 0 0 0 0 0 0 0 0 0 0 0 0 0 0 0 0 0 0.25 0"/>
<feBlend mode="normal" in2="BackgroundImageFix" result="effect1_dropShadow_13326_76992"/>
<feBlend mode="normal" in="SourceGraphic" in2="effect1_dropShadow_13326_76992" result="shape"/>
</filter>
</defs>
</svg>
