<svg width="1457" height="1294" viewBox="0 0 1457 1294" fill="none" xmlns="http://www.w3.org/2000/svg">
<rect width="1456" height="1284.71" transform="translate(0.499023 0.643555)" fill="#FFFCF5"/>
<g filter="url(#filter0_di_15524_348)">
<path fill-rule="evenodd" clip-rule="evenodd" d="M429.449 296.02C302.506 314.5 169.317 362.079 97.8972 447.805C63.554 489.028 55.3808 548.68 64.1631 615.956C72.9154 683.003 98.2981 755.802 128.655 821.24C158.998 886.646 194.031 944.103 221.633 980.41C235.528 998.686 246.937 1010.79 254.499 1016.15C254.917 1010.22 255.253 1004.09 255.602 997.758C257.339 966.163 259.366 929.292 273.132 884.27C290.28 828.188 325.452 759.654 399.884 670.342C456.042 602.959 525.455 541.777 585.157 489.155C604.527 472.081 622.876 455.908 639.417 440.717C673.632 409.296 699.539 382.607 712.218 360.623C718.52 349.696 720.885 341.04 720.336 334.236C719.828 327.944 716.716 321.842 708.633 315.854C700.188 309.598 686.705 303.81 668.504 299.089C650.46 294.409 628.45 290.947 603.501 288.944C553.609 284.938 492.642 286.82 429.449 296.02ZM254.008 1021.28C254.005 1021.28 254.018 1021.22 254.053 1021.13C254.027 1021.24 254.01 1021.29 254.008 1021.28ZM673.507 280.158C692.795 285.16 709.08 291.75 720.463 300.181C732.208 308.881 738.986 319.775 740.027 332.675C741.027 345.062 736.602 357.792 729.37 370.331C714.982 395.279 686.852 423.84 652.847 455.069C635.752 470.769 617.018 487.283 597.392 504.584C537.898 557.029 470.207 616.7 415.118 682.802C341.91 770.644 308.25 836.925 292.038 889.944C279.025 932.501 277.129 966.645 275.385 998.066C274.948 1005.93 274.52 1013.63 273.93 1021.25C273.493 1026.9 271.066 1035.75 261.633 1037.75C257.789 1038.57 254.192 1037.77 251.428 1036.73C248.59 1035.67 245.817 1034.05 243.191 1032.2C232.967 1025.01 219.975 1010.76 205.854 992.183C177.27 954.585 141.541 895.881 110.706 829.412C79.8849 762.975 53.6728 688.183 44.5719 618.466C35.5011 548.98 43.2165 482.695 82.6619 435.348C158.819 343.935 298.108 295.36 426.577 276.658C491.089 267.266 553.562 265.3 605.097 269.438C630.862 271.507 654.062 275.114 673.507 280.158Z" fill="white" stroke="white" stroke-width="7" stroke-linecap="round"/>
<path fill-rule="evenodd" clip-rule="evenodd" d="M1143 265.675C1153.52 286.734 1164.56 308.832 1176.45 331.677C1185.65 349.366 1194.8 366.607 1203.72 383.392C1234.22 440.825 1261.89 492.932 1278.95 539.47C1301.05 599.764 1306.59 653.932 1275.02 700.324C1259.14 723.658 1238.95 736.137 1215.08 740.772C1191.76 745.3 1165.53 742.224 1137.4 735.995C1116.19 731.298 1093.09 724.605 1068.64 717.519C1060.67 715.209 1052.55 712.857 1044.31 710.519C1010.56 700.943 974.163 691.431 935.115 685.259C895.914 679.063 860.622 676.194 828.769 674.062C822.509 673.642 816.362 673.251 810.332 672.867C785.858 671.307 763.316 669.871 742.998 667.215C717.583 663.892 694.72 658.566 674.731 648.179C654.537 637.686 637.75 622.278 624.114 599.57C610.215 576.425 607.956 556.453 615.927 537.728C623.411 520.149 639.406 505.185 657.45 490.172C662.759 485.755 668.346 481.252 674.132 476.589C708.635 448.786 750.22 415.275 782.055 360.121C811.852 308.496 823.875 251.622 834.725 200.301C837.466 187.335 840.132 174.723 842.991 162.64C849.934 133.293 858.213 106.404 872.477 86.8397C887.318 66.4826 908.35 54.4447 938.733 54.4548C997.674 54.4673 1037.03 85.9273 1071.36 135.553C1095.29 170.146 1117.64 214.888 1143 265.675ZM1055.06 146.616C1022.61 99.703 988.507 74.0353 938.729 74.0248L938.728 74.0248C914.749 74.0168 899.653 82.988 888.491 98.2982C876.75 114.402 869.148 137.838 862.224 167.106C859.563 178.352 857.029 190.374 854.38 202.947C843.524 254.462 830.717 315.236 799.204 369.835C765.399 428.404 720.769 464.304 686.253 492.069C680.583 496.63 675.186 500.971 670.155 505.157C651.888 520.356 639.539 532.624 634.129 545.333C629.207 556.896 629.504 570.269 641.091 589.565C652.94 609.298 667.084 622.106 683.907 630.848C700.933 639.696 721.172 644.622 745.583 647.813C765.179 650.375 786.866 651.758 811.262 653.314C817.369 653.704 823.645 654.104 830.101 654.536C862.162 656.683 898.148 659.598 938.227 665.933C978.46 672.293 1015.76 682.061 1049.75 691.705C1058.3 694.131 1066.61 696.539 1074.7 698.881C1098.96 705.913 1121.18 712.35 1141.71 716.896C1169.08 722.956 1192.06 725.3 1211.28 721.567C1229.95 717.942 1245.65 708.48 1258.64 689.384C1284.82 650.917 1281.79 604.57 1260.38 546.149C1243.83 500.987 1217.04 450.534 1186.69 393.383C1177.68 376.406 1168.35 358.838 1158.89 340.643C1146.51 316.843 1135.2 294.205 1124.55 272.888C1099.53 222.797 1078.16 180.006 1055.06 146.616Z" fill="white" stroke="white" stroke-width="7" stroke-linecap="square"/>
<mask id="path-3-inside-1_15524_348" fill="white">
<path d="M593.153 1285.35C571.639 1285.17 550.193 1282.92 529.117 1278.64C508.352 1274.41 488.082 1268.08 468.626 1259.74C458.941 1255.57 449.49 1250.89 440.312 1245.72C431.099 1240.52 422.182 1234.83 413.602 1228.66C378.544 1203.42 349.749 1170.61 329.402 1132.71C324.422 1123.44 319.962 1113.9 316.042 1104.14C312.149 1094.42 308.787 1084.49 305.97 1074.41C300.351 1054.16 296.852 1033.39 295.528 1012.43C294.181 991.156 294.921 969.805 297.738 948.674C300.611 927.058 305.5 905.753 312.342 885.031C319.409 863.744 328.4 843.132 339.206 823.445C344.684 813.437 350.706 803.52 357.109 793.981C363.511 784.441 370.592 774.769 377.951 765.667C385.309 756.565 393.366 747.432 401.722 738.86C410.077 730.287 419.131 721.714 428.381 713.743C435.842 707.318 443.601 701.108 451.463 695.264C389.109 756.194 350.075 836.704 341.046 923.007C336.658 963.06 340.576 1003.58 352.562 1042.08C364.547 1080.58 384.347 1116.25 410.745 1146.89C460.2 1202.48 529.074 1237.44 603.502 1244.74C667.657 1241.42 729.497 1219.9 781.662 1182.76C833.826 1145.61 874.12 1094.4 897.746 1035.21C922.761 956.422 912.134 871.928 862.033 808.377C814.163 747.717 738.842 717.041 659.708 718.752C618.092 727.654 579.251 746.353 546.471 773.268C513.691 800.183 487.936 834.522 471.382 873.381C454.829 912.241 447.965 954.478 451.37 996.521C454.776 1038.56 468.351 1079.18 490.948 1114.92C497.541 1122.75 504.897 1129.91 512.91 1136.3C540.349 1158.27 574.542 1170.28 609.818 1170.35C645.094 1170.41 679.333 1158.54 706.859 1136.68C731.574 1111.92 746.125 1078.95 747.692 1044.16C749.258 1009.37 737.728 975.243 715.338 948.399C704.075 934.519 690.524 922.626 675.257 913.223C666.105 908.373 656.38 904.666 646.307 902.187C627.561 897.798 613.132 900.395 605.691 909.497C598.59 918.191 598.682 931.967 605.959 948.297C615.121 967.008 628.224 983.558 644.385 996.831C642.668 995.538 640.952 994.215 639.246 992.871C629.651 985.224 620.842 976.657 612.947 967.295C609.421 963.096 606.134 958.704 603.102 954.141C600.351 950.007 597.879 945.698 595.702 941.242C593.768 937.308 592.169 933.222 590.923 929.024C589.833 925.358 589.171 921.58 588.95 917.764C588.756 914.435 589.103 911.097 589.978 907.878C590.777 904.911 592.197 902.144 594.144 899.755C596.091 897.367 598.523 895.41 601.283 894.011C604.279 892.493 607.503 891.462 610.83 890.957C614.645 890.378 618.513 890.234 622.361 890.529C626.404 890.825 630.418 891.435 634.365 892.351C638.301 892.861 642.227 893.512 646.08 894.286C651.312 895.304 656.543 896.638 661.63 898.155C666.717 899.672 671.64 901.413 676.48 903.368C681.321 905.322 685.997 907.44 690.56 909.833C699.574 914.492 708.131 919.972 716.119 926.204C723.94 932.308 731.165 939.125 737.701 946.566C744.16 953.931 749.887 961.895 754.802 970.35C759.686 978.754 763.707 987.622 766.806 996.821C768.352 1001.44 769.655 1006.14 770.711 1010.89C777.253 1040.27 774.008 1070.96 761.462 1098.36C759.431 1102.79 757.171 1107.12 754.689 1111.32C749.725 1119.68 743.927 1127.52 737.382 1134.74C733.488 1139.04 729.346 1143.12 724.978 1146.95C712.66 1160.03 698.133 1170.88 682.05 1179.01C677.559 1181.28 672.893 1183.36 668.197 1185.12C663.5 1186.88 658.547 1188.58 653.634 1189.94C648.628 1191.32 643.555 1192.46 638.434 1193.34C627.988 1195.13 617.386 1195.86 606.791 1195.53C601.597 1195.36 596.414 1194.94 591.262 1194.25C586.206 1193.58 581.129 1192.66 576.165 1191.49C571.201 1190.31 566.351 1188.92 561.582 1187.3C542.652 1180.84 525.162 1170.81 510.073 1157.78C504.49 1152.95 499.26 1147.74 494.421 1142.18C485.485 1134.4 477.179 1125.94 469.581 1116.87C459.587 1104.89 450.831 1091.94 443.447 1078.23C436.033 1064.45 429.98 1049.99 425.369 1035.05C420.703 1019.92 417.482 1004.39 415.75 988.656C413.991 972.624 413.743 956.464 415.01 940.386C416.315 923.868 419.177 907.507 423.561 891.517C432.684 858.362 448.024 827.205 468.78 799.672C478.792 786.421 490.033 774.126 502.355 762.948C514.352 752.078 527.343 742.336 541.162 733.85C554.739 725.518 569.077 718.469 583.986 712.796C592.105 709.711 600.383 707.054 608.785 704.834C610.751 704.155 612.724 703.517 614.704 702.92C632.13 697.465 650.016 693.577 668.145 691.303C685.737 689.101 703.496 688.515 721.196 689.552C738.511 690.571 755.686 693.251 772.479 697.554C789.013 701.801 805.061 707.723 820.37 715.229C835.646 722.732 850.048 731.868 863.318 742.474C890.433 764.217 912.184 791.802 926.913 823.129C934.09 838.444 939.555 854.49 943.212 870.981C945.923 883.152 947.689 895.511 948.495 907.949C950.088 917.489 951.218 927.12 951.896 936.782C953.295 956.924 952.738 977.152 950.231 997.187C947.685 1017.36 943.215 1037.25 936.881 1056.59C923.871 1096.33 903.288 1133.23 876.247 1165.29C869.32 1173.51 861.859 1181.51 854.161 1189.05C846.464 1196.6 837.975 1204.1 829.362 1211C820.75 1217.91 811.727 1224.46 802.529 1230.47C793.331 1236.48 784.03 1241.92 774.472 1246.93C755.667 1256.77 735.95 1264.8 715.595 1270.91C695.689 1276.89 675.256 1280.98 654.569 1283.14C641.669 1284.46 628.7 1285.02 615.732 1284.82C609.258 1285.18 602.8 1285.36 596.36 1285.36L593.153 1285.35Z"/>
</mask>
<path d="M593.153 1285.35C571.639 1285.17 550.193 1282.92 529.117 1278.64C508.352 1274.41 488.082 1268.08 468.626 1259.74C458.941 1255.57 449.49 1250.89 440.312 1245.72C431.099 1240.52 422.182 1234.83 413.602 1228.66C378.544 1203.42 349.749 1170.61 329.402 1132.71C324.422 1123.44 319.962 1113.9 316.042 1104.14C312.149 1094.42 308.787 1084.49 305.97 1074.41C300.351 1054.16 296.852 1033.39 295.528 1012.43C294.181 991.156 294.921 969.805 297.738 948.674C300.611 927.058 305.5 905.753 312.342 885.031C319.409 863.744 328.4 843.132 339.206 823.445C344.684 813.437 350.706 803.52 357.109 793.981C363.511 784.441 370.592 774.769 377.951 765.667C385.309 756.565 393.366 747.432 401.722 738.86C410.077 730.287 419.131 721.714 428.381 713.743C435.842 707.318 443.601 701.108 451.463 695.264C389.109 756.194 350.075 836.704 341.046 923.007C336.658 963.06 340.576 1003.58 352.562 1042.08C364.547 1080.58 384.347 1116.25 410.745 1146.89C460.2 1202.48 529.074 1237.44 603.502 1244.74C667.657 1241.42 729.497 1219.9 781.662 1182.76C833.826 1145.61 874.12 1094.4 897.746 1035.21C922.761 956.422 912.134 871.928 862.033 808.377C814.163 747.717 738.842 717.041 659.708 718.752C618.092 727.654 579.251 746.353 546.471 773.268C513.691 800.183 487.936 834.522 471.382 873.381C454.829 912.241 447.965 954.478 451.37 996.521C454.776 1038.56 468.351 1079.18 490.948 1114.92C497.541 1122.75 504.897 1129.91 512.91 1136.3C540.349 1158.27 574.542 1170.28 609.818 1170.35C645.094 1170.41 679.333 1158.54 706.859 1136.68C731.574 1111.92 746.125 1078.95 747.692 1044.16C749.258 1009.37 737.728 975.243 715.338 948.399C704.075 934.519 690.524 922.626 675.257 913.223C666.105 908.373 656.38 904.666 646.307 902.187C627.561 897.798 613.132 900.395 605.691 909.497C598.59 918.191 598.682 931.967 605.959 948.297C615.121 967.008 628.224 983.558 644.385 996.831C642.668 995.538 640.952 994.215 639.246 992.871C629.651 985.224 620.842 976.657 612.947 967.295C609.421 963.096 606.134 958.704 603.102 954.141C600.351 950.007 597.879 945.698 595.702 941.242C593.768 937.308 592.169 933.222 590.923 929.024C589.833 925.358 589.171 921.58 588.95 917.764C588.756 914.435 589.103 911.097 589.978 907.878C590.777 904.911 592.197 902.144 594.144 899.755C596.091 897.367 598.523 895.41 601.283 894.011C604.279 892.493 607.503 891.462 610.83 890.957C614.645 890.378 618.513 890.234 622.361 890.529C626.404 890.825 630.418 891.435 634.365 892.351C638.301 892.861 642.227 893.512 646.08 894.286C651.312 895.304 656.543 896.638 661.63 898.155C666.717 899.672 671.64 901.413 676.48 903.368C681.321 905.322 685.997 907.44 690.56 909.833C699.574 914.492 708.131 919.972 716.119 926.204C723.94 932.308 731.165 939.125 737.701 946.566C744.16 953.931 749.887 961.895 754.802 970.35C759.686 978.754 763.707 987.622 766.806 996.821C768.352 1001.44 769.655 1006.14 770.711 1010.89C777.253 1040.27 774.008 1070.96 761.462 1098.36C759.431 1102.79 757.171 1107.12 754.689 1111.32C749.725 1119.68 743.927 1127.52 737.382 1134.74C733.488 1139.04 729.346 1143.12 724.978 1146.95C712.66 1160.03 698.133 1170.88 682.05 1179.01C677.559 1181.28 672.893 1183.36 668.197 1185.12C663.5 1186.88 658.547 1188.58 653.634 1189.94C648.628 1191.32 643.555 1192.46 638.434 1193.34C627.988 1195.13 617.386 1195.86 606.791 1195.53C601.597 1195.36 596.414 1194.94 591.262 1194.25C586.206 1193.58 581.129 1192.66 576.165 1191.49C571.201 1190.31 566.351 1188.92 561.582 1187.3C542.652 1180.84 525.162 1170.81 510.073 1157.78C504.49 1152.95 499.26 1147.74 494.421 1142.18C485.485 1134.4 477.179 1125.94 469.581 1116.87C459.587 1104.89 450.831 1091.94 443.447 1078.23C436.033 1064.45 429.98 1049.99 425.369 1035.05C420.703 1019.92 417.482 1004.39 415.75 988.656C413.991 972.624 413.743 956.464 415.01 940.386C416.315 923.868 419.177 907.507 423.561 891.517C432.684 858.362 448.024 827.205 468.78 799.672C478.792 786.421 490.033 774.126 502.355 762.948C514.352 752.078 527.343 742.336 541.162 733.85C554.739 725.518 569.077 718.469 583.986 712.796C592.105 709.711 600.383 707.054 608.785 704.834C610.751 704.155 612.724 703.517 614.704 702.92C632.13 697.465 650.016 693.577 668.145 691.303C685.737 689.101 703.496 688.515 721.196 689.552C738.511 690.571 755.686 693.251 772.479 697.554C789.013 701.801 805.061 707.723 820.37 715.229C835.646 722.732 850.048 731.868 863.318 742.474C890.433 764.217 912.184 791.802 926.913 823.129C934.09 838.444 939.555 854.49 943.212 870.981C945.923 883.152 947.689 895.511 948.495 907.949C950.088 917.489 951.218 927.12 951.896 936.782C953.295 956.924 952.738 977.152 950.231 997.187C947.685 1017.36 943.215 1037.25 936.881 1056.59C923.871 1096.33 903.288 1133.23 876.247 1165.29C869.32 1173.51 861.859 1181.51 854.161 1189.05C846.464 1196.6 837.975 1204.1 829.362 1211C820.75 1217.91 811.727 1224.46 802.529 1230.47C793.331 1236.48 784.03 1241.92 774.472 1246.93C755.667 1256.77 735.95 1264.8 715.595 1270.91C695.689 1276.89 675.256 1280.98 654.569 1283.14C641.669 1284.46 628.7 1285.02 615.732 1284.82C609.258 1285.18 602.8 1285.36 596.36 1285.36L593.153 1285.35Z" fill="white" stroke="white" stroke-width="2" mask="url(#path-3-inside-1_15524_348)"/>
<mask id="path-4-inside-2_15524_348" fill="white">
<path fill-rule="evenodd" clip-rule="evenodd" d="M876.247 1165.29C869.32 1173.51 861.859 1181.51 854.161 1189.05C846.464 1196.6 837.975 1204.1 829.363 1211C820.75 1217.91 811.727 1224.46 802.529 1230.47C793.331 1236.48 784.03 1241.92 774.472 1246.93C755.667 1256.77 735.95 1264.8 715.595 1270.91C695.689 1276.89 675.256 1280.98 654.569 1283.14C641.669 1284.46 628.7 1285.02 615.732 1284.82C609.258 1285.18 602.8 1285.36 596.36 1285.36L593.153 1285.35C571.639 1285.17 550.193 1282.92 529.117 1278.64C508.352 1274.41 488.082 1268.08 468.626 1259.74C458.941 1255.57 449.49 1250.89 440.312 1245.72C431.099 1240.52 422.182 1234.83 413.602 1228.66C378.544 1203.42 349.749 1170.61 329.402 1132.71C324.422 1123.44 319.962 1113.9 316.042 1104.14C312.149 1094.42 308.787 1084.49 305.97 1074.41C300.351 1054.16 296.852 1033.39 295.528 1012.43C294.181 991.156 294.921 969.805 297.738 948.674C300.611 927.058 305.5 905.753 312.342 885.031C319.409 863.744 328.4 843.132 339.206 823.445C344.684 813.437 350.706 803.52 357.109 793.981C363.511 784.441 370.592 774.769 377.951 765.667C385.309 756.565 393.366 747.432 401.722 738.86C410.077 730.287 419.131 721.714 428.381 713.743C432.178 710.473 436.053 707.258 439.979 704.12C443.767 701.091 447.602 698.133 451.463 695.264C448.012 698.636 444.632 702.068 441.325 705.558C384.88 765.123 349.575 841.48 341.046 923.007C336.658 963.06 340.576 1003.58 352.562 1042.08C364.547 1080.58 384.347 1116.25 410.745 1146.89C460.2 1202.48 529.074 1237.44 603.503 1244.74C667.657 1241.42 729.497 1219.9 781.662 1182.76C833.826 1145.61 874.12 1094.4 897.746 1035.21C922.761 956.422 912.134 871.928 862.033 808.377C814.163 747.717 738.842 717.041 659.708 718.752C618.092 727.654 579.251 746.353 546.471 773.268C513.691 800.183 487.936 834.522 471.382 873.381C454.829 912.241 447.965 954.478 451.37 996.521C454.776 1038.56 468.351 1079.18 490.948 1114.92C497.541 1122.75 504.897 1129.91 512.91 1136.3C540.349 1158.27 574.542 1170.28 609.818 1170.35C645.094 1170.41 679.334 1158.54 706.859 1136.68C731.574 1111.92 746.125 1078.95 747.692 1044.16C749.258 1009.37 737.728 975.243 715.338 948.399C704.075 934.519 690.524 922.626 675.257 913.223C666.105 908.373 656.38 904.666 646.307 902.187C627.561 897.798 613.132 900.395 605.692 909.497C598.59 918.191 598.683 931.967 605.959 948.297C610.99 958.571 617.208 968.192 624.469 976.978C629.062 982.536 634.072 987.76 639.462 992.602L639.463 992.603C641.07 994.047 642.711 995.456 644.385 996.831C642.669 995.538 640.952 994.215 639.246 992.871C633.543 988.325 628.118 983.455 622.997 978.286C619.502 974.759 616.149 971.093 612.947 967.295C609.421 963.096 606.134 958.704 603.102 954.141C600.351 950.007 597.879 945.698 595.702 941.242C593.768 937.308 592.169 933.222 590.923 929.024C589.833 925.358 589.171 921.58 588.95 917.764C588.756 914.435 589.103 911.097 589.978 907.878C590.777 904.911 592.197 902.144 594.144 899.755C596.091 897.367 598.523 895.41 601.283 894.011C604.279 892.493 607.503 891.462 610.83 890.957C614.645 890.378 618.513 890.234 622.361 890.529C626.404 890.825 630.418 891.435 634.365 892.351C638.301 892.861 642.227 893.512 646.081 894.286C651.312 895.304 656.543 896.638 661.63 898.155C666.717 899.672 671.64 901.413 676.48 903.368C681.321 905.322 685.997 907.44 690.56 909.833C699.574 914.492 708.131 919.972 716.119 926.204C723.94 932.308 731.165 939.125 737.701 946.566C744.16 953.931 749.887 961.895 754.802 970.35C759.686 978.754 763.708 987.622 766.806 996.821C768.352 1001.44 769.656 1006.14 770.711 1010.89C777.253 1040.27 774.008 1070.96 761.462 1098.36C759.431 1102.79 757.171 1107.12 754.689 1111.32C749.725 1119.68 743.927 1127.52 737.382 1134.74C733.488 1139.04 729.346 1143.12 724.978 1146.95C712.661 1160.03 698.133 1170.88 682.05 1179.01C677.559 1181.28 672.894 1183.36 668.197 1185.12C663.5 1186.88 658.547 1188.58 653.634 1189.94C648.628 1191.32 643.555 1192.46 638.434 1193.34C627.988 1195.13 617.386 1195.86 606.791 1195.53C601.597 1195.36 596.414 1194.94 591.262 1194.25C586.206 1193.58 581.129 1192.66 576.165 1191.49C571.202 1190.31 566.351 1188.92 561.582 1187.3C542.652 1180.84 525.162 1170.81 510.073 1157.78C504.49 1152.95 499.26 1147.74 494.421 1142.18C485.485 1134.4 477.179 1125.94 469.582 1116.87C459.587 1104.89 450.831 1091.94 443.447 1078.23C436.033 1064.45 429.98 1049.99 425.369 1035.05C420.703 1019.92 417.482 1004.39 415.75 988.656C413.991 972.624 413.743 956.464 415.01 940.386C416.315 923.868 419.177 907.507 423.561 891.517C432.684 858.362 448.024 827.205 468.78 799.672C478.792 786.421 490.033 774.126 502.355 762.948C514.352 752.078 527.343 742.336 541.162 733.85C554.739 725.518 569.077 718.469 583.986 712.796C592.105 709.711 600.383 707.054 608.785 704.834C610.751 704.155 612.725 703.517 614.705 702.92C632.13 697.465 650.016 693.577 668.146 691.303C685.737 689.101 703.496 688.515 721.196 689.552C738.511 690.571 755.686 693.251 772.479 697.554C789.013 701.801 805.061 707.723 820.37 715.229C835.646 722.732 850.048 731.868 863.318 742.474C890.434 764.217 912.184 791.802 926.913 823.129C934.09 838.444 939.556 854.49 943.212 870.981C945.923 883.152 947.689 895.511 948.495 907.949"/>
</mask>
<path fill-rule="evenodd" clip-rule="evenodd" d="M876.247 1165.29C869.32 1173.51 861.859 1181.51 854.161 1189.05C846.464 1196.6 837.975 1204.1 829.363 1211C820.75 1217.91 811.727 1224.46 802.529 1230.47C793.331 1236.48 784.03 1241.92 774.472 1246.93C755.667 1256.77 735.95 1264.8 715.595 1270.91C695.689 1276.89 675.256 1280.98 654.569 1283.14C641.669 1284.46 628.7 1285.02 615.732 1284.82C609.258 1285.18 602.8 1285.36 596.36 1285.36L593.153 1285.35C571.639 1285.17 550.193 1282.92 529.117 1278.64C508.352 1274.41 488.082 1268.08 468.626 1259.74C458.941 1255.57 449.49 1250.89 440.312 1245.72C431.099 1240.52 422.182 1234.83 413.602 1228.66C378.544 1203.42 349.749 1170.61 329.402 1132.71C324.422 1123.44 319.962 1113.9 316.042 1104.14C312.149 1094.42 308.787 1084.49 305.97 1074.41C300.351 1054.16 296.852 1033.39 295.528 1012.43C294.181 991.156 294.921 969.805 297.738 948.674C300.611 927.058 305.5 905.753 312.342 885.031C319.409 863.744 328.4 843.132 339.206 823.445C344.684 813.437 350.706 803.52 357.109 793.981C363.511 784.441 370.592 774.769 377.951 765.667C385.309 756.565 393.366 747.432 401.722 738.86C410.077 730.287 419.131 721.714 428.381 713.743C432.178 710.473 436.053 707.258 439.979 704.12C443.767 701.091 447.602 698.133 451.463 695.264C448.012 698.636 444.632 702.068 441.325 705.558C384.88 765.123 349.575 841.48 341.046 923.007C336.658 963.06 340.576 1003.58 352.562 1042.08C364.547 1080.58 384.347 1116.25 410.745 1146.89C460.2 1202.48 529.074 1237.44 603.503 1244.74C667.657 1241.42 729.497 1219.9 781.662 1182.76C833.826 1145.61 874.12 1094.4 897.746 1035.21C922.761 956.422 912.134 871.928 862.033 808.377C814.163 747.717 738.842 717.041 659.708 718.752C618.092 727.654 579.251 746.353 546.471 773.268C513.691 800.183 487.936 834.522 471.382 873.381C454.829 912.241 447.965 954.478 451.37 996.521C454.776 1038.56 468.351 1079.18 490.948 1114.92C497.541 1122.75 504.897 1129.91 512.91 1136.3C540.349 1158.27 574.542 1170.28 609.818 1170.35C645.094 1170.41 679.334 1158.54 706.859 1136.68C731.574 1111.92 746.125 1078.95 747.692 1044.16C749.258 1009.37 737.728 975.243 715.338 948.399C704.075 934.519 690.524 922.626 675.257 913.223C666.105 908.373 656.38 904.666 646.307 902.187C627.561 897.798 613.132 900.395 605.692 909.497C598.59 918.191 598.683 931.967 605.959 948.297C610.99 958.571 617.208 968.192 624.469 976.978C629.062 982.536 634.072 987.76 639.462 992.602L639.463 992.603C641.07 994.047 642.711 995.456 644.385 996.831C642.669 995.538 640.952 994.215 639.246 992.871C633.543 988.325 628.118 983.455 622.997 978.286C619.502 974.759 616.149 971.093 612.947 967.295C609.421 963.096 606.134 958.704 603.102 954.141C600.351 950.007 597.879 945.698 595.702 941.242C593.768 937.308 592.169 933.222 590.923 929.024C589.833 925.358 589.171 921.58 588.95 917.764C588.756 914.435 589.103 911.097 589.978 907.878C590.777 904.911 592.197 902.144 594.144 899.755C596.091 897.367 598.523 895.41 601.283 894.011C604.279 892.493 607.503 891.462 610.83 890.957C614.645 890.378 618.513 890.234 622.361 890.529C626.404 890.825 630.418 891.435 634.365 892.351C638.301 892.861 642.227 893.512 646.081 894.286C651.312 895.304 656.543 896.638 661.63 898.155C666.717 899.672 671.64 901.413 676.48 903.368C681.321 905.322 685.997 907.44 690.56 909.833C699.574 914.492 708.131 919.972 716.119 926.204C723.94 932.308 731.165 939.125 737.701 946.566C744.16 953.931 749.887 961.895 754.802 970.35C759.686 978.754 763.708 987.622 766.806 996.821C768.352 1001.44 769.656 1006.14 770.711 1010.89C777.253 1040.27 774.008 1070.96 761.462 1098.36C759.431 1102.79 757.171 1107.12 754.689 1111.32C749.725 1119.68 743.927 1127.52 737.382 1134.74C733.488 1139.04 729.346 1143.12 724.978 1146.95C712.661 1160.03 698.133 1170.88 682.05 1179.01C677.559 1181.28 672.894 1183.36 668.197 1185.12C663.5 1186.88 658.547 1188.58 653.634 1189.94C648.628 1191.32 643.555 1192.46 638.434 1193.34C627.988 1195.13 617.386 1195.86 606.791 1195.53C601.597 1195.36 596.414 1194.94 591.262 1194.25C586.206 1193.58 581.129 1192.66 576.165 1191.49C571.202 1190.31 566.351 1188.92 561.582 1187.3C542.652 1180.84 525.162 1170.81 510.073 1157.78C504.49 1152.95 499.26 1147.74 494.421 1142.18C485.485 1134.4 477.179 1125.94 469.582 1116.87C459.587 1104.89 450.831 1091.94 443.447 1078.23C436.033 1064.45 429.98 1049.99 425.369 1035.05C420.703 1019.92 417.482 1004.39 415.75 988.656C413.991 972.624 413.743 956.464 415.01 940.386C416.315 923.868 419.177 907.507 423.561 891.517C432.684 858.362 448.024 827.205 468.78 799.672C478.792 786.421 490.033 774.126 502.355 762.948C514.352 752.078 527.343 742.336 541.162 733.85C554.739 725.518 569.077 718.469 583.986 712.796C592.105 709.711 600.383 707.054 608.785 704.834C610.751 704.155 612.725 703.517 614.705 702.92C632.13 697.465 650.016 693.577 668.146 691.303C685.737 689.101 703.496 688.515 721.196 689.552C738.511 690.571 755.686 693.251 772.479 697.554C789.013 701.801 805.061 707.723 820.37 715.229C835.646 722.732 850.048 731.868 863.318 742.474C890.434 764.217 912.184 791.802 926.913 823.129C934.09 838.444 939.556 854.49 943.212 870.981C945.923 883.152 947.689 895.511 948.495 907.949" fill="white"/>
<path d="M441.289 1244.02L441.043 1244.46L441.044 1244.46L441.289 1244.02ZM469.413 1257.95L469.215 1258.4L469.216 1258.41L469.413 1257.95ZM529.514 1276.72L529.415 1277.21L529.415 1277.21L529.514 1276.72ZM593.165 1283.39L593.171 1282.89L593.169 1282.89L593.165 1283.39ZM593.17 1283.39L593.164 1283.89L593.169 1283.89L593.17 1283.39ZM596.36 1283.4L596.358 1283.9H596.36V1283.4ZM596.366 1283.4L596.366 1283.9L596.366 1283.9L596.366 1283.4ZM615.622 1282.86L615.594 1282.36L615.594 1282.36L615.622 1282.86ZM615.693 1282.86L615.701 1282.36L615.683 1282.36L615.665 1282.36L615.693 1282.86ZM615.764 1282.86L615.772 1282.36L615.772 1282.36L615.764 1282.86ZM654.363 1281.19L654.414 1281.69L654.415 1281.69L654.363 1281.19ZM715.022 1269.04L714.878 1268.56L714.878 1268.56L715.022 1269.04ZM773.55 1245.2L773.782 1245.65L773.782 1245.64L773.55 1245.2ZM801.442 1228.84L801.715 1229.25L801.715 1229.25L801.442 1228.84ZM828.12 1209.48L827.807 1209.09L827.807 1209.09L828.12 1209.48ZM852.772 1187.66L853.122 1188.02L853.122 1188.02L852.772 1187.66ZM874.73 1164.03L874.348 1163.71L874.348 1163.71L874.73 1164.03ZM935.003 1055.99L934.527 1055.84L934.527 1055.84L935.003 1055.99ZM948.271 996.947L947.776 996.876L947.775 996.884L948.271 996.947ZM948.271 996.945L948.333 996.448L947.846 996.388L947.776 996.874L948.271 996.945ZM819.494 716.983L819.714 716.534L819.714 716.534L819.494 716.983ZM771.983 699.449L772.107 698.965L772.107 698.964L771.983 699.449ZM721.079 691.506L721.109 691.006L721.109 691.006L721.079 691.506ZM668.393 693.245L668.331 692.749L668.331 692.749L668.393 693.245ZM615.3 704.786L615.449 705.263L615.449 705.263L615.3 704.786ZM615.28 704.792L615.424 705.271L615.429 705.269L615.28 704.792ZM609.435 706.682L609.272 706.209L609.272 706.209L609.435 706.682ZM609.365 706.706L609.493 707.189L609.511 707.185L609.528 707.179L609.365 706.706ZM609.294 706.725L609.166 706.241L609.166 706.241L609.294 706.725ZM584.694 714.623L584.516 714.156L584.516 714.156L584.694 714.623ZM542.202 735.514L541.94 735.088L541.94 735.088L542.202 735.514ZM503.689 764.392L503.353 764.021L503.353 764.021L503.689 764.392ZM470.363 800.843L469.964 800.542L469.963 800.542L470.363 800.843ZM425.467 892.031L424.984 891.899L424.984 891.899L425.467 892.031ZM416.98 940.539L416.481 940.499L416.481 940.499L416.98 940.539ZM417.714 988.444L417.217 988.499L417.217 988.499L417.714 988.444ZM427.259 1034.48L426.781 1034.63L426.781 1034.63L427.259 1034.48ZM445.19 1077.31L444.749 1077.55L444.75 1077.55L445.19 1077.31ZM471.102 1115.62L470.718 1115.94L470.718 1115.94L471.102 1115.62ZM495.725 1140.71L495.397 1141.09L495.397 1141.09L495.725 1140.71ZM495.828 1140.8L496.205 1140.47L496.182 1140.44L496.156 1140.42L495.828 1140.8ZM495.917 1140.9L496.294 1140.57L496.294 1140.57L495.917 1140.9ZM511.372 1156.3L511.045 1156.68L511.045 1156.68L511.372 1156.3ZM606.855 1193.57L606.839 1194.07L606.839 1194.07L606.855 1193.57ZM638.097 1191.41L638.181 1191.9L638.181 1191.9L638.097 1191.41ZM653.103 1188.05L653.236 1188.54L653.236 1188.54L653.103 1188.05ZM653.105 1188.05L652.972 1187.57L652.971 1187.57L653.105 1188.05ZM667.498 1183.29L667.673 1183.76L667.673 1183.76L667.498 1183.29ZM681.152 1177.27L681.378 1177.72L681.378 1177.72L681.152 1177.27ZM723.534 1145.62L723.898 1145.96L723.898 1145.96L723.534 1145.62ZM723.598 1145.55L723.268 1145.17L723.25 1145.19L723.234 1145.21L723.598 1145.55ZM723.668 1145.49L723.998 1145.86L723.998 1145.86L723.668 1145.49ZM735.911 1133.43L736.282 1133.76L736.283 1133.76L735.911 1133.43ZM735.913 1133.43L735.543 1133.09L735.542 1133.09L735.913 1133.43ZM752.986 1110.33L753.416 1110.58L753.417 1110.58L752.986 1110.33ZM759.663 1097.55L760.117 1097.76L760.117 1097.76L759.663 1097.55ZM768.782 1011.31L768.294 1011.42L768.294 1011.42L768.782 1011.31ZM764.931 997.437L765.405 997.279L765.405 997.278L764.931 997.437ZM753.09 971.326L753.523 971.075L753.522 971.075L753.09 971.326ZM736.21 947.85L736.586 947.52L736.586 947.52L736.21 947.85ZM714.897 927.742L715.205 927.347L715.204 927.347L714.897 927.742ZM689.646 911.568L689.417 912.012L689.417 912.012L689.646 911.568ZM689.636 911.562L689.404 912.005L689.406 912.006L689.636 911.562ZM675.735 905.18L675.922 904.716L675.922 904.716L675.735 905.18ZM661.06 900.029L661.203 899.55L661.203 899.55L661.06 900.029ZM645.7 896.206L645.604 896.697L645.604 896.697L645.7 896.206ZM645.688 896.204L645.59 896.694L645.593 896.695L645.688 896.204ZM634.109 894.292L634.173 893.796L634.173 893.796L634.109 894.292ZM634.01 894.279L633.897 894.766L633.922 894.772L633.946 894.775L634.01 894.279ZM633.914 894.257L633.801 894.744L633.801 894.744L633.914 894.257ZM622.215 892.481L622.252 891.982L622.252 891.982L622.215 892.481ZM622.209 892.48L622.171 892.979L622.172 892.979L622.209 892.48ZM611.129 892.891L611.054 892.397L611.054 892.397L611.129 892.891ZM602.182 895.753L601.956 895.307L601.956 895.307L602.182 895.753ZM595.681 900.985L595.293 900.669L595.293 900.669L595.681 900.985ZM591.886 908.383L591.404 908.253L591.403 908.254L591.886 908.383ZM591.885 908.387L592.368 908.518L592.368 908.515L591.885 908.387ZM590.922 917.651L591.421 917.622L591.421 917.622L590.922 917.651ZM592.818 928.471L593.298 928.329L593.298 928.329L592.818 928.471ZM597.478 940.385L597.927 940.164L597.927 940.164L597.478 940.385ZM597.48 940.389L597.93 940.17L597.929 940.169L597.48 940.389ZM604.751 953.064L605.167 952.787L605.167 952.787L604.751 953.064ZM611.666 962.604L611.274 962.914L612.09 962.338L611.666 962.604ZM604.181 949.151L603.732 949.371L603.732 949.371L604.181 949.151ZM604.166 949.12L603.709 949.323L603.713 949.332L603.717 949.34L604.166 949.12ZM604.152 949.087L603.695 949.291L603.695 949.291L604.152 949.087ZM604.156 908.266L603.769 907.949L603.769 907.949L604.156 908.266ZM646.761 900.282L646.875 899.795L646.875 899.795L646.761 900.282ZM646.783 900.287L646.902 899.802L646.897 899.8L646.783 900.287ZM676.189 911.497L675.955 911.939L675.955 911.939L676.189 911.497ZM676.246 911.527L676.508 911.102L676.494 911.093L676.48 911.086L676.246 911.527ZM676.3 911.561L676.038 911.987L676.038 911.987L676.3 911.561ZM716.869 947.162L716.481 947.477L716.485 947.482L716.869 947.162ZM749.665 1044.24L749.166 1044.22L749.166 1044.22L749.665 1044.24ZM708.264 1138.06L707.91 1137.7L707.91 1137.7L708.264 1138.06ZM708.184 1138.14L708.495 1138.53L708.517 1138.51L708.538 1138.49L708.184 1138.14ZM708.095 1138.21L708.406 1138.6L708.406 1138.6L708.095 1138.21ZM609.814 1172.3L609.813 1172.8L609.813 1172.8L609.814 1172.3ZM511.671 1137.83L511.983 1137.44L511.982 1137.44L511.671 1137.83ZM489.431 1116.18L489.049 1116.5L489.049 1116.5L489.431 1116.18ZM489.345 1116.07L488.922 1116.34L488.94 1116.37L488.963 1116.4L489.345 1116.07ZM489.273 1115.96L489.696 1115.69L489.696 1115.69L489.273 1115.96ZM449.401 996.677L448.903 996.718L448.903 996.718L449.401 996.677ZM469.562 872.62L469.102 872.424L469.102 872.424L469.562 872.62ZM545.211 771.761L544.894 771.375L544.894 771.375L545.211 771.761ZM659.291 716.839L659.396 717.328L659.396 717.328L659.291 716.839ZM659.476 716.799L659.465 716.299L659.418 716.3L659.371 716.31L659.476 716.799ZM659.665 716.795L659.676 717.295L659.676 717.295L659.665 716.795ZM863.59 807.172L863.982 806.862L863.982 806.862L863.59 807.172ZM899.631 1035.8L899.154 1035.65L899.154 1035.65L899.631 1035.8ZM899.609 1035.87L900.074 1036.05L900.081 1036.04L900.086 1036.02L899.609 1035.87ZM899.583 1035.93L899.119 1035.75L899.119 1035.75L899.583 1035.93ZM603.606 1246.7L603.58 1246.2L603.58 1246.2L603.606 1246.7ZM603.456 1246.71L603.408 1247.2L603.445 1247.21L603.482 1247.2L603.456 1246.71ZM603.308 1246.69L603.259 1247.19L603.259 1247.19L603.308 1246.69ZM409.263 1148.19L408.89 1148.52L408.89 1148.52L409.263 1148.19ZM409.253 1148.17L408.874 1148.5L408.879 1148.51L409.253 1148.17ZM409.242 1148.16L408.864 1148.49L408.864 1148.49L409.242 1148.16ZM350.674 1042.66L351.152 1042.51L351.152 1042.51L350.674 1042.66ZM339.081 922.8L339.578 922.855L339.579 922.852L339.081 922.8ZM430.44 714.564L430.815 714.894L430.114 714.185L430.44 714.564ZM429.676 715.22L429.35 714.841L429.35 714.841L429.676 715.22ZM403.143 740.219L403.501 740.568L403.501 740.568L403.143 740.219ZM379.493 766.89L379.104 766.576L379.104 766.576L379.493 766.89ZM358.754 795.064L358.339 794.786L358.339 794.786L358.754 795.064ZM340.943 824.378L340.504 824.138L340.504 824.138L340.943 824.378ZM340.942 824.38L341.38 824.621L341.38 824.62L340.942 824.38ZM314.219 885.641L313.744 885.484L313.744 885.484L314.219 885.641ZM299.697 948.929L300.192 948.995L300.192 948.995L299.697 948.929ZM297.5 1012.31L297.999 1012.27L297.999 1012.27L297.5 1012.31ZM307.874 1073.89L307.393 1074.03L307.393 1074.03L307.874 1073.89ZM946.523 908.074L946.024 908.107L946.024 908.107L946.523 908.074ZM946.53 908.172L946.031 908.204L946.032 908.229L946.036 908.254L946.53 908.172ZM946.546 908.268L946.053 908.351L946.053 908.351L946.546 908.268ZM441.535 1243.58C432.401 1238.43 423.561 1232.78 415.054 1226.67L414.471 1227.48C423.007 1233.62 431.878 1239.28 441.043 1244.46L441.535 1243.58ZM469.61 1257.49C460.007 1253.35 450.635 1248.71 441.535 1243.58L441.044 1244.46C450.175 1249.6 459.579 1254.26 469.215 1258.4L469.61 1257.49ZM529.614 1276.23C509.016 1272.04 488.909 1265.76 469.61 1257.49L469.216 1258.41C488.578 1266.7 508.75 1273 529.415 1277.21L529.614 1276.23ZM593.169 1282.89C571.817 1282.71 550.532 1280.48 529.614 1276.23L529.415 1277.21C550.396 1281.47 571.744 1283.71 593.161 1283.89L593.169 1282.89ZM593.176 1282.89L593.171 1282.89L593.159 1283.89L593.164 1283.89L593.176 1282.89ZM596.362 1282.9L593.172 1282.89L593.169 1283.89L596.358 1283.9L596.362 1282.9ZM596.366 1282.9H596.36V1283.9H596.366V1282.9ZM615.594 1282.36C609.167 1282.72 602.758 1282.9 596.366 1282.9L596.366 1283.9C602.777 1283.9 609.204 1283.72 615.649 1283.36L615.594 1282.36ZM615.665 1282.36L615.594 1282.36L615.649 1283.36L615.72 1283.36L615.665 1282.36ZM615.772 1282.36L615.701 1282.36L615.685 1283.36L615.756 1283.36L615.772 1282.36ZM654.312 1280.69C641.51 1282.01 628.641 1282.57 615.772 1282.36L615.756 1283.36C628.664 1283.57 641.573 1283.01 654.414 1281.69L654.312 1280.69ZM714.878 1268.56C695.122 1274.49 674.842 1278.55 654.311 1280.69L654.415 1281.69C675.008 1279.54 695.349 1275.47 715.166 1269.52L714.878 1268.56ZM773.318 1244.76C754.652 1254.53 735.082 1262.5 714.878 1268.56L715.166 1269.52C735.43 1263.44 755.059 1255.44 773.782 1245.65L773.318 1244.76ZM801.168 1228.42C792.037 1234.38 782.805 1239.79 773.318 1244.76L773.782 1245.64C783.298 1240.66 792.557 1235.23 801.715 1229.25L801.168 1228.42ZM827.807 1209.09C819.256 1215.95 810.297 1222.46 801.168 1228.42L801.715 1229.25C810.872 1223.27 819.857 1216.75 828.433 1209.87L827.807 1209.09ZM852.422 1187.3C844.785 1194.79 836.358 1202.24 827.807 1209.09L828.433 1209.87C837.008 1203 845.461 1195.53 853.122 1188.02L852.422 1187.3ZM874.348 1163.71C867.474 1171.87 860.067 1179.81 852.422 1187.3L853.122 1188.02C860.788 1180.5 868.217 1172.54 875.113 1164.36L874.348 1163.71ZM934.527 1055.84C921.615 1095.28 901.186 1131.9 874.348 1163.71L875.113 1164.36C902.033 1132.44 922.525 1095.71 935.478 1056.15L934.527 1055.84ZM936.947 1056.09L935.156 1055.51L934.85 1056.47L936.641 1057.04L936.947 1056.09ZM947.775 996.884C945.248 1016.9 940.812 1036.64 934.527 1055.84L935.478 1056.15C941.783 1036.89 946.232 1017.09 948.767 997.009L947.775 996.884ZM947.776 996.874L947.776 996.876L948.766 997.017L948.766 997.015L947.776 996.874ZM950.293 996.691L948.333 996.448L948.21 997.441L950.17 997.684L950.293 996.691ZM819.273 717.432C834.387 724.855 848.636 733.894 861.766 744.388L862.39 743.606C849.204 733.068 834.893 723.99 819.714 716.534L819.273 717.432ZM771.859 699.933C788.228 704.137 804.117 710.001 819.274 717.432L819.714 716.534C804.496 709.073 788.543 703.185 772.107 698.965L771.859 699.933ZM721.05 692.005C738.205 693.014 755.221 695.669 771.859 699.933L772.107 698.964C755.407 694.684 738.328 692.019 721.109 691.006L721.05 692.005ZM668.455 693.741C685.895 691.558 703.502 690.976 721.05 692.005L721.109 691.006C703.499 689.974 685.832 690.558 668.331 692.749L668.455 693.741ZM615.449 705.263C632.732 699.852 650.473 695.996 668.455 693.741L668.331 692.749C650.289 695.011 632.491 698.88 615.15 704.309L615.449 705.263ZM615.429 705.269L615.449 705.263L615.15 704.309L615.131 704.315L615.429 705.269ZM609.598 707.155C611.534 706.486 613.476 705.859 615.424 705.271L615.136 704.313C613.174 704.905 611.22 705.537 609.272 706.209L609.598 707.155ZM609.528 707.179L609.598 707.155L609.272 706.209L609.202 706.233L609.528 707.179ZM609.422 707.208L609.493 707.189L609.238 706.223L609.166 706.241L609.422 707.208ZM584.871 715.09C592.909 712.037 601.104 709.406 609.422 707.208L609.166 706.241C600.815 708.448 592.586 711.09 584.516 714.156L584.871 715.09ZM542.463 735.94C555.909 727.689 570.107 720.709 584.871 715.09L584.516 714.156C569.693 719.796 555.439 726.804 541.94 735.088L542.463 735.94ZM504.025 764.762C515.908 753.995 528.776 744.346 542.463 735.94L541.94 735.088C528.2 743.526 515.282 753.212 503.353 764.021L504.025 764.762ZM470.762 801.144C480.681 788.016 491.817 775.836 504.025 764.762L503.353 764.021C491.099 775.137 479.92 787.364 469.964 800.542L470.762 801.144ZM425.949 892.164C434.99 859.308 450.192 828.43 470.762 801.144L469.963 800.542C449.318 827.929 434.059 858.92 424.984 891.899L425.949 892.164ZM417.478 940.578C418.771 924.213 421.606 908.005 425.949 892.164L424.984 891.899C420.625 907.801 417.779 924.072 416.481 940.499L417.478 940.578ZM418.211 988.39C416.469 972.509 416.223 956.503 417.478 940.578L416.481 940.499C415.221 956.487 415.468 972.556 417.217 988.499L418.211 988.39ZM427.736 1034.33C423.115 1019.35 419.926 1003.97 418.211 988.389L417.217 988.499C418.939 1004.14 422.141 1019.58 426.781 1034.63L427.736 1034.33ZM445.63 1077.07C438.292 1063.43 432.3 1049.12 427.736 1034.33L426.781 1034.63C431.363 1049.47 437.381 1063.85 444.749 1077.55L445.63 1077.07ZM471.486 1115.3C461.598 1103.44 452.936 1090.64 445.63 1077.07L444.75 1077.55C452.087 1091.17 460.787 1104.03 470.718 1115.94L471.486 1115.3ZM496.053 1140.33C487.214 1132.64 479 1124.27 471.485 1115.3L470.718 1115.94C478.267 1124.95 486.518 1133.36 495.397 1141.09L496.053 1140.33ZM496.156 1140.42L496.053 1140.33L495.397 1141.09L495.5 1141.17L496.156 1140.42ZM496.294 1140.57L496.205 1140.47L495.451 1141.13L495.54 1141.23L496.294 1140.57ZM511.699 1155.92C506.205 1151.17 501.057 1146.04 496.294 1140.57L495.54 1141.23C500.333 1146.74 505.515 1151.9 511.045 1156.68L511.699 1155.92ZM562.387 1184.98C543.759 1178.62 526.547 1168.75 511.699 1155.92L511.045 1156.68C525.99 1169.59 543.315 1179.52 562.064 1185.92L562.387 1184.98ZM606.871 1193.07C601.759 1192.91 596.66 1192.49 591.591 1191.82L591.459 1192.81C596.561 1193.49 601.694 1193.91 606.839 1194.07L606.871 1193.07ZM638.012 1190.92C627.732 1192.68 617.298 1193.4 606.87 1193.07L606.839 1194.07C617.334 1194.4 627.835 1193.67 638.181 1191.9L638.012 1190.92ZM652.969 1187.57C648.043 1188.93 643.051 1190.05 638.012 1190.92L638.181 1191.9C643.254 1191.03 648.278 1189.91 653.236 1188.54L652.969 1187.57ZM652.971 1187.57L652.969 1187.57L653.236 1188.54L653.238 1188.53L652.971 1187.57ZM667.322 1182.82C662.667 1184.57 657.788 1186.24 652.972 1187.57L653.238 1188.53C658.092 1187.2 663.001 1185.51 667.673 1183.76L667.322 1182.82ZM680.927 1176.82C676.508 1179.06 671.925 1181.1 667.322 1182.82L667.673 1183.76C672.314 1182.02 676.93 1179.97 681.378 1177.72L680.927 1176.82ZM723.17 1145.28C711.049 1158.15 696.753 1168.82 680.927 1176.82L681.378 1177.72C697.308 1169.66 711.697 1158.92 723.898 1145.96L723.17 1145.28ZM723.234 1145.21L723.169 1145.28L723.898 1145.96L723.962 1145.89L723.234 1145.21ZM723.338 1145.11L723.268 1145.17L723.927 1145.93L723.998 1145.86L723.338 1145.11ZM735.54 1133.09C731.71 1137.33 727.636 1141.34 723.338 1145.11L723.998 1145.86C728.324 1142.07 732.425 1138.03 736.282 1133.76L735.54 1133.09ZM735.542 1133.09L735.54 1133.09L736.283 1133.76L736.285 1133.76L735.542 1133.09ZM752.557 1110.07C747.676 1118.29 741.977 1126 735.543 1133.09L736.284 1133.76C742.762 1126.62 748.502 1118.86 753.416 1110.58L752.557 1110.07ZM759.208 1097.34C757.214 1101.7 754.993 1105.94 752.556 1110.07L753.417 1110.58C755.872 1106.42 758.109 1102.14 760.117 1097.76L759.208 1097.34ZM768.294 1011.42C774.72 1040.28 771.533 1070.43 759.208 1097.34L760.117 1097.76C772.533 1070.65 775.744 1040.28 769.27 1011.2L768.294 1011.42ZM764.457 997.596C765.976 1002.14 767.257 1006.75 768.294 1011.42L769.27 1011.2C768.226 1006.5 766.935 1001.85 765.405 997.279L764.457 997.596ZM752.658 971.578C757.459 979.838 761.412 988.555 764.457 997.597L765.405 997.278C762.338 988.172 758.357 979.394 753.523 971.075L752.658 971.578ZM735.834 948.18C742.189 955.425 747.823 963.26 752.658 971.578L753.522 971.075C748.655 962.702 742.983 954.814 736.586 947.52L735.834 948.18ZM714.589 928.136C722.288 934.144 729.401 940.855 735.834 948.18L736.586 947.52C730.111 940.148 722.952 933.395 715.205 927.347L714.589 928.136ZM689.417 912.012C698.295 916.6 706.722 921.998 714.589 928.136L715.204 927.347C707.288 921.172 698.809 915.74 689.876 911.124L689.417 912.012ZM689.406 912.006L689.417 912.012L689.876 911.124L689.865 911.118L689.406 912.006ZM675.547 905.643C680.325 907.573 684.925 909.657 689.404 912.005L689.868 911.119C685.355 908.753 680.725 906.656 675.922 904.716L675.547 905.643ZM660.918 900.508C665.926 902.001 670.775 903.716 675.547 905.643L675.922 904.716C671.122 902.778 666.243 901.052 661.203 899.55L660.918 900.508ZM645.604 896.697C650.742 897.697 655.894 899.01 660.918 900.508L661.203 899.55C656.154 898.044 650.971 896.723 645.795 895.715L645.604 896.697ZM645.593 896.695L645.604 896.697L645.795 895.715L645.784 895.713L645.593 896.695ZM634.045 894.788C637.922 895.289 641.791 895.931 645.59 896.694L645.787 895.714C641.966 894.947 638.074 894.301 634.173 893.796L634.045 894.788ZM633.946 894.775L634.045 894.788L634.173 893.796L634.075 893.783L633.946 894.775ZM633.801 894.744L633.897 894.766L634.124 893.792L634.027 893.77L633.801 894.744ZM622.179 892.979C626.093 893.266 629.979 893.856 633.801 894.744L634.027 893.77C630.155 892.87 626.218 892.273 622.252 891.982L622.179 892.979ZM622.172 892.979L622.179 892.979L622.252 891.982L622.245 891.982L622.172 892.979ZM611.204 893.385C614.832 892.835 618.511 892.699 622.171 892.979L622.247 891.982C618.512 891.696 614.757 891.835 611.054 892.397L611.204 893.385ZM602.408 896.199C605.169 894.801 608.139 893.851 611.204 893.385L611.054 892.397C607.884 892.878 604.812 893.861 601.956 895.307L602.408 896.199ZM596.068 901.301C597.798 899.18 599.957 897.442 602.408 896.199L601.956 895.307C599.381 896.613 597.111 898.439 595.293 900.669L596.068 901.301ZM592.369 908.513C593.079 905.879 594.339 903.422 596.068 901.301L595.293 900.669C593.475 902.899 592.15 905.482 591.404 908.253L592.369 908.513ZM592.368 908.515L592.37 908.511L591.403 908.254L591.402 908.258L592.368 908.515ZM591.421 917.622C591.243 914.557 591.562 911.483 592.368 908.518L591.403 908.255C590.569 911.325 590.238 914.507 590.423 917.68L591.421 917.622ZM593.298 928.329C592.261 924.843 591.632 921.25 591.421 917.622L590.423 917.68C590.638 921.385 591.281 925.054 592.339 928.614L593.298 928.329ZM597.927 940.164C596.053 936.354 594.505 932.395 593.298 928.329L592.339 928.614C593.562 932.733 595.131 936.745 597.029 940.605L597.927 940.164ZM597.929 940.169L597.927 940.164L597.029 940.605L597.032 940.61L597.929 940.169ZM605.167 952.787C602.477 948.744 600.059 944.529 597.93 940.17L597.031 940.609C599.18 945.008 601.62 949.261 604.335 953.341L605.167 952.787ZM612.059 962.294C609.633 959.22 607.334 956.048 605.167 952.787L604.335 953.341C606.516 956.624 608.831 959.818 611.274 962.914L612.059 962.294ZM603.732 949.371C606.002 954.007 608.51 958.512 611.242 962.87L612.09 962.338C609.376 958.01 606.885 953.535 604.63 948.932L603.732 949.371ZM603.717 949.34L603.732 949.371L604.631 948.932L604.615 948.9L603.717 949.34ZM603.695 949.291L603.709 949.323L604.622 948.916L604.608 948.884L603.695 949.291ZM603.769 907.949C595.782 917.727 596.285 932.66 603.695 949.291L604.608 948.884C597.253 932.375 596.918 917.917 604.543 908.582L603.769 907.949ZM646.875 899.795C627.837 895.339 612.13 897.721 603.769 907.949L604.543 908.582C612.531 898.81 627.724 896.339 646.647 900.769L646.875 899.795ZM646.897 899.8L646.875 899.795L646.647 900.769L646.669 900.774L646.897 899.8ZM676.423 911.056C667.09 906.11 657.174 902.33 646.902 899.802L646.663 900.773C656.856 903.281 666.695 907.032 675.955 911.939L676.423 911.056ZM676.48 911.086L676.423 911.056L675.955 911.939L676.012 911.969L676.48 911.086ZM676.563 911.135L676.508 911.102L675.983 911.953L676.038 911.987L676.563 911.135ZM717.257 946.847C705.821 932.756 692.062 920.682 676.562 911.135L676.038 911.987C691.442 921.474 705.116 933.474 716.481 947.477L717.257 946.847ZM750.165 1044.27C751.759 1008.87 740.029 974.154 717.253 946.842L716.485 947.482C739.102 974.604 750.748 1009.08 749.166 1044.22L750.165 1044.27ZM708.618 1138.41C733.764 1113.21 748.571 1079.66 750.165 1044.27L749.166 1044.22C747.583 1079.37 732.881 1112.68 707.91 1137.7L708.618 1138.41ZM708.538 1138.49L708.618 1138.41L707.91 1137.7L707.83 1137.78L708.538 1138.49ZM708.406 1138.6L708.495 1138.53L707.873 1137.74L707.784 1137.82L708.406 1138.6ZM609.813 1172.8C645.652 1172.87 680.439 1160.8 708.406 1138.6L707.784 1137.82C679.996 1159.88 645.428 1171.87 609.815 1171.8L609.813 1172.8ZM511.358 1138.22C539.236 1160.53 573.974 1172.73 609.813 1172.8L609.815 1171.8C574.202 1171.73 539.683 1159.61 511.983 1137.44L511.358 1138.22ZM489.049 1116.5C495.747 1124.45 503.22 1131.72 511.359 1138.22L511.982 1137.44C503.895 1130.98 496.469 1123.75 489.813 1115.85L489.049 1116.5ZM488.963 1116.4L489.049 1116.5L489.813 1115.85L489.727 1115.75L488.963 1116.4ZM488.851 1116.23L488.922 1116.34L489.768 1115.81L489.696 1115.69L488.851 1116.23ZM448.903 996.718C452.34 1039.15 466.043 1080.15 488.851 1116.23L489.696 1115.69C466.974 1079.75 453.324 1038.91 449.9 996.637L448.903 996.718ZM469.102 872.424C452.394 911.648 445.466 954.281 448.903 996.718L449.9 996.637C446.475 954.362 453.377 911.891 470.022 872.816L469.102 872.424ZM544.894 771.375C511.807 798.541 485.811 833.201 469.102 872.424L470.022 872.816C486.667 833.742 512.566 799.212 545.528 772.147L544.894 771.375ZM659.186 716.35C617.182 725.335 577.98 744.208 544.894 771.375L545.528 772.147C578.49 745.083 617.547 726.279 659.396 717.328L659.186 716.35ZM659.371 716.31L659.186 716.35L659.396 717.328L659.58 717.288L659.371 716.31ZM659.654 716.295L659.465 716.299L659.487 717.299L659.676 717.295L659.654 716.295ZM863.982 806.862C815.563 745.507 739.451 714.571 659.654 716.295L659.676 717.295C739.208 715.576 815 746.409 863.197 807.481L863.982 806.862ZM900.107 1035.95C925.329 956.507 914.659 871.143 863.982 806.862L863.197 807.481C913.639 871.465 924.291 956.472 899.154 1035.65L900.107 1035.95ZM900.086 1036.02L900.107 1035.95L899.154 1035.65L899.133 1035.72L900.086 1036.02ZM900.048 1036.12L900.074 1036.05L899.145 1035.68L899.119 1035.75L900.048 1036.12ZM783.105 1184.75C835.655 1147.33 876.246 1095.74 900.048 1036.12L899.119 1035.75C875.389 1095.19 834.919 1146.63 782.525 1183.94L783.105 1184.75ZM603.632 1247.2C668.259 1243.85 730.555 1222.17 783.105 1184.75L782.525 1183.94C730.13 1221.25 668.018 1242.86 603.58 1246.2L603.632 1247.2ZM603.482 1247.2L603.632 1247.2L603.58 1246.2L603.431 1246.21L603.482 1247.2ZM603.259 1247.19L603.408 1247.2L603.505 1246.21L603.357 1246.19L603.259 1247.19ZM408.89 1148.52C458.759 1204.57 528.209 1239.82 603.259 1247.19L603.357 1246.19C528.555 1238.85 459.338 1203.72 409.637 1147.85L408.89 1148.52ZM408.879 1148.51L408.89 1148.52L409.637 1147.85L409.626 1147.84L408.879 1148.51ZM408.864 1148.49L408.874 1148.5L409.631 1147.85L409.621 1147.84L408.864 1148.49ZM350.197 1042.8C362.282 1081.62 382.246 1117.59 408.864 1148.49L409.621 1147.84C383.093 1117.04 363.196 1081.2 351.152 1042.51L350.197 1042.8ZM338.584 922.746C334.16 963.131 338.112 1003.99 350.197 1042.8L351.152 1042.51C339.108 1003.82 335.169 963.103 339.578 922.855L338.584 922.746ZM430.064 714.234C378.764 772.562 346.684 845.34 338.584 922.748L339.579 922.852C347.657 845.651 379.651 773.068 430.815 714.894L430.064 714.234ZM430.003 715.599C430.256 715.38 430.51 715.162 430.765 714.944L430.114 714.185C429.859 714.403 429.605 714.622 429.35 714.841L430.003 715.599ZM403.501 740.568C411.81 732.043 420.812 723.52 430.003 715.598L429.35 714.841C420.135 722.783 411.112 731.326 402.785 739.87L403.501 740.568ZM379.882 767.204C387.195 758.158 395.202 749.083 403.501 740.568L402.785 739.87C394.463 748.408 386.436 757.507 379.104 766.576L379.882 767.204ZM359.169 795.343C365.534 785.859 372.572 776.246 379.882 767.204L379.104 766.576C371.775 775.642 364.719 785.279 358.339 794.786L359.169 795.343ZM341.381 824.618C346.824 814.675 352.808 804.821 359.169 795.343L358.339 794.786C351.96 804.289 345.961 814.168 340.504 824.138L341.381 824.618ZM341.38 824.62L341.381 824.618L340.504 824.138L340.503 824.14L341.38 824.62ZM314.693 885.799C321.714 864.653 330.646 844.177 341.38 824.621L340.503 824.139C329.74 843.749 320.784 864.28 313.744 885.484L314.693 885.799ZM300.192 948.995C303.045 927.531 307.9 906.375 314.694 885.798L313.744 885.484C306.93 906.12 302.062 927.337 299.201 948.864L300.192 948.995ZM297.999 1012.27C296.662 991.161 297.397 969.968 300.192 948.995L299.201 948.863C296.397 969.901 295.66 991.159 297.001 1012.34L297.999 1012.27ZM308.356 1073.76C302.783 1053.67 299.312 1033.07 297.999 1012.27L297.001 1012.34C298.319 1033.2 301.801 1053.87 307.393 1074.03L308.356 1073.76ZM318.341 1103.23C314.482 1093.59 311.149 1083.75 308.356 1073.76L307.393 1074.03C310.196 1084.06 313.541 1093.93 317.413 1103.6L318.341 1103.23ZM940.795 871.51C943.479 883.558 945.227 895.794 946.024 908.107L947.022 908.042C946.222 895.678 944.466 883.391 941.771 871.292L940.795 871.51ZM946.024 908.107L946.031 908.204L947.029 908.14L947.022 908.042L946.024 908.107ZM946.036 908.254L946.053 908.351L947.039 908.186L947.023 908.09L946.036 908.254ZM946.053 908.351C947.633 917.813 948.754 927.367 949.427 936.953L950.425 936.883C949.749 927.266 948.624 917.68 947.039 908.186L946.053 908.351ZM854.161 1189.05L853.461 1188.34L853.461 1188.34L854.161 1189.05ZM829.363 1211L829.988 1211.78L829.988 1211.78L829.363 1211ZM802.529 1230.47L803.076 1231.31L803.076 1231.31L802.529 1230.47ZM774.472 1246.93L774.936 1247.82L774.937 1247.82L774.472 1246.93ZM715.595 1270.91L715.308 1269.95L715.307 1269.95L715.595 1270.91ZM654.569 1283.14L654.672 1284.13L654.673 1284.13L654.569 1283.14ZM615.732 1284.82L615.748 1283.82L615.712 1283.82L615.677 1283.82L615.732 1284.82ZM596.36 1285.36L596.357 1286.36H596.36V1285.36ZM593.153 1285.35L593.145 1286.35L593.15 1286.35L593.153 1285.35ZM529.117 1278.64L528.917 1279.62L528.918 1279.62L529.117 1278.64ZM468.626 1259.74L468.23 1260.66L468.232 1260.66L468.626 1259.74ZM440.312 1245.72L439.821 1246.59L439.821 1246.59L440.312 1245.72ZM413.602 1228.66L413.018 1229.47L413.018 1229.47L413.602 1228.66ZM329.402 1132.71L330.283 1132.24L330.283 1132.24L329.402 1132.71ZM316.042 1104.14L315.113 1104.51L315.114 1104.51L316.042 1104.14ZM305.97 1074.41L305.006 1074.68L305.007 1074.68L305.97 1074.41ZM295.528 1012.43L296.526 1012.37L296.526 1012.37L295.528 1012.43ZM297.738 948.674L298.729 948.806L298.729 948.806L297.738 948.674ZM312.342 885.031L311.393 884.716L311.392 884.718L312.342 885.031ZM339.206 823.445L340.083 823.926L340.083 823.925L339.206 823.445ZM357.109 793.981L357.939 794.538L357.939 794.538L357.109 793.981ZM377.951 765.667L377.173 765.038L377.173 765.038L377.951 765.667ZM401.722 738.86L402.438 739.558L402.438 739.558L401.722 738.86ZM428.381 713.743L427.728 712.985L427.728 712.985L428.381 713.743ZM439.979 704.12L439.354 703.339L439.354 703.339L439.979 704.12ZM451.463 695.264L452.162 695.979L450.866 694.461L451.463 695.264ZM441.325 705.558L440.6 704.87L440.6 704.87L441.325 705.558ZM341.046 923.007L342.04 923.116L342.04 923.111L341.046 923.007ZM410.745 1146.89L409.987 1147.54L409.993 1147.55L409.998 1147.56L410.745 1146.89ZM603.503 1244.74L603.405 1245.74L603.479 1245.75L603.554 1245.74L603.503 1244.74ZM781.662 1182.76L781.082 1181.94L781.082 1181.94L781.662 1182.76ZM897.746 1035.21L898.675 1035.58L898.689 1035.55L898.7 1035.52L897.746 1035.21ZM862.033 808.377L862.819 807.758L862.818 807.757L862.033 808.377ZM659.708 718.752L659.686 717.752L659.592 717.754L659.499 717.774L659.708 718.752ZM546.471 773.268L545.837 772.495L545.837 772.495L546.471 773.268ZM471.382 873.381L472.302 873.773L472.302 873.773L471.382 873.381ZM451.37 996.521L450.374 996.601L450.374 996.601L451.37 996.521ZM490.948 1114.92L490.102 1115.46L490.139 1115.51L490.183 1115.57L490.948 1114.92ZM512.91 1136.3L513.535 1135.52L513.534 1135.52L512.91 1136.3ZM609.818 1170.35L609.82 1169.35L609.82 1169.35L609.818 1170.35ZM706.859 1136.68L707.481 1137.46L707.526 1137.43L707.567 1137.39L706.859 1136.68ZM747.692 1044.16L746.693 1044.11L746.693 1044.11L747.692 1044.16ZM715.338 948.399L714.561 949.029L714.57 949.04L715.338 948.399ZM675.257 913.223L675.782 912.372L675.754 912.355L675.726 912.339L675.257 913.223ZM646.307 902.187L646.546 901.215L646.535 901.213L646.307 902.187ZM605.692 909.497L604.917 908.864L604.917 908.864L605.692 909.497ZM605.959 948.297L605.045 948.704L605.053 948.721L605.061 948.737L605.959 948.297ZM624.469 976.978L625.239 976.341L625.239 976.341L624.469 976.978ZM639.462 992.602L638.794 993.346L638.797 993.349L639.462 992.602ZM639.463 992.603L640.132 991.859L640.128 991.856L639.463 992.603ZM644.385 996.831L643.783 997.63L645.02 996.058L644.385 996.831ZM639.246 992.871L638.623 993.653L638.627 993.656L639.246 992.871ZM622.997 978.286L622.286 978.99L622.286 978.99L622.997 978.286ZM612.947 967.295L612.181 967.938L612.183 967.94L612.947 967.295ZM603.102 954.141L603.935 953.588L603.934 953.587L603.102 954.141ZM595.702 941.242L596.601 940.803L596.6 940.8L595.702 941.242ZM590.923 929.024L591.882 928.74L591.882 928.739L590.923 929.024ZM588.95 917.764L589.948 917.706L589.948 917.706L588.95 917.764ZM589.978 907.878L590.943 908.14L590.943 908.138L589.978 907.878ZM594.144 899.755L594.919 900.387L594.919 900.387L594.144 899.755ZM601.283 894.011L600.831 893.119L600.831 893.119L601.283 894.011ZM610.83 890.957L610.68 889.968L610.68 889.968L610.83 890.957ZM622.361 890.529L622.285 891.526L622.288 891.526L622.361 890.529ZM634.365 892.351L634.138 893.326L634.187 893.337L634.236 893.343L634.365 892.351ZM646.081 894.286L645.884 895.266L645.89 895.268L646.081 894.286ZM676.48 903.368L676.855 902.44L676.855 902.44L676.48 903.368ZM690.56 909.833L690.095 910.718L690.101 910.721L690.56 909.833ZM716.119 926.204L716.734 925.416L716.734 925.416L716.119 926.204ZM737.701 946.566L738.453 945.907L738.452 945.906L737.701 946.566ZM754.802 970.35L755.667 969.847L755.667 969.847L754.802 970.35ZM766.806 996.821L767.754 996.504L767.753 996.502L766.806 996.821ZM770.711 1010.89L769.735 1011.11L769.735 1011.11L770.711 1010.89ZM761.462 1098.36L762.371 1098.77L762.371 1098.77L761.462 1098.36ZM754.689 1111.32L755.549 1111.83L755.55 1111.83L754.689 1111.32ZM737.382 1134.74L736.642 1134.06L736.641 1134.06L737.382 1134.74ZM724.978 1146.95L724.318 1146.2L724.283 1146.23L724.25 1146.27L724.978 1146.95ZM682.05 1179.01L682.502 1179.91L682.502 1179.91L682.05 1179.01ZM668.197 1185.12L668.548 1186.06L668.548 1186.06L668.197 1185.12ZM653.634 1189.94L653.369 1188.97L653.367 1188.97L653.634 1189.94ZM638.434 1193.34L638.603 1194.32L638.604 1194.32L638.434 1193.34ZM606.791 1195.53L606.759 1196.53L606.76 1196.53L606.791 1195.53ZM591.262 1194.25L591.131 1195.25L591.131 1195.25L591.262 1194.25ZM576.165 1191.49L576.395 1190.51L576.395 1190.51L576.165 1191.49ZM561.582 1187.3L561.259 1188.25L561.261 1188.25L561.582 1187.3ZM510.073 1157.78L509.419 1158.53L509.419 1158.53L510.073 1157.78ZM494.421 1142.18L495.176 1141.52L495.13 1141.47L495.078 1141.42L494.421 1142.18ZM469.582 1116.87L468.814 1117.51L468.815 1117.51L469.582 1116.87ZM443.447 1078.23L442.566 1078.7L442.566 1078.7L443.447 1078.23ZM425.369 1035.05L424.414 1035.35L424.414 1035.35L425.369 1035.05ZM415.75 988.656L414.756 988.765L414.756 988.765L415.75 988.656ZM415.01 940.386L414.013 940.308L414.013 940.308L415.01 940.386ZM423.561 891.517L422.596 891.251L422.596 891.252L423.561 891.517ZM468.78 799.672L467.982 799.069L467.981 799.07L468.78 799.672ZM502.355 762.948L501.684 762.207L501.683 762.208L502.355 762.948ZM541.162 733.85L540.639 732.998L540.638 732.998L541.162 733.85ZM583.986 712.796L583.631 711.861L583.631 711.861L583.986 712.796ZM608.785 704.834L609.04 705.801L609.076 705.791L609.111 705.779L608.785 704.834ZM614.705 702.92L614.993 703.877L615.003 703.874L614.705 702.92ZM668.146 691.303L668.021 690.311L668.021 690.311L668.146 691.303ZM721.196 689.552L721.255 688.554L721.254 688.554L721.196 689.552ZM772.479 697.554L772.727 696.586L772.727 696.586L772.479 697.554ZM820.37 715.229L820.811 714.331L820.81 714.331L820.37 715.229ZM863.318 742.474L863.944 741.694L863.942 741.693L863.318 742.474ZM926.913 823.129L927.818 822.705L927.818 822.704L926.913 823.129ZM943.212 870.981L942.236 871.198L942.236 871.199L943.212 870.981ZM875.482 1164.64C868.577 1172.84 861.137 1180.81 853.461 1188.34L854.861 1189.77C862.58 1182.2 870.063 1174.18 877.011 1165.93L875.482 1164.64ZM853.461 1188.34C845.788 1195.86 837.325 1203.34 828.737 1210.22L829.988 1211.78C838.625 1204.86 847.139 1197.34 854.861 1189.77L853.461 1188.34ZM828.737 1210.22C820.149 1217.11 811.152 1223.64 801.982 1229.63L803.076 1231.31C812.302 1225.28 821.351 1218.71 829.988 1211.78L828.737 1210.22ZM801.982 1229.63C792.811 1235.62 783.538 1241.05 774.008 1246.05L774.937 1247.82C784.522 1242.79 793.851 1237.33 803.076 1231.31L801.982 1229.63ZM774.009 1246.05C755.259 1255.86 735.602 1263.86 715.308 1269.95L715.882 1271.87C736.298 1265.74 756.074 1257.69 774.936 1247.82L774.009 1246.05ZM715.307 1269.95C695.461 1275.91 675.09 1279.99 654.466 1282.14L654.673 1284.13C675.422 1281.97 695.917 1277.86 715.883 1271.87L715.307 1269.95ZM654.467 1282.14C641.606 1283.46 628.677 1284.02 615.748 1283.82L615.716 1285.82C628.724 1286.02 641.732 1285.46 654.672 1284.13L654.467 1282.14ZM615.677 1283.82C609.221 1284.18 602.782 1284.36 596.36 1284.36V1286.36C602.819 1286.36 609.295 1286.18 615.788 1285.82L615.677 1283.82ZM596.363 1284.36L593.157 1284.35L593.15 1286.35L596.357 1286.36L596.363 1284.36ZM593.162 1284.35C571.712 1284.17 550.33 1281.93 529.316 1277.66L528.918 1279.62C550.057 1283.91 571.567 1286.17 593.145 1286.35L593.162 1284.35ZM529.316 1277.66C508.618 1273.44 488.413 1267.13 469.02 1258.82L468.232 1260.66C487.75 1269.02 508.086 1275.38 528.917 1279.62L529.316 1277.66ZM469.021 1258.82C459.369 1254.67 449.95 1250 440.803 1244.85L439.821 1246.59C449.03 1251.78 458.513 1256.48 468.23 1260.66L469.021 1258.82ZM440.804 1244.85C431.622 1239.67 422.736 1233.99 414.186 1227.85L413.018 1229.47C421.628 1235.66 430.576 1241.38 439.821 1246.59L440.804 1244.85ZM414.186 1227.85C379.251 1202.7 350.557 1170 330.283 1132.24L328.521 1133.18C348.94 1171.22 377.837 1204.15 413.018 1229.47L414.186 1227.85ZM330.283 1132.24C325.32 1123 320.876 1113.49 316.969 1103.77L315.114 1104.51C319.047 1114.31 323.523 1123.88 328.521 1133.18L330.283 1132.24ZM316.97 1103.77C313.091 1094.08 309.741 1084.19 306.933 1074.14L305.007 1074.68C307.834 1084.8 311.207 1094.76 315.113 1104.51L316.97 1103.77ZM306.934 1074.14C301.334 1053.96 297.846 1033.26 296.526 1012.37L294.53 1012.49C295.859 1033.52 299.369 1054.36 305.006 1074.68L306.934 1074.14ZM296.526 1012.37C295.183 991.158 295.921 969.872 298.729 948.806L296.747 948.542C293.921 969.737 293.179 991.154 294.53 1012.49L296.526 1012.37ZM298.729 948.806C301.594 927.252 306.469 906.007 313.291 885.345L311.392 884.718C304.531 905.499 299.628 926.865 296.747 948.542L298.729 948.806ZM313.291 885.346C320.339 864.117 329.306 843.56 340.083 823.926L338.33 822.964C327.495 842.704 318.479 863.371 311.393 884.716L313.291 885.346ZM340.083 823.925C345.547 813.943 351.553 804.053 357.939 794.538L356.279 793.423C349.859 802.988 343.821 812.93 338.329 822.965L340.083 823.925ZM357.939 794.538C364.327 785.021 371.39 775.373 378.728 766.295L377.173 765.038C369.795 774.165 362.696 783.861 356.279 793.423L357.939 794.538ZM378.728 766.295C386.069 757.216 394.105 748.107 402.438 739.558L401.006 738.162C392.627 746.758 384.55 755.913 377.173 765.038L378.728 766.295ZM402.438 739.558C410.774 731.004 419.807 722.452 429.033 714.5L427.728 712.985C418.455 720.977 409.38 729.57 401.006 738.162L402.438 739.558ZM429.033 714.5C432.821 711.239 436.687 708.032 440.603 704.901L439.354 703.339C435.419 706.485 431.535 709.707 427.728 712.985L429.033 714.5ZM440.603 704.901C444.382 701.88 448.209 698.929 452.06 696.066L450.866 694.461C446.996 697.338 443.151 700.303 439.354 703.339L440.603 704.901ZM450.764 694.548C447.304 697.93 443.915 701.371 440.6 704.87L442.051 706.246C445.349 702.765 448.72 699.342 452.162 695.979L450.764 694.548ZM440.6 704.87C384.004 764.594 348.604 841.156 340.051 922.903L342.04 923.111C350.547 841.804 385.756 765.652 442.051 706.246L440.6 704.87ZM340.052 922.898C335.649 963.088 339.581 1003.75 351.607 1042.38L353.517 1041.78C341.572 1003.41 337.667 963.033 342.04 923.116L340.052 922.898ZM351.607 1042.38C363.633 1081.01 383.5 1116.79 409.987 1147.54L411.503 1146.24C385.193 1115.7 365.461 1080.15 353.517 1041.78L351.607 1042.38ZM409.998 1147.56C459.621 1203.33 528.727 1238.41 603.405 1245.74L603.6 1243.75C529.42 1236.47 460.779 1201.62 411.492 1146.23L409.998 1147.56ZM603.554 1245.74C667.899 1242.41 729.921 1220.83 782.242 1183.57L781.082 1181.94C729.072 1218.98 667.416 1240.43 603.451 1243.74L603.554 1245.74ZM782.242 1183.57C834.562 1146.31 874.977 1094.95 898.675 1035.58L896.818 1034.84C873.263 1093.85 833.091 1144.91 781.082 1181.94L782.242 1183.57ZM898.7 1035.52C923.799 956.456 913.154 871.606 862.819 807.758L861.248 808.996C911.114 872.25 921.723 956.387 896.793 1034.91L898.7 1035.52ZM862.818 807.757C814.725 746.816 739.085 716.036 659.686 717.752L659.73 719.751C738.598 718.047 813.6 748.619 861.248 808.996L862.818 807.757ZM659.499 717.774C617.727 726.709 578.741 745.478 545.837 772.495L547.106 774.041C579.762 747.227 618.457 728.598 659.917 719.73L659.499 717.774ZM545.837 772.495C512.933 799.512 487.079 833.981 470.462 872.989L472.302 873.773C488.792 835.062 514.45 800.854 547.106 774.041L545.837 772.495ZM470.462 872.989C453.846 911.998 446.955 954.397 450.374 996.601L452.367 996.44C448.975 954.559 455.812 912.484 472.302 873.773L470.462 872.989ZM450.374 996.601C453.792 1038.81 467.42 1079.57 490.102 1115.46L491.793 1114.39C469.283 1078.78 455.76 1038.32 452.367 996.44L450.374 996.601ZM490.183 1115.57C496.819 1123.44 504.222 1130.65 512.286 1137.09L513.534 1135.52C505.573 1129.17 498.263 1122.05 491.712 1114.28L490.183 1115.57ZM512.285 1137.08C539.902 1159.19 574.314 1171.28 609.816 1171.35L609.82 1169.35C574.769 1169.28 540.796 1157.34 513.535 1135.52L512.285 1137.08ZM609.816 1171.35C645.317 1171.42 679.777 1159.46 707.481 1137.46L706.238 1135.9C678.89 1157.61 644.87 1169.41 609.82 1169.35L609.816 1171.35ZM707.567 1137.39C732.457 1112.45 747.113 1079.24 748.691 1044.2L746.693 1044.11C745.137 1078.65 730.691 1111.39 706.152 1135.97L707.567 1137.39ZM748.691 1044.2C750.269 1009.16 738.656 974.794 716.106 947.759L714.57 949.04C736.801 975.693 748.248 1009.57 746.693 1044.11L748.691 1044.2ZM716.114 947.769C704.78 933.801 691.144 921.833 675.782 912.372L674.733 914.074C689.904 923.418 703.37 935.237 714.561 949.029L716.114 947.769ZM675.726 912.339C666.5 907.451 656.699 903.714 646.546 901.216L646.068 903.158C656.062 905.617 665.709 909.295 674.789 914.107L675.726 912.339ZM646.535 901.213C627.673 896.798 612.73 899.307 604.917 908.864L606.466 910.13C613.534 901.483 627.449 898.799 646.079 903.16L646.535 901.213ZM604.917 908.864C597.454 918.001 597.714 932.25 605.045 948.704L606.872 947.89C599.651 931.683 599.726 918.382 606.466 910.129L604.917 908.864ZM605.061 948.737C610.126 959.081 616.388 968.769 623.698 977.615L625.239 976.341C618.029 967.616 611.853 958.06 606.857 947.857L605.061 948.737ZM623.698 977.615C628.322 983.211 633.367 988.471 638.794 993.346L640.13 991.858C634.777 987.049 629.801 981.861 625.239 976.341L623.698 977.615ZM638.797 993.349L638.799 993.35L640.128 991.856L640.127 991.855L638.797 993.349ZM638.795 993.347C640.413 994.801 642.065 996.22 643.75 997.604L645.02 996.058C643.357 994.693 641.728 993.293 640.132 991.859L638.795 993.347ZM644.987 996.032C643.276 994.744 641.566 993.425 639.865 992.085L638.627 993.656C640.339 995.004 642.061 996.332 643.783 997.63L644.987 996.032ZM639.87 992.089C634.197 987.568 628.8 982.724 623.707 977.582L622.286 978.99C627.435 984.187 632.889 989.083 638.623 993.653L639.87 992.089ZM623.707 977.582C620.231 974.074 616.897 970.427 613.712 966.651L612.183 967.94C615.402 971.758 618.773 975.444 622.286 978.99L623.707 977.582ZM613.713 966.652C610.211 962.481 606.946 958.119 603.935 953.588L602.269 954.695C605.322 959.289 608.631 963.71 612.181 967.938L613.713 966.652ZM603.934 953.587C601.208 949.49 598.758 945.219 596.601 940.803L594.804 941.681C597 946.177 599.494 950.525 602.269 954.695L603.934 953.587ZM596.6 940.8C594.69 936.917 593.112 932.883 591.882 928.74L589.965 929.309C591.227 933.56 592.846 937.699 594.805 941.683L596.6 940.8ZM591.882 928.739C590.814 925.147 590.165 921.445 589.948 917.706L587.952 917.822C588.178 921.715 588.853 925.569 589.965 929.309L591.882 928.739ZM589.948 917.706C589.761 914.485 590.096 911.255 590.943 908.14L589.013 907.616C588.11 910.939 587.751 914.385 587.952 917.822L589.948 917.706ZM590.943 908.138C591.706 905.308 593.06 902.667 594.919 900.387L593.369 899.123C591.333 901.621 589.848 904.515 589.012 907.618L590.943 908.138ZM594.919 900.387C596.778 898.107 599.1 896.239 601.735 894.903L600.831 893.119C597.947 894.581 595.405 896.626 593.369 899.123L594.919 900.387ZM601.735 894.903C604.636 893.433 607.758 892.434 610.98 891.945L610.68 889.968C607.248 890.489 603.923 891.553 600.831 893.119L601.735 894.903ZM610.98 891.945C614.72 891.378 618.513 891.237 622.285 891.526L622.437 889.532C618.514 889.232 614.569 889.378 610.68 889.968L610.98 891.945ZM622.288 891.526C626.279 891.819 630.242 892.42 634.138 893.326L634.591 891.377C630.593 890.449 626.529 889.832 622.434 889.532L622.288 891.526ZM634.236 893.343C638.149 893.849 642.052 894.497 645.884 895.266L646.277 893.305C642.401 892.527 638.453 891.872 634.493 891.36L634.236 893.343ZM645.89 895.268C651.083 896.278 656.282 897.604 661.344 899.113L661.916 897.196C656.803 895.672 651.54 894.33 646.272 893.304L645.89 895.268ZM661.344 899.113C666.399 900.621 671.293 902.351 676.106 904.295L676.855 902.44C671.987 900.474 667.035 898.723 661.916 897.196L661.344 899.113ZM676.106 904.295C680.921 906.239 685.566 908.344 690.096 910.718L691.024 908.947C686.427 906.537 681.72 904.405 676.855 902.44L676.106 904.295ZM690.101 910.721C699.06 915.352 707.565 920.799 715.504 926.992L716.734 925.416C708.697 919.146 700.088 913.632 691.019 908.944L690.101 910.721ZM715.504 926.992C723.275 933.058 730.455 939.832 736.95 947.226L738.452 945.906C731.876 938.418 724.604 931.558 716.734 925.416L715.504 926.992ZM736.949 947.226C743.366 954.542 749.055 962.454 753.938 970.852L755.667 969.847C750.719 961.337 744.955 953.32 738.453 945.907L736.949 947.226ZM753.937 970.852C758.788 979.198 762.781 988.005 765.858 997.14L767.753 996.502C764.634 987.239 760.585 978.309 755.667 969.847L753.937 970.852ZM765.857 997.138C767.393 1001.73 768.687 1006.39 769.735 1011.11L771.687 1010.67C770.624 1005.89 769.311 1001.16 767.754 996.504L765.857 997.138ZM769.735 1011.11C776.23 1040.28 773.008 1070.74 760.552 1097.94L762.371 1098.77C775.008 1071.18 778.277 1040.27 771.687 1010.67L769.735 1011.11ZM760.552 1097.94C758.537 1102.34 756.292 1106.64 753.828 1110.81L755.55 1111.83C758.049 1107.6 760.326 1103.24 762.371 1098.77L760.552 1097.94ZM753.829 1110.81C748.899 1119.11 743.141 1126.9 736.642 1134.06L738.123 1135.41C744.712 1128.15 750.55 1120.25 755.549 1111.83L753.829 1110.81ZM736.641 1134.06C732.772 1138.34 728.658 1142.39 724.318 1146.2L725.637 1147.7C730.035 1143.85 734.204 1139.74 738.124 1135.41L736.641 1134.06ZM724.25 1146.27C712.012 1159.26 697.579 1170.04 681.599 1178.12L682.502 1179.91C698.688 1171.72 713.309 1160.8 725.706 1147.64L724.25 1146.27ZM681.599 1178.12C677.137 1180.38 672.505 1182.44 667.846 1184.19L668.548 1186.06C673.282 1184.28 677.981 1182.19 682.502 1179.91L681.599 1178.12ZM667.846 1184.19C663.166 1185.94 658.242 1187.63 653.369 1188.97L653.9 1190.9C658.851 1189.54 663.835 1187.83 668.548 1186.06L667.846 1184.19ZM653.367 1188.97C648.394 1190.35 643.353 1191.48 638.265 1192.35L638.604 1194.32C643.758 1193.44 648.863 1192.3 653.901 1190.9L653.367 1188.97ZM638.266 1192.35C627.886 1194.13 617.351 1194.86 606.822 1194.53L606.76 1196.53C617.422 1196.86 628.091 1196.12 638.603 1194.32L638.266 1192.35ZM606.823 1194.53C601.662 1194.36 596.512 1193.94 591.394 1193.26L591.131 1195.25C596.316 1195.93 601.532 1196.36 606.759 1196.53L606.823 1194.53ZM591.394 1193.26C586.37 1192.6 581.326 1191.68 576.395 1190.51L575.936 1192.46C580.933 1193.64 586.042 1194.57 591.131 1195.25L591.394 1193.26ZM576.395 1190.51C571.462 1189.35 566.642 1187.96 561.904 1186.35L561.261 1188.25C566.059 1189.88 570.941 1191.28 575.936 1192.46L576.395 1190.51ZM561.905 1186.35C543.096 1179.93 525.718 1169.97 510.727 1157.02L509.419 1158.53C524.605 1171.65 542.208 1181.74 561.259 1188.25L561.905 1186.35ZM510.727 1157.02C505.18 1152.22 499.983 1147.04 495.176 1141.52L493.667 1142.83C498.537 1148.43 503.801 1153.67 509.419 1158.53L510.727 1157.02ZM495.078 1141.42C486.181 1133.68 477.912 1125.25 470.348 1116.23L468.815 1117.51C476.446 1126.62 484.789 1135.12 493.765 1142.93L495.078 1141.42ZM470.349 1116.23C460.398 1104.3 451.68 1091.41 444.327 1077.76L442.566 1078.7C449.983 1092.48 458.776 1105.48 468.814 1117.51L470.349 1116.23ZM444.328 1077.76C436.945 1064.03 430.916 1049.63 426.325 1034.76L424.414 1035.35C429.043 1050.34 435.122 1064.86 442.566 1078.7L444.328 1077.76ZM426.325 1034.76C421.677 1019.68 418.469 1004.21 416.744 988.546L414.756 988.765C416.495 1004.56 419.728 1020.15 424.414 1035.35L426.325 1034.76ZM416.744 988.547C414.992 972.577 414.745 956.48 416.007 940.465L414.013 940.308C412.741 956.448 412.99 972.67 414.756 988.765L416.744 988.547ZM416.007 940.465C417.307 924.009 420.159 907.71 424.525 891.781L422.596 891.252C418.196 907.303 415.323 923.726 414.013 940.308L416.007 940.465ZM424.525 891.782C433.614 858.75 448.898 827.707 469.578 800.274L467.981 799.07C447.15 826.704 431.753 857.975 422.596 891.251L424.525 891.782ZM469.578 800.275C479.552 787.074 490.751 774.825 503.027 763.689L501.683 762.208C489.315 773.427 478.032 785.768 467.982 799.069L469.578 800.275ZM503.027 763.689C514.977 752.86 527.919 743.156 541.685 734.703L540.638 732.998C526.767 741.516 513.726 751.295 501.684 762.207L503.027 763.689ZM541.685 734.703C555.209 726.403 569.491 719.382 584.342 713.73L583.631 711.861C568.663 717.557 554.269 724.633 540.639 732.998L541.685 734.703ZM584.341 713.731C592.428 710.659 600.672 708.012 609.04 705.801L608.529 703.867C600.094 706.096 591.783 708.764 583.631 711.861L584.341 713.731ZM609.111 705.779C611.065 705.105 613.026 704.471 614.993 703.877L614.416 701.963C612.423 702.564 610.437 703.206 608.459 703.889L609.111 705.779ZM615.003 703.874C632.372 698.437 650.199 694.561 668.27 692.295L668.021 690.311C649.832 692.592 631.888 696.492 614.406 701.966L615.003 703.874ZM668.27 692.295C685.8 690.101 703.498 689.517 721.137 690.55L721.254 688.554C703.493 687.513 685.673 688.101 668.021 690.311L668.27 692.295ZM721.137 690.55C738.389 691.565 755.5 694.235 772.23 698.523L772.727 696.586C755.872 692.266 738.634 689.576 721.255 688.554L721.137 690.55ZM772.23 698.523C788.698 702.752 804.683 708.651 819.93 716.127L820.81 714.331C805.44 706.795 789.328 700.849 772.727 696.586L772.23 698.523ZM819.929 716.127C835.14 723.598 849.48 732.695 862.694 743.255L863.942 741.693C850.615 731.041 836.152 721.866 820.811 714.331L819.929 716.127ZM862.692 743.254C889.69 764.902 911.344 792.366 926.008 823.555L927.818 822.704C913.024 791.238 891.178 763.531 863.944 741.694L862.692 743.254ZM926.007 823.554C933.153 838.802 938.595 854.778 942.236 871.198L944.189 870.765C940.516 854.202 935.027 838.086 927.818 822.705L926.007 823.554ZM942.236 871.199C944.936 883.319 946.695 895.627 947.497 908.014L949.493 907.884C948.684 895.395 946.911 882.985 944.188 870.764L942.236 871.199Z" fill="white" mask="url(#path-4-inside-2_15524_348)"/>
<path d="M1068.77 476.257C1040.96 472.228 1021.72 446.628 1025.78 419.087C1029.85 391.545 1055.68 372.476 1083.49 376.506C1111.31 380.535 1130.55 406.135 1126.48 433.676C1122.42 461.217 1096.58 480.286 1068.77 476.257ZM1067.3 405.428C1068.73 403.859 1069.66 401.906 1069.96 399.815C1070.38 397.01 1069.65 394.159 1067.94 391.887C1066.24 389.616 1063.69 388.111 1060.86 387.701C1058.75 387.396 1056.6 387.716 1054.68 388.623C1052.75 389.53 1051.14 390.982 1050.05 392.797C1048.95 394.611 1048.43 396.707 1048.54 398.817C1048.65 400.928 1049.39 402.958 1050.66 404.652C1051.93 406.346 1053.68 407.627 1055.69 408.334C1057.7 409.041 1059.87 409.143 1061.94 408.626C1064 408.108 1065.87 406.996 1067.3 405.428Z" fill="white" stroke="white"/>
<path d="M1026.75 419.226C1022.76 446.253 1041.64 471.359 1068.91 475.31C1096.18 479.261 1121.53 460.563 1125.52 433.536C1129.51 406.51 1110.62 381.404 1083.35 377.453C1056.08 373.502 1030.74 392.2 1026.75 419.226ZM1070.93 399.955C1070.59 402.231 1069.58 404.358 1068.03 406.067C1066.47 407.776 1064.44 408.989 1062.18 409.553C1059.93 410.118 1057.56 410.007 1055.36 409.235C1053.17 408.464 1051.26 407.066 1049.87 405.22C1048.49 403.373 1047.68 401.161 1047.56 398.863C1047.45 396.565 1048.02 394.284 1049.21 392.308C1050.4 390.331 1052.15 388.748 1054.25 387.76C1056.35 386.771 1058.7 386.421 1061 386.754C1064.09 387.201 1066.87 388.844 1068.73 391.32C1070.59 393.796 1071.38 396.902 1070.93 399.955ZM1068.77 476.257C1040.96 472.228 1021.72 446.628 1025.78 419.087C1029.85 391.545 1055.68 372.476 1083.49 376.506C1111.31 380.535 1130.55 406.135 1126.48 433.676C1122.42 461.217 1096.58 480.286 1068.77 476.257ZM1067.3 405.428C1068.73 403.859 1069.66 401.906 1069.96 399.815C1070.38 397.01 1069.65 394.159 1067.94 391.887C1066.24 389.616 1063.69 388.111 1060.86 387.701C1058.75 387.396 1056.6 387.716 1054.68 388.623C1052.75 389.53 1051.14 390.982 1050.05 392.797C1048.95 394.611 1048.43 396.707 1048.54 398.817C1048.65 400.928 1049.39 402.958 1050.66 404.652C1051.93 406.346 1053.68 407.627 1055.69 408.334C1057.7 409.041 1059.87 409.143 1061.94 408.626C1064 408.108 1065.87 406.996 1067.3 405.428Z" fill="white" stroke="white"/>
</g>
<defs>
<filter id="filter0_di_15524_348" x="33.6475" y="50.9624" width="1296.98" height="1264.39" filterUnits="userSpaceOnUse" color-interpolation-filters="sRGB">
<feFlood flood-opacity="0" result="BackgroundImageFix"/>
<feColorMatrix in="SourceAlpha" type="matrix" values="0 0 0 0 0 0 0 0 0 0 0 0 0 0 0 0 0 0 127 0" result="hardAlpha"/>
<feOffset dy="4"/>
<feGaussianBlur stdDeviation="2"/>
<feComposite in2="hardAlpha" operator="out"/>
<feColorMatrix type="matrix" values="0 0 0 0 0 0 0 0 0 0 0 0 0 0 0 0 0 0 0.25 0"/>
<feBlend mode="normal" in2="BackgroundImageFix" result="effect1_dropShadow_15524_348"/>
<feBlend mode="normal" in="SourceGraphic" in2="effect1_dropShadow_15524_348" result="shape"/>
<feColorMatrix in="SourceAlpha" type="matrix" values="0 0 0 0 0 0 0 0 0 0 0 0 0 0 0 0 0 0 127 0" result="hardAlpha"/>
<feOffset dx="76" dy="76"/>
<feGaussianBlur stdDeviation="15"/>
<feComposite in2="hardAlpha" operator="arithmetic" k2="-1" k3="1"/>
<feColorMatrix type="matrix" values="0 0 0 0 0 0 0 0 0 0 0 0 0 0 0 0 0 0 0.25 0"/>
<feBlend mode="normal" in2="shape" result="effect2_innerShadow_15524_348"/>
</filter>
</defs>
</svg>
