<svg width="36" height="37" viewBox="0 0 36 37" fill="none" xmlns="http://www.w3.org/2000/svg">
<path d="M32.7863 2.90137H3.21491C2.50375 2.90137 1.9292 3.47592 1.9292 4.18708V33.7585C1.9292 34.4697 2.50375 35.0442 3.21491 35.0442H32.7863C33.4975 35.0442 34.0721 34.4697 34.0721 33.7585V4.18708C34.0721 3.47592 33.4975 2.90137 32.7863 2.90137ZM31.5006 32.4728H24.1038V22.5969H28.2823L28.9091 17.7474H24.1038V14.6496C24.1038 13.2433 24.4935 12.2871 26.5064 12.2871H29.0738V7.9478C28.6279 7.88753 27.1051 7.75494 25.3292 7.75494C21.6247 7.75494 19.0895 10.017 19.0895 14.1674V17.7433H14.9029V22.5929H19.0935V32.4728H4.50063V5.4728H31.5006V32.4728Z" fill="#1C252E"/>
</svg>
