<svg width="90" height="90" viewBox="0 0 90 90" fill="none" xmlns="http://www.w3.org/2000/svg">
<path d="M27.1567 48.7712C28.4791 48.8374 29.8015 49.1147 31.1328 49.3938C31.5402 49.4793 31.9484 49.5649 32.3577 49.6446C33.0534 49.7803 33.3446 50.3009 33.1571 50.9597C32.9696 51.6184 32.4958 51.7813 31.8544 51.6554C30.5319 51.3915 29.207 51.1373 27.8772 50.9153C26.4856 50.6685 25.331 51.0633 25.0201 51.838C24.7092 52.6127 25.3384 53.7205 26.4659 54.4804C27.5934 55.2404 28.9085 55.608 30.2531 55.8004C30.976 55.904 31.5213 56.1483 31.4867 56.9724C31.4645 57.6484 30.8823 57.9765 29.9546 57.8359C28.4917 57.6499 27.0771 57.1895 25.7849 56.4789C25.2152 56.1735 24.7 55.7758 24.2602 55.302C23.1598 54.0388 22.3802 52.6497 23.1475 50.9498C23.9148 49.2499 25.3877 48.7712 27.1567 48.7712Z" fill="#CC3366"/>
<path d="M27.1567 48.7712C28.4791 48.8374 29.8015 49.1147 31.1328 49.3938C31.5402 49.4793 31.9484 49.5649 32.3577 49.6446C33.0534 49.7803 33.3446 50.3009 33.1571 50.9597C32.9696 51.6184 32.4958 51.7813 31.8544 51.6554C30.5319 51.3915 29.207 51.1373 27.8772 50.9153C26.4856 50.6685 25.331 51.0633 25.0201 51.838C24.7092 52.6127 25.3384 53.7205 26.4659 54.4804C27.5934 55.2404 28.9085 55.608 30.2531 55.8004C30.976 55.904 31.5213 56.1483 31.4867 56.9724C31.4645 57.6484 30.8823 57.9765 29.9546 57.8359C28.4917 57.6499 27.0771 57.1895 25.7849 56.4789C25.2152 56.1735 24.7 55.7758 24.2602 55.302C23.1598 54.0388 22.3802 52.6497 23.1475 50.9498C23.9148 49.2499 25.3877 48.7712 27.1567 48.7712Z" stroke="#FFFCF5"/>
<path d="M72.6696 28.6854C67.8733 7.28696 44.7331 -5.21455 24.2253 2.51285C7.98103 8.63408 -1.90521 24.9203 0.727336 42.0504C2.96759 56.6318 11.413 66.4366 25.2024 71.6277C26.2376 72.0161 27.3248 72.2792 28.4062 72.5409C28.6985 72.6116 28.9904 72.6823 29.2807 72.7552C29.9444 72.923 30.6229 72.9156 30.8178 72.0545C31.0127 71.1935 30.4724 70.8999 29.7569 70.7592C29.4855 70.7074 29.2166 70.6433 28.9477 70.5791C25.2741 69.7068 21.7718 68.2275 18.5852 66.2022C20.7194 65.3979 22.7425 65.4102 24.7533 66.2738C25.9538 66.8201 27.1211 67.4363 28.2494 68.1193C28.849 68.4622 29.4189 68.403 29.7692 67.7985C30.1196 67.1941 29.9 66.671 29.2758 66.3355C28.9522 66.1588 28.6304 65.9779 28.3085 65.797C27.5066 65.3462 26.7045 64.8953 25.8735 64.5097C22.9991 63.1774 20.0878 63.2613 17.2208 64.5344C16.6929 64.7688 16.377 64.7466 15.928 64.3962C8.62251 58.6401 4.25056 51.1669 2.74307 42.0035C2.53336 40.7255 2.52842 40.6638 3.78425 40.3184C7.90454 39.1909 10.1053 36.4177 10.7715 32.3048C11.0037 30.8726 11.0652 29.4267 11.1267 27.9804C11.1476 27.4907 11.1684 27.001 11.1958 26.5117C11.3044 24.5774 11.5561 22.7196 12.5849 21.0344C14.4378 17.9997 17.3837 17.5803 20.0113 19.9686C21.4719 21.2984 22.217 23.0403 22.8067 24.8685C23.031 25.5647 23.2338 26.2667 23.4364 26.9683C23.88 28.5043 24.3229 30.0379 24.9902 31.5029C26.3003 34.3773 28.358 36.3708 31.4642 37.1949C32.2866 37.4153 33.1091 37.6562 33.9315 37.9178C37.2845 38.9836 39.5938 41.1375 40.7312 44.4979C40.7751 44.6455 40.8296 44.7898 40.894 44.9297C40.9905 45.161 41.1731 45.3458 41.4034 45.4448C41.6337 45.5438 41.8934 45.5493 42.1277 45.4601C42.3548 45.401 42.5511 45.2578 42.6766 45.0594C42.8021 44.8611 42.8475 44.6224 42.8037 44.3918C42.7715 44.1482 42.7093 43.9096 42.6186 43.6812C41.274 39.9088 38.7105 37.3577 34.9184 36.0673C34.1795 35.8158 33.4283 35.6001 32.677 35.3844C32.367 35.2955 32.0571 35.2065 31.748 35.115C30.76 34.8297 29.8439 34.3379 29.06 33.6723C28.2762 33.0067 27.6425 32.1824 27.2008 31.2537C26.7763 30.437 26.423 29.5851 26.1449 28.7076C25.9693 28.1367 25.7982 27.5645 25.6272 26.9925C25.2623 25.7722 24.8975 24.5523 24.4893 23.3462C23.6727 20.9333 22.3576 18.8559 20.1618 17.4421C17.4182 15.6781 14.2404 16.0457 12.0322 18.3945C10.4828 20.0401 9.7007 22.0435 9.35775 24.2517C9.15886 25.5372 9.10296 26.8335 9.04705 28.1301C8.99962 29.23 8.95218 30.3301 8.81742 31.424C8.38319 34.8584 6.84363 37.3676 3.28833 38.3323C2.54816 38.5346 2.35572 38.4778 2.34585 37.6809C2.27037 32.9367 3.14882 28.2256 4.92905 23.8274C10.6703 9.51735 25.9944 0.558794 41.1975 2.60907C41.6243 2.66829 41.9056 2.71763 42.0364 3.23082C42.6701 5.81191 44.0357 8.15509 45.9692 9.97872C46.3324 10.3114 46.6629 10.6783 46.956 11.0742C47.6321 12.0167 47.521 12.7223 46.6279 13.4797C46.1074 13.9265 45.4837 14.1711 44.8668 14.4129C44.8023 14.4382 44.738 14.4634 44.6738 14.4888C41.989 15.5453 39.7356 17.4712 38.2738 19.9587C37.166 21.8462 36.4777 23.857 36.6677 26.0947C36.8724 28.4658 38.5822 30.0251 40.9607 30.0103C42.2609 30.0103 43.4279 29.539 44.5308 28.9173C46.5146 27.7871 48.7272 27.1176 51.0048 26.9583C52.3234 26.8648 53.6419 26.8541 54.9605 26.8435C55.7637 26.837 56.567 26.8305 57.3703 26.8053C61.3425 26.6844 65.0409 25.7888 68.0559 22.9984C68.4679 22.6135 68.5839 22.8207 68.7319 23.2031C69.0308 23.9832 69.3378 24.7605 69.6598 25.5759C69.7737 25.8644 69.8895 26.1576 70.0075 26.4574C68.162 26.6721 66.5237 27.2173 65.1273 28.3597C61.794 31.0934 61.0637 34.8609 60.9626 38.8677C60.9575 38.9933 60.9782 39.1186 61.0232 39.236C61.0682 39.3534 61.1366 39.4604 61.2244 39.5504C61.3121 39.6405 61.4173 39.7117 61.5335 39.7597C61.6497 39.8078 61.7744 39.8317 61.9001 39.8299C62.133 39.8674 62.3713 39.8126 62.5644 39.6772C62.7574 39.5417 62.89 39.3362 62.9339 39.1045C63.0289 38.6539 63.0834 38.1956 63.0967 37.7352C63.1124 36.7207 63.2365 35.7108 63.4668 34.7227C64.3279 31.2932 66.7236 28.9641 69.783 28.5546C70.2764 28.4855 70.6046 28.5274 70.6761 29.1319C70.7189 29.4935 70.7988 29.8524 70.8788 30.2118C70.9325 30.4533 70.9863 30.695 71.0289 30.9379C71.4593 33.3628 71.6247 35.8272 71.5224 38.2879C71.4977 38.8158 71.5865 39.2945 72.1268 39.5215C72.296 39.5985 72.4835 39.6261 72.6677 39.6012C72.8519 39.5763 73.0253 39.5 73.168 39.3808C73.5406 39.07 73.5776 38.6407 73.5924 38.2114C73.6875 35.0098 73.3775 31.8091 72.6696 28.6854ZM66.9432 21.1973C64.6536 23.3586 61.9051 24.3825 58.8013 24.6292C57.4814 24.7342 56.1589 24.7474 54.8365 24.7605C53.3012 24.7757 51.766 24.7909 50.235 24.9499C48.1503 25.1262 46.1227 25.722 44.2742 26.7017C43.4156 27.1729 42.5471 27.6442 41.5824 27.8638C39.9244 28.2388 38.7574 27.3999 38.6933 25.7C38.5896 22.9317 39.8997 20.7482 41.7255 18.8238C42.8084 17.7269 44.1154 16.8769 45.5571 16.3319C46.3943 16.0294 47.1823 15.6055 47.8961 15.0736C49.6231 13.6845 49.9118 11.7379 48.656 9.93185C48.4016 9.54676 48.1036 9.19241 47.7678 8.87587C46.058 7.34371 44.8934 5.46614 44.1113 3.18887C45.2519 3.22494 46.2937 3.57612 47.3213 3.92252C47.4184 3.95526 47.5154 3.98795 47.6123 4.02033C56.1556 6.88398 62.6699 12.2297 67.1554 20.0574C67.4539 20.5755 67.3207 20.8395 66.9432 21.1973Z" fill="#CC3366"/>
<path d="M72.6696 28.6854C67.8733 7.28696 44.7331 -5.21455 24.2253 2.51285C7.98103 8.63408 -1.90521 24.9203 0.727336 42.0504C2.96759 56.6318 11.413 66.4366 25.2024 71.6277C26.2376 72.0161 27.3248 72.2792 28.4062 72.5409C28.6985 72.6116 28.9904 72.6823 29.2807 72.7552C29.9444 72.923 30.6229 72.9156 30.8178 72.0545C31.0127 71.1935 30.4724 70.8999 29.7569 70.7592C29.4855 70.7074 29.2166 70.6433 28.9477 70.5791C25.2741 69.7068 21.7718 68.2275 18.5852 66.2022C20.7194 65.3979 22.7425 65.4102 24.7533 66.2738C25.9538 66.8201 27.1211 67.4363 28.2494 68.1193C28.849 68.4622 29.4189 68.403 29.7692 67.7985C30.1196 67.1941 29.9 66.671 29.2758 66.3355C28.9522 66.1588 28.6304 65.9779 28.3085 65.797C27.5066 65.3462 26.7045 64.8953 25.8735 64.5097C22.9991 63.1774 20.0878 63.2613 17.2208 64.5344C16.6929 64.7688 16.377 64.7466 15.928 64.3962C8.62251 58.6401 4.25056 51.1669 2.74307 42.0035C2.53336 40.7255 2.52842 40.6638 3.78425 40.3184C7.90454 39.1909 10.1053 36.4177 10.7715 32.3048C11.0037 30.8726 11.0652 29.4267 11.1267 27.9804C11.1476 27.4907 11.1684 27.001 11.1958 26.5117C11.3044 24.5774 11.5561 22.7196 12.5849 21.0344C14.4378 17.9997 17.3837 17.5803 20.0113 19.9686C21.4719 21.2984 22.217 23.0403 22.8067 24.8685C23.031 25.5647 23.2338 26.2667 23.4364 26.9683C23.88 28.5043 24.3229 30.0379 24.9902 31.5029C26.3003 34.3773 28.358 36.3708 31.4642 37.1949C32.2866 37.4153 33.1091 37.6562 33.9315 37.9178C37.2845 38.9836 39.5938 41.1375 40.7312 44.4979C40.7751 44.6455 40.8296 44.7898 40.894 44.9297C40.9905 45.161 41.1731 45.3458 41.4034 45.4448C41.6337 45.5438 41.8934 45.5493 42.1277 45.4601C42.3548 45.401 42.5511 45.2578 42.6766 45.0594C42.8021 44.8611 42.8475 44.6224 42.8037 44.3918C42.7715 44.1482 42.7093 43.9096 42.6186 43.6812C41.274 39.9088 38.7105 37.3577 34.9184 36.0673C34.1795 35.8158 33.4283 35.6001 32.677 35.3844C32.367 35.2955 32.0571 35.2065 31.748 35.115C30.76 34.8297 29.8439 34.3379 29.06 33.6723C28.2762 33.0067 27.6425 32.1824 27.2008 31.2537C26.7763 30.437 26.423 29.5851 26.1449 28.7076C25.9693 28.1367 25.7982 27.5645 25.6272 26.9925C25.2623 25.7722 24.8975 24.5523 24.4893 23.3462C23.6727 20.9333 22.3576 18.8559 20.1618 17.4421C17.4182 15.6781 14.2404 16.0457 12.0322 18.3945C10.4828 20.0401 9.7007 22.0435 9.35775 24.2517C9.15886 25.5372 9.10296 26.8335 9.04705 28.1301C8.99962 29.23 8.95218 30.3301 8.81742 31.424C8.38319 34.8584 6.84363 37.3676 3.28833 38.3323C2.54816 38.5346 2.35572 38.4778 2.34585 37.6809C2.27037 32.9367 3.14882 28.2256 4.92905 23.8274C10.6703 9.51735 25.9944 0.558794 41.1975 2.60907C41.6243 2.66829 41.9056 2.71763 42.0364 3.23082C42.6701 5.81191 44.0357 8.15509 45.9692 9.97872C46.3324 10.3114 46.6629 10.6783 46.956 11.0742C47.6321 12.0167 47.521 12.7223 46.6279 13.4797C46.1074 13.9265 45.4837 14.1711 44.8668 14.4129C44.8023 14.4382 44.738 14.4634 44.6738 14.4888C41.989 15.5453 39.7356 17.4712 38.2738 19.9587C37.166 21.8462 36.4777 23.857 36.6677 26.0947C36.8724 28.4658 38.5822 30.0251 40.9607 30.0103C42.2609 30.0103 43.4279 29.539 44.5308 28.9173C46.5146 27.7871 48.7272 27.1176 51.0048 26.9583C52.3234 26.8648 53.6419 26.8541 54.9605 26.8435C55.7637 26.837 56.567 26.8305 57.3703 26.8053C61.3425 26.6844 65.0409 25.7888 68.0559 22.9984C68.4679 22.6135 68.5839 22.8207 68.7319 23.2031C69.0308 23.9832 69.3378 24.7605 69.6598 25.5759C69.7737 25.8644 69.8895 26.1576 70.0075 26.4574C68.162 26.6721 66.5237 27.2173 65.1273 28.3597C61.794 31.0934 61.0637 34.8609 60.9626 38.8677C60.9575 38.9933 60.9782 39.1186 61.0232 39.236C61.0682 39.3534 61.1366 39.4604 61.2244 39.5504C61.3121 39.6405 61.4173 39.7117 61.5335 39.7597C61.6497 39.8078 61.7744 39.8317 61.9001 39.8299C62.133 39.8674 62.3713 39.8126 62.5644 39.6772C62.7574 39.5417 62.89 39.3362 62.9339 39.1045C63.0289 38.6539 63.0834 38.1956 63.0967 37.7352C63.1124 36.7207 63.2365 35.7108 63.4668 34.7227C64.3279 31.2932 66.7236 28.9641 69.783 28.5546C70.2764 28.4855 70.6046 28.5274 70.6761 29.1319C70.7189 29.4935 70.7988 29.8524 70.8788 30.2118C70.9325 30.4533 70.9863 30.695 71.0289 30.9379C71.4593 33.3628 71.6247 35.8272 71.5224 38.2879C71.4977 38.8158 71.5865 39.2945 72.1268 39.5215C72.296 39.5985 72.4835 39.6261 72.6677 39.6012C72.8519 39.5763 73.0253 39.5 73.168 39.3808C73.5406 39.07 73.5776 38.6407 73.5924 38.2114C73.6875 35.0098 73.3775 31.8091 72.6696 28.6854ZM66.9432 21.1973C64.6536 23.3586 61.9051 24.3825 58.8013 24.6292C57.4814 24.7342 56.1589 24.7474 54.8365 24.7605C53.3012 24.7757 51.766 24.7909 50.235 24.9499C48.1503 25.1262 46.1227 25.722 44.2742 26.7017C43.4156 27.1729 42.5471 27.6442 41.5824 27.8638C39.9244 28.2388 38.7574 27.3999 38.6933 25.7C38.5896 22.9317 39.8997 20.7482 41.7255 18.8238C42.8084 17.7269 44.1154 16.8769 45.5571 16.3319C46.3943 16.0294 47.1823 15.6055 47.8961 15.0736C49.6231 13.6845 49.9118 11.7379 48.656 9.93185C48.4016 9.54676 48.1036 9.19241 47.7678 8.87587C46.058 7.34371 44.8934 5.46614 44.1113 3.18887C45.2519 3.22494 46.2937 3.57612 47.3213 3.92252C47.4184 3.95526 47.5154 3.98795 47.6123 4.02033C56.1556 6.88398 62.6699 12.2297 67.1554 20.0574C67.4539 20.5755 67.3207 20.8395 66.9432 21.1973Z" stroke="#FFFCF5"/>
<path d="M82.9231 51.1544H73.1429C72.554 51.1544 72.2561 51.1544 72.1054 51.0055C71.9513 50.8531 71.9513 50.5447 71.9513 49.9208C71.9513 49.5612 71.9529 49.2019 71.9546 48.8428C71.9578 48.1251 71.9611 47.4081 71.9513 46.6912C71.9044 44.483 70.2933 42.7066 68.0826 42.6671C63.9919 42.5931 59.9012 42.5931 55.8106 42.6671C53.6345 42.709 52.0505 44.4484 51.9863 46.627C51.9518 47.8236 51.937 49.0276 51.9863 50.2242C52.0184 50.9299 51.8432 51.1667 51.0858 51.1569C48.2757 51.1196 45.4639 51.1275 42.6517 51.1354C42.1109 51.1369 41.5701 51.1384 41.0293 51.1396C36.835 51.1396 34.2321 53.7253 34.2271 57.9072C34.2173 66.0919 34.2173 74.2749 34.2271 82.4563C34.2105 83.0708 34.2651 83.6851 34.39 84.287C35.0956 87.2773 37.5974 89.1968 40.8048 89.2017C47.8496 89.2165 54.8936 89.2165 61.9367 89.2017H82.8861C87.0458 89.2017 89.6932 86.5642 89.6957 82.4143V57.9566C89.6833 53.7647 87.1001 51.1643 82.9231 51.1544ZM54.0292 46.8466C54.0514 45.5217 54.8261 44.7124 56.1609 44.7026C60.0049 44.6779 63.8497 44.6779 67.6953 44.7026C69.0671 44.7026 69.8689 45.5291 69.896 46.8885C69.9072 47.43 69.9042 47.9716 69.9013 48.5131C69.8977 49.1706 69.8941 49.8282 69.9158 50.4858C69.9331 51.0261 69.7406 51.1544 69.2324 51.1495C67.6122 51.1347 65.992 51.1396 64.3719 51.1445C63.5618 51.147 62.7517 51.1495 61.9417 51.1495C61.2846 51.1495 60.632 51.1482 59.9822 51.1469C58.2285 51.1435 56.4945 51.1402 54.7447 51.1618C54.1945 51.1618 53.9848 51.0483 54.0045 50.4562C54.0349 49.7479 54.0305 49.0421 54.0262 48.3379C54.0231 47.8402 54.02 47.3432 54.0292 46.8466ZM77.8184 70.125C78.1292 70.9663 78.8053 70.8874 79.506 70.6185C81.4041 69.9178 83.3071 69.2319 85.2151 68.5608C86.0975 68.2261 86.9161 67.743 87.6355 67.1323C87.6355 68.7248 87.6394 70.3025 87.6434 71.8694C87.6529 75.7087 87.6624 79.4841 87.6133 83.2581C87.5886 85.3134 85.7801 86.959 83.6164 87.149C83.4076 87.1678 83.1989 87.1671 82.9901 87.1665C82.9521 87.1664 82.9142 87.1663 82.8762 87.1663H40.98C38.6386 87.1663 37.0052 86.0338 36.4427 84.0181C36.3399 83.6334 36.2884 83.2369 36.2897 82.8387C36.2799 77.794 36.2799 72.7485 36.2897 67.7022C36.2897 67.6115 36.2969 67.5208 36.306 67.4062C36.311 67.3432 36.3166 67.2729 36.3218 67.1915C37.931 68.3769 39.7394 68.9755 41.5363 69.5702C42.3237 69.8308 43.1088 70.0907 43.874 70.3989C44.518 70.6579 45.0657 70.4507 45.2952 69.7969C45.5246 69.1431 45.1743 68.6792 44.5353 68.4498L39.6008 66.6807C37.4181 65.9011 36.3185 64.3426 36.3021 62.0053C36.3021 61.4931 36.2996 60.9805 36.2971 60.4679C36.2922 59.4423 36.2873 58.4164 36.3021 57.3916C36.3005 56.8439 36.407 56.3012 36.6156 55.7948C36.8243 55.2883 37.1309 54.8281 37.5178 54.4405C37.9048 54.0528 38.3645 53.7454 38.8705 53.5359C39.3766 53.3263 39.9191 53.2188 40.4668 53.2195C54.8015 53.2047 69.1353 53.2047 83.4683 53.2195C84.0172 53.2198 84.5605 53.3285 85.0672 53.5392C85.574 53.75 86.0341 54.0587 86.4212 54.4477C86.8084 54.8367 87.1149 55.2983 87.3233 55.806C87.5317 56.3137 87.6378 56.8576 87.6355 57.4064C87.6651 59.0372 87.6774 60.6681 87.6355 62.2965C87.5837 64.3443 86.5943 65.8049 84.6748 66.5475C82.8637 67.2482 80.9911 67.9138 79.1357 68.5732C79.0247 68.6127 78.9137 68.6521 78.8028 68.6915C78.0996 68.9358 77.4976 69.2615 77.8184 70.125Z" fill="#CC3366"/>
<path d="M82.9231 51.1544H73.1429C72.554 51.1544 72.2561 51.1544 72.1054 51.0055C71.9513 50.8531 71.9513 50.5447 71.9513 49.9208C71.9513 49.5612 71.9529 49.2019 71.9546 48.8428C71.9578 48.1251 71.9611 47.4081 71.9513 46.6912C71.9044 44.483 70.2933 42.7066 68.0826 42.6671C63.9919 42.5931 59.9012 42.5931 55.8106 42.6671C53.6345 42.709 52.0505 44.4484 51.9863 46.627C51.9518 47.8236 51.937 49.0276 51.9863 50.2242C52.0184 50.9299 51.8432 51.1667 51.0858 51.1569C48.2757 51.1196 45.4639 51.1275 42.6517 51.1354C42.1109 51.1369 41.5701 51.1384 41.0293 51.1396C36.835 51.1396 34.2321 53.7253 34.2271 57.9072C34.2173 66.0919 34.2173 74.2749 34.2271 82.4563C34.2105 83.0708 34.2651 83.6851 34.39 84.287C35.0956 87.2773 37.5974 89.1968 40.8048 89.2017C47.8496 89.2165 54.8936 89.2165 61.9367 89.2017H82.8861C87.0458 89.2017 89.6932 86.5642 89.6957 82.4143V57.9566C89.6833 53.7647 87.1001 51.1643 82.9231 51.1544ZM54.0292 46.8466C54.0514 45.5217 54.8261 44.7124 56.1609 44.7026C60.0049 44.6779 63.8497 44.6779 67.6953 44.7026C69.0671 44.7026 69.8689 45.5291 69.896 46.8885C69.9072 47.43 69.9042 47.9716 69.9013 48.5131C69.8977 49.1706 69.8941 49.8282 69.9158 50.4858C69.9331 51.0261 69.7406 51.1544 69.2324 51.1495C67.6122 51.1347 65.992 51.1396 64.3719 51.1445C63.5618 51.147 62.7517 51.1495 61.9417 51.1495C61.2846 51.1495 60.632 51.1482 59.9822 51.1469C58.2285 51.1435 56.4945 51.1402 54.7447 51.1618C54.1945 51.1618 53.9848 51.0483 54.0045 50.4562C54.0349 49.7479 54.0305 49.0421 54.0262 48.3379C54.0231 47.8402 54.02 47.3432 54.0292 46.8466ZM77.8184 70.125C78.1292 70.9663 78.8053 70.8874 79.506 70.6185C81.4041 69.9178 83.3071 69.2319 85.2151 68.5608C86.0975 68.2261 86.9161 67.743 87.6355 67.1323C87.6355 68.7248 87.6394 70.3025 87.6434 71.8694C87.6529 75.7087 87.6624 79.4841 87.6133 83.2581C87.5886 85.3134 85.7801 86.959 83.6164 87.149C83.4076 87.1678 83.1989 87.1671 82.9901 87.1665C82.9521 87.1664 82.9142 87.1663 82.8762 87.1663H40.98C38.6386 87.1663 37.0052 86.0338 36.4427 84.0181C36.3399 83.6334 36.2884 83.2369 36.2897 82.8387C36.2799 77.794 36.2799 72.7485 36.2897 67.7022C36.2897 67.6115 36.2969 67.5208 36.306 67.4062C36.311 67.3432 36.3166 67.2729 36.3218 67.1915C37.931 68.3769 39.7394 68.9755 41.5363 69.5702C42.3237 69.8308 43.1088 70.0907 43.874 70.3989C44.518 70.6579 45.0657 70.4507 45.2952 69.7969C45.5246 69.1431 45.1743 68.6792 44.5353 68.4498L39.6008 66.6807C37.4181 65.9011 36.3185 64.3426 36.3021 62.0053C36.3021 61.4931 36.2996 60.9805 36.2971 60.4679C36.2922 59.4423 36.2873 58.4164 36.3021 57.3916C36.3005 56.8439 36.407 56.3012 36.6156 55.7948C36.8243 55.2883 37.1309 54.8281 37.5178 54.4405C37.9048 54.0528 38.3645 53.7454 38.8705 53.5359C39.3766 53.3263 39.9191 53.2188 40.4668 53.2195C54.8015 53.2047 69.1353 53.2047 83.4683 53.2195C84.0172 53.2198 84.5605 53.3285 85.0672 53.5392C85.574 53.75 86.0341 54.0587 86.4212 54.4477C86.8084 54.8367 87.1149 55.2983 87.3233 55.806C87.5317 56.3137 87.6378 56.8576 87.6355 57.4064C87.6651 59.0372 87.6774 60.6681 87.6355 62.2965C87.5837 64.3443 86.5943 65.8049 84.6748 66.5475C82.8637 67.2482 80.9911 67.9138 79.1357 68.5732C79.0247 68.6127 78.9137 68.6521 78.8028 68.6915C78.0996 68.9358 77.4976 69.2615 77.8184 70.125Z" stroke="#FFFCF5"/>
<path d="M31.2663 19.9045C30.7087 18.7869 30.8148 18.2416 31.6487 17.3263C31.755 17.2093 31.8633 17.094 31.9717 16.9786C32.3894 16.5339 32.8077 16.0885 33.1093 15.5499C34.0691 13.8475 33.4227 12.0439 31.5969 11.3383C30.7817 11.0521 29.9185 10.9281 29.0557 10.9731C26.7883 10.9583 25.5176 11.5998 24.8318 13.1147C24.4334 14.0156 24.2704 15.0029 24.358 15.9841C24.5783 19.178 25.4383 22.295 26.887 25.1499C27.2539 25.9297 27.7664 26.6323 28.3969 27.2199C29.6601 28.3277 31.0862 28.2463 32.2285 27.0127C33.3709 25.779 33.5214 24.1408 32.5616 22.2163C32.3614 21.8095 32.1285 21.4169 31.8963 21.0253C31.6764 20.6547 31.4571 20.2849 31.2663 19.9045ZM30.9209 25.3942C30.5434 25.9838 30.1042 26.1467 29.6231 25.5249C29.2969 25.12 29.0079 24.6865 28.7596 24.2296C27.4001 21.6108 26.613 18.7329 26.4503 15.7867C26.3343 13.6797 26.9782 13.016 29.1124 12.9864C29.6309 13.0262 30.1466 13.0962 30.6569 13.1961C31.5451 13.4182 31.7474 13.9511 31.2244 14.6765C30.9067 15.0901 30.5622 15.4824 30.1931 15.8509C28.6856 17.4718 28.466 18.893 29.4529 20.884C29.6756 21.3295 29.924 21.7627 30.1726 22.1963C30.4113 22.6127 30.6502 23.0294 30.8666 23.4574C31.175 24.0692 31.3329 24.7305 30.916 25.3818L30.9209 25.3942Z" fill="#CC3366"/>
<path d="M31.2663 19.9045C30.7087 18.7869 30.8148 18.2416 31.6487 17.3263C31.755 17.2093 31.8633 17.094 31.9717 16.9786C32.3894 16.5339 32.8077 16.0885 33.1093 15.5499C34.0691 13.8475 33.4227 12.0439 31.5969 11.3383C30.7817 11.0521 29.9185 10.9281 29.0557 10.9731C26.7883 10.9583 25.5176 11.5998 24.8318 13.1147C24.4334 14.0156 24.2704 15.0029 24.358 15.9841C24.5783 19.178 25.4383 22.295 26.887 25.1499C27.2539 25.9297 27.7664 26.6323 28.3969 27.2199C29.6601 28.3277 31.0862 28.2463 32.2285 27.0127C33.3709 25.779 33.5214 24.1408 32.5616 22.2163C32.3614 21.8095 32.1285 21.4169 31.8963 21.0253C31.6764 20.6547 31.4571 20.2849 31.2663 19.9045ZM30.9209 25.3942C30.5434 25.9838 30.1042 26.1467 29.6231 25.5249C29.2969 25.12 29.0079 24.6865 28.7596 24.2296C27.4001 21.6108 26.613 18.7329 26.4503 15.7867C26.3343 13.6797 26.9782 13.016 29.1124 12.9864C29.6309 13.0262 30.1466 13.0962 30.6569 13.1961C31.5451 13.4182 31.7474 13.9511 31.2244 14.6765C30.9067 15.0901 30.5622 15.4824 30.1931 15.8509C28.6856 17.4718 28.466 18.893 29.4529 20.884C29.6756 21.3295 29.924 21.7627 30.1726 22.1963C30.4113 22.6127 30.6502 23.0294 30.8666 23.4574C31.175 24.0692 31.3329 24.7305 30.916 25.3818L30.9209 25.3942Z" stroke="#FFFCF5"/>
<path d="M75.5285 69.5429C75.4866 68.4672 75.1165 67.917 74.0753 67.7196C73.234 67.5568 72.6788 67.241 72.5629 66.338C72.5293 66.0935 72.4389 65.8603 72.2989 65.657C71.7289 64.8354 71.724 64.0903 72.3655 63.2712C72.5999 62.9939 72.7168 62.6362 72.6915 62.274C72.6661 61.9119 72.5005 61.5739 72.2298 61.332C72.0429 61.1525 71.8697 60.948 71.6958 60.7427C71.1213 60.0643 70.5387 59.3764 69.427 59.5506C69.3039 59.5654 69.1872 59.6131 69.089 59.6888C68.1465 60.5449 67.1966 60.4289 66.2245 59.7406C66.0955 59.6556 65.9486 59.6016 65.7952 59.5827C64.9539 59.4618 64.5616 58.9856 64.4678 58.1393C64.3692 57.3474 63.8954 56.7108 63.0393 56.6911C62.8034 56.6859 62.5624 56.6628 62.3204 56.6397C61.4111 56.5527 60.4872 56.4642 59.7603 57.3178C59.6521 57.427 59.579 57.5663 59.5506 57.7175C59.484 59.0374 58.6279 59.5605 57.488 59.8393C57.1912 59.9198 56.9118 60.0545 56.664 60.2365C56.2988 60.4832 56.0052 60.4191 55.6623 60.1946C55.5943 60.1507 55.5269 60.1058 55.4597 60.0609C55.0392 59.7803 54.6236 59.503 54.0832 59.5136C53.1161 59.5383 51.2755 61.3788 51.2533 62.346C51.2088 62.6237 51.2743 62.9078 51.4359 63.138C52.2895 64.0607 52.1218 64.9761 51.4778 65.9136C51.3901 66.0408 51.3342 66.1872 51.315 66.3405C51.2114 67.2385 50.6908 67.6234 49.8174 67.732C49.0032 67.8307 48.4036 68.3587 48.3888 69.1803C48.3847 69.4121 48.3628 69.6499 48.3407 69.8891C48.2565 70.803 48.1703 71.7375 49.0698 72.4395C49.232 72.5824 49.4329 72.6742 49.6471 72.7035C50.7648 72.7331 51.2336 73.4091 51.4285 74.396C51.4581 74.5469 51.5177 74.6904 51.6036 74.8179C52.181 75.6321 52.1736 76.3673 51.5272 77.1889C51.2848 77.4803 51.1679 77.8559 51.2021 78.2333C51.2364 78.6107 51.4189 78.9592 51.7097 79.2022C51.8966 79.3763 52.071 79.5757 52.2462 79.776C52.853 80.4694 53.4686 81.1731 54.6384 80.8725C54.7288 80.8529 54.8133 80.8124 54.8851 80.7541C55.7634 79.9621 56.6516 80.0139 57.5694 80.6899C57.7209 80.7971 57.8962 80.8657 58.0802 80.8898C58.9215 81.0057 59.2891 81.4721 59.4273 82.3208C59.6049 83.4039 60.1995 83.8209 61.29 83.8529C61.7489 83.8653 62.2103 83.8653 62.6717 83.8529C63.6191 83.8283 64.3099 83.3768 64.4333 82.4293C64.5567 81.4819 65.06 80.9909 65.9655 80.8232C66.1479 80.7903 66.3212 80.7188 66.4737 80.6135C67.315 80.0188 68.0725 80.0262 68.9262 80.6875C69.575 81.1809 70.3769 81.0699 70.9345 80.4556C71.1106 80.2606 71.3169 80.0804 71.5239 79.8995C72.2103 79.2997 72.9048 78.6929 72.5333 77.5195C72.5333 77.4899 72.5333 77.4529 72.5061 77.4332C71.5735 76.4265 71.8128 75.4174 72.479 74.396C72.5646 74.2671 72.6194 74.1202 72.6394 73.9667C72.7208 73.2117 73.1821 72.9305 73.8878 72.7898C75.1584 72.5431 75.5087 72.0497 75.531 70.747C75.5384 70.3423 75.5433 69.9426 75.5285 69.5429ZM73.4757 70.3769C73.4492 70.8785 73.0998 70.9039 72.8029 70.9256C72.7961 70.9261 72.7893 70.9266 72.7825 70.9271C71.5908 71.0183 70.974 71.6154 70.8087 72.817C70.7262 73.3967 70.5044 73.9479 70.1622 74.4231C69.3505 75.5211 69.3135 76.5252 70.2289 77.5639C70.2342 77.57 70.2396 77.5762 70.2452 77.5825C70.3835 77.7397 70.5801 77.9631 70.2955 78.1956C70.2306 78.2481 70.1739 78.3121 70.1168 78.3764C69.9918 78.5174 69.8652 78.6602 69.6466 78.689C69.53 78.6163 69.4114 78.5447 69.2925 78.4729C69.044 78.323 68.7946 78.1724 68.561 78.0105C68.3278 77.8305 68.0414 77.7328 67.7468 77.7328C67.4522 77.7328 67.1658 77.8305 66.9326 78.0105C66.1847 78.555 65.3265 78.9289 64.4185 79.106C63.3749 79.2663 62.8518 79.8116 62.7309 80.833C62.7254 80.8778 62.7209 80.9233 62.7164 80.969C62.6784 81.3546 62.6392 81.7516 61.9907 81.7583C61.332 81.765 61.2959 81.3526 61.2616 80.9608C61.2581 80.9211 61.2546 80.8817 61.2506 80.8429C61.1272 79.8116 60.5967 79.2589 59.563 79.101C58.799 78.9866 58.0747 78.6868 57.4535 78.2276C56.5579 77.559 55.7856 77.6528 54.9517 78.2992C54.9164 78.3263 54.8811 78.3553 54.8456 78.3846C54.5804 78.6026 54.2987 78.8341 53.8636 78.4077C53.3995 77.9529 53.6666 77.6159 53.9135 77.3044C53.9291 77.2847 53.9446 77.2652 53.9599 77.2457C54.6186 76.4068 54.6556 75.6222 53.9919 74.7488C53.5409 74.1592 53.2495 73.4632 53.1457 72.7282C53.0001 71.5858 52.3932 71.0628 51.2977 70.9295C51.2592 70.9251 51.2188 70.9217 51.1775 70.9181C50.8519 70.8904 50.4715 70.858 50.4934 70.293C50.5107 69.8711 50.5723 69.58 51.051 69.5528C52.3858 69.464 53.042 68.746 53.237 67.4236C53.3559 66.7875 53.6212 66.1878 54.0117 65.6718C54.663 64.7787 54.5964 64.004 53.9426 63.1725C53.9276 63.1536 53.9124 63.1347 53.8972 63.1157C53.6449 62.8013 53.3876 62.4808 53.8809 62.0154C54.3253 61.5962 54.5898 61.8269 54.8363 62.042C54.88 62.0801 54.9231 62.1177 54.9665 62.1511C55.8054 62.8024 56.5801 62.8616 57.4683 62.2004C58.0899 61.7413 58.8154 61.4429 59.5802 61.332C60.6264 61.1839 61.1247 60.6066 61.2555 59.5851C61.263 59.5297 61.2662 59.4685 61.2695 59.405C61.2844 59.1155 61.3017 58.7787 61.7489 58.7241C62.2424 58.6599 62.6791 58.7044 62.7161 59.3532C62.7877 60.5869 63.4094 61.2086 64.648 61.3936C65.3151 61.5118 65.9464 61.781 66.4935 62.1807C67.4162 62.8468 68.2205 62.8222 69.0767 62.1239C69.0966 62.1076 69.1167 62.0908 69.137 62.0739C69.4229 61.8353 69.7448 61.5666 70.1548 62.0573C70.4213 62.3731 70.5077 62.5952 70.2387 62.9085C69.3925 63.8954 69.2938 64.8823 70.1474 65.9654C70.5017 66.4331 70.7309 66.9834 70.8136 67.5642C70.9789 68.7978 71.6006 69.4344 72.8318 69.5109C73.3524 69.5454 73.5029 69.8489 73.4757 70.3769Z" fill="#CC3366"/>
<path d="M75.5285 69.5429C75.4866 68.4672 75.1165 67.917 74.0753 67.7196C73.234 67.5568 72.6788 67.241 72.5629 66.338C72.5293 66.0935 72.4389 65.8603 72.2989 65.657C71.7289 64.8354 71.724 64.0903 72.3655 63.2712C72.5999 62.9939 72.7168 62.6362 72.6915 62.274C72.6661 61.9119 72.5005 61.5739 72.2298 61.332C72.0429 61.1525 71.8697 60.948 71.6958 60.7427C71.1213 60.0643 70.5387 59.3764 69.427 59.5506C69.3039 59.5654 69.1872 59.6131 69.089 59.6888C68.1465 60.5449 67.1966 60.4289 66.2245 59.7406C66.0955 59.6556 65.9486 59.6016 65.7952 59.5827C64.9539 59.4618 64.5616 58.9856 64.4678 58.1393C64.3692 57.3474 63.8954 56.7108 63.0393 56.6911C62.8034 56.6859 62.5624 56.6628 62.3204 56.6397C61.4111 56.5527 60.4872 56.4642 59.7603 57.3178C59.6521 57.427 59.579 57.5663 59.5506 57.7175C59.484 59.0374 58.6279 59.5605 57.488 59.8393C57.1912 59.9198 56.9118 60.0545 56.664 60.2365C56.2988 60.4832 56.0052 60.4191 55.6623 60.1946C55.5943 60.1507 55.5269 60.1058 55.4597 60.0609C55.0392 59.7803 54.6236 59.503 54.0832 59.5136C53.1161 59.5383 51.2755 61.3788 51.2533 62.346C51.2088 62.6237 51.2743 62.9078 51.4359 63.138C52.2895 64.0607 52.1218 64.9761 51.4778 65.9136C51.3901 66.0408 51.3342 66.1872 51.315 66.3405C51.2114 67.2385 50.6908 67.6234 49.8174 67.732C49.0032 67.8307 48.4036 68.3587 48.3888 69.1803C48.3847 69.4121 48.3628 69.6499 48.3407 69.8891C48.2565 70.803 48.1703 71.7375 49.0698 72.4395C49.232 72.5824 49.4329 72.6742 49.6471 72.7035C50.7648 72.7331 51.2336 73.4091 51.4285 74.396C51.4581 74.5469 51.5177 74.6904 51.6036 74.8179C52.181 75.6321 52.1736 76.3673 51.5272 77.1889C51.2848 77.4803 51.1679 77.8559 51.2021 78.2333C51.2364 78.6107 51.4189 78.9592 51.7097 79.2022C51.8966 79.3763 52.071 79.5757 52.2462 79.776C52.853 80.4694 53.4686 81.1731 54.6384 80.8725C54.7288 80.8529 54.8133 80.8124 54.8851 80.7541C55.7634 79.9621 56.6516 80.0139 57.5694 80.6899C57.7209 80.7971 57.8962 80.8657 58.0802 80.8898C58.9215 81.0057 59.2891 81.4721 59.4273 82.3208C59.6049 83.4039 60.1995 83.8209 61.29 83.8529C61.7489 83.8653 62.2103 83.8653 62.6717 83.8529C63.6191 83.8283 64.3099 83.3768 64.4333 82.4293C64.5567 81.4819 65.06 80.9909 65.9655 80.8232C66.1479 80.7903 66.3212 80.7188 66.4737 80.6135C67.315 80.0188 68.0725 80.0262 68.9262 80.6875C69.575 81.1809 70.3769 81.0699 70.9345 80.4556C71.1106 80.2606 71.3169 80.0804 71.5239 79.8995C72.2103 79.2997 72.9048 78.6929 72.5333 77.5195C72.5333 77.4899 72.5333 77.4529 72.5061 77.4332C71.5735 76.4265 71.8128 75.4174 72.479 74.396C72.5646 74.2671 72.6194 74.1202 72.6394 73.9667C72.7208 73.2117 73.1821 72.9305 73.8878 72.7898C75.1584 72.5431 75.5087 72.0497 75.531 70.747C75.5384 70.3423 75.5433 69.9426 75.5285 69.5429ZM73.4757 70.3769C73.4492 70.8785 73.0998 70.9039 72.8029 70.9256C72.7961 70.9261 72.7893 70.9266 72.7825 70.9271C71.5908 71.0183 70.974 71.6154 70.8087 72.817C70.7262 73.3967 70.5044 73.9479 70.1622 74.4231C69.3505 75.5211 69.3135 76.5252 70.2289 77.5639C70.2342 77.57 70.2396 77.5762 70.2452 77.5825C70.3835 77.7397 70.5801 77.9631 70.2955 78.1956C70.2306 78.2481 70.1739 78.3121 70.1168 78.3764C69.9918 78.5174 69.8652 78.6602 69.6466 78.689C69.53 78.6163 69.4114 78.5447 69.2925 78.4729C69.044 78.323 68.7946 78.1724 68.561 78.0105C68.3278 77.8305 68.0414 77.7328 67.7468 77.7328C67.4522 77.7328 67.1658 77.8305 66.9326 78.0105C66.1847 78.555 65.3265 78.9289 64.4185 79.106C63.3749 79.2663 62.8518 79.8116 62.7309 80.833C62.7254 80.8778 62.7209 80.9233 62.7164 80.969C62.6784 81.3546 62.6392 81.7516 61.9907 81.7583C61.332 81.765 61.2959 81.3526 61.2616 80.9608C61.2581 80.9211 61.2546 80.8817 61.2506 80.8429C61.1272 79.8116 60.5967 79.2589 59.563 79.101C58.799 78.9866 58.0747 78.6868 57.4535 78.2276C56.5579 77.559 55.7856 77.6528 54.9517 78.2992C54.9164 78.3263 54.8811 78.3553 54.8456 78.3846C54.5804 78.6026 54.2987 78.8341 53.8636 78.4077C53.3995 77.9529 53.6666 77.6159 53.9135 77.3044C53.9291 77.2847 53.9446 77.2652 53.9599 77.2457C54.6186 76.4068 54.6556 75.6222 53.9919 74.7488C53.5409 74.1592 53.2495 73.4632 53.1457 72.7282C53.0001 71.5858 52.3932 71.0628 51.2977 70.9295C51.2592 70.9251 51.2188 70.9217 51.1775 70.9181C50.8519 70.8904 50.4715 70.858 50.4934 70.293C50.5107 69.8711 50.5723 69.58 51.051 69.5528C52.3858 69.464 53.042 68.746 53.237 67.4236C53.3559 66.7875 53.6212 66.1878 54.0117 65.6718C54.663 64.7787 54.5964 64.004 53.9426 63.1725C53.9276 63.1536 53.9124 63.1347 53.8972 63.1157C53.6449 62.8013 53.3876 62.4808 53.8809 62.0154C54.3253 61.5962 54.5898 61.8269 54.8363 62.042C54.88 62.0801 54.9231 62.1177 54.9665 62.1511C55.8054 62.8024 56.5801 62.8616 57.4683 62.2004C58.0899 61.7413 58.8154 61.4429 59.5802 61.332C60.6264 61.1839 61.1247 60.6066 61.2555 59.5851C61.263 59.5297 61.2662 59.4685 61.2695 59.405C61.2844 59.1155 61.3017 58.7787 61.7489 58.7241C62.2424 58.6599 62.6791 58.7044 62.7161 59.3532C62.7877 60.5869 63.4094 61.2086 64.648 61.3936C65.3151 61.5118 65.9464 61.781 66.4935 62.1807C67.4162 62.8468 68.2205 62.8222 69.0767 62.1239C69.0966 62.1076 69.1167 62.0908 69.137 62.0739C69.4229 61.8353 69.7448 61.5666 70.1548 62.0573C70.4213 62.3731 70.5077 62.5952 70.2387 62.9085C69.3925 63.8954 69.2938 64.8823 70.1474 65.9654C70.5017 66.4331 70.7309 66.9834 70.8136 67.5642C70.9789 68.7978 71.6006 69.4344 72.8318 69.5109C73.3524 69.5454 73.5029 69.8489 73.4757 70.3769Z" stroke="#FFFCF5"/>
<path d="M61.9797 64.786C60.9027 64.7787 59.8478 65.0911 58.9484 65.6836C58.0491 66.2761 57.3457 67.1221 56.9274 68.1145C56.509 69.1069 56.3945 70.2011 56.5984 71.2587C56.8022 72.3162 57.3152 73.2895 58.0724 74.0553C58.8296 74.8212 59.797 75.3452 60.8521 75.561C61.9073 75.7768 63.0027 75.6747 63.9998 75.2676C64.9969 74.8606 65.8509 74.1669 66.4535 73.2743C67.0562 72.3817 67.3805 71.3304 67.3854 70.2534C67.3929 69.5385 67.2587 68.8293 66.9904 68.1666C66.7222 67.5039 66.3253 66.9009 65.8226 66.3925C65.32 65.8841 64.7215 65.4804 64.0619 65.2047C63.4023 64.9289 62.6946 64.7866 61.9797 64.786ZM61.9007 73.5916C61.0233 73.5628 60.1919 73.1925 59.5835 72.5596C58.9751 71.9267 58.6378 71.0813 58.6436 70.2034C58.6494 69.3256 58.9978 68.4846 59.6145 67.8598C60.2311 67.2351 61.0674 66.8758 61.9451 66.8585C62.3948 66.8497 62.8416 66.931 63.2593 67.0976C63.677 67.2642 64.0571 67.5128 64.3771 67.8287C64.6972 68.1447 64.9507 68.5215 65.1228 68.9369C65.2949 69.3524 65.382 69.7981 65.3791 70.2478C65.3761 70.6975 65.2831 71.1421 65.1055 71.5553C64.928 71.9684 64.6695 72.3419 64.3453 72.6535C64.0211 72.9652 63.6378 73.2087 63.2179 73.3699C62.7981 73.531 62.3502 73.6064 61.9007 73.5916Z" fill="#CC3366"/>
<path d="M61.9797 64.786C60.9027 64.7787 59.8478 65.0911 58.9484 65.6836C58.0491 66.2761 57.3457 67.1221 56.9274 68.1145C56.509 69.1069 56.3945 70.2011 56.5984 71.2587C56.8022 72.3162 57.3152 73.2895 58.0724 74.0553C58.8296 74.8212 59.797 75.3452 60.8521 75.561C61.9073 75.7768 63.0027 75.6747 63.9998 75.2676C64.9969 74.8606 65.8509 74.1669 66.4535 73.2743C67.0562 72.3817 67.3805 71.3304 67.3854 70.2534C67.3929 69.5385 67.2587 68.8293 66.9904 68.1666C66.7222 67.5039 66.3253 66.9009 65.8226 66.3925C65.32 65.8841 64.7215 65.4804 64.0619 65.2047C63.4023 64.9289 62.6946 64.7866 61.9797 64.786ZM61.9007 73.5916C61.0233 73.5628 60.1919 73.1925 59.5835 72.5596C58.9751 71.9267 58.6378 71.0813 58.6436 70.2034C58.6494 69.3256 58.9978 68.4846 59.6145 67.8598C60.2311 67.2351 61.0674 66.8758 61.9451 66.8585C62.3948 66.8497 62.8416 66.931 63.2593 67.0976C63.677 67.2642 64.0571 67.5128 64.3771 67.8287C64.6972 68.1447 64.9507 68.5215 65.1228 68.9369C65.2949 69.3524 65.382 69.7981 65.3791 70.2478C65.3761 70.6975 65.2831 71.1421 65.1055 71.5553C64.928 71.9684 64.6695 72.3419 64.3453 72.6535C64.0211 72.9652 63.6378 73.2087 63.2179 73.3699C62.7981 73.531 62.3502 73.6064 61.9007 73.5916Z" stroke="#FFFCF5"/>
</svg>
