<svg width="36" height="37" viewBox="0 0 36 37" fill="none" xmlns="http://www.w3.org/2000/svg">
<path d="M17.9989 10.7301C13.4387 10.7301 9.75831 14.4105 9.75831 18.9707C9.75831 23.531 13.4387 27.2113 17.9989 27.2113C22.5592 27.2113 26.2396 23.531 26.2396 18.9707C26.2396 14.4105 22.5592 10.7301 17.9989 10.7301ZM17.9989 24.3265C15.0498 24.3265 12.6431 21.9198 12.6431 18.9707C12.6431 16.0216 15.0498 13.6149 17.9989 13.6149C20.948 13.6149 23.3547 16.0216 23.3547 18.9707C23.3547 21.9198 20.948 24.3265 17.9989 24.3265ZM26.5771 8.47206C25.5123 8.47206 24.6525 9.33189 24.6525 10.3966C24.6525 11.4614 25.5123 12.3212 26.5771 12.3212C27.6418 12.3212 28.5016 11.4654 28.5016 10.3966C28.5019 10.1438 28.4524 9.89339 28.3558 9.65975C28.2592 9.42611 28.1174 9.21382 27.9386 9.03505C27.7599 8.85627 27.5476 8.71452 27.3139 8.61792C27.0803 8.52131 26.8299 8.47175 26.5771 8.47206ZM34.0623 18.9707C34.0623 16.7529 34.0824 14.5551 33.9579 12.3413C33.8333 9.76983 33.2467 7.48769 31.3664 5.60733C29.482 3.72296 27.2038 3.14037 24.6324 3.01582C22.4146 2.89126 20.2168 2.91135 18.003 2.91135C15.7851 2.91135 13.5873 2.89126 11.3735 3.01582C8.80206 3.14037 6.51992 3.72698 4.63956 5.60733C2.75519 7.49171 2.1726 9.76983 2.04804 12.3413C1.92349 14.5591 1.94358 16.7569 1.94358 18.9707C1.94358 21.1846 1.92349 23.3864 2.04804 25.6002C2.1726 28.1716 2.7592 30.4538 4.63956 32.3341C6.52394 34.2185 8.80206 34.8011 11.3735 34.9256C13.5913 35.0502 15.7891 35.0301 18.003 35.0301C20.2208 35.0301 22.4186 35.0502 24.6324 34.9256C27.2038 34.8011 29.486 34.2145 31.3664 32.3341C33.2507 30.4497 33.8333 28.1716 33.9579 25.6002C34.0864 23.3864 34.0623 21.1886 34.0623 18.9707ZM30.5266 28.4448C30.2333 29.1761 29.8797 29.7225 29.3132 30.285C28.7467 30.8515 28.2043 31.2051 27.473 31.4984C25.3597 32.3381 20.3413 32.1493 17.9989 32.1493C15.6565 32.1493 10.6342 32.3381 8.52081 31.5024C7.78956 31.2091 7.24313 30.8555 6.68063 30.289C6.11411 29.7225 5.76054 29.1801 5.46724 28.4489C4.63153 26.3314 4.82036 21.3131 4.82036 18.9707C4.82036 16.6283 4.63153 11.606 5.46724 9.4926C5.76054 8.76135 6.11411 8.21492 6.68063 7.65242C7.24715 7.08992 7.78956 6.73233 8.52081 6.43903C10.6342 5.60332 15.6565 5.79215 17.9989 5.79215C20.3413 5.79215 25.3637 5.60332 27.4771 6.43903C28.2083 6.73233 28.7547 7.08591 29.3172 7.65242C29.8838 8.21894 30.2373 8.76135 30.5306 9.4926C31.3664 11.606 31.1775 16.6283 31.1775 18.9707C31.1775 21.3131 31.3664 26.3314 30.5266 28.4448Z" fill="#1C252E"/>
</svg>
