<svg width="90" height="90" viewBox="0 0 90 90" fill="none" xmlns="http://www.w3.org/2000/svg">
<mask id="path-1-inside-1_13264_77011" fill="white">
<path d="M87.1844 46.5777C84.7574 44.2593 81.1613 43.7934 78.1293 45.5067C75.3051 47.1012 73.7539 50.6187 74.5406 53.7484C74.7095 54.4166 74.5833 54.8398 74.0044 55.2092C71.6627 56.7029 69.3345 58.2157 67.0201 59.7477C66.584 60.0373 66.2648 60.0336 65.9067 59.601C64.528 57.9304 62.8302 56.6404 60.9598 55.5656C60.058 55.0459 60.0524 55.0254 60.392 54.0806C62.5036 48.1407 64.682 42.2211 66.7844 36.2756C67.0145 35.6204 67.3244 35.4515 68.0035 35.6018C70.0665 36.0615 72.198 36.1245 74.2846 35.7874C78.6266 35.0914 82.2635 33.0978 85.1508 29.803C87.3496 27.2933 88.821 24.3716 89.259 21.0453C89.7729 17.1379 89.4891 13.3011 87.563 9.74452C85.6796 6.26037 83.015 3.57812 79.4337 1.82398C77.5188 0.895862 75.5241 0.292587 73.3883 0.212769H71.3045C71.0448 0.49306 70.7182 0.370548 70.4083 0.361267H69.5473C65.736 0.743651 62.4665 2.32887 59.6516 4.87934C58.0385 6.33427 56.7107 8.07737 55.7364 10.0192C55.5601 10.3719 55.4209 10.4684 55.0238 10.3088C53.7658 9.80949 52.4891 9.35471 51.2125 8.9055C50.8896 8.79227 50.7505 8.65306 50.7876 8.28738C51.194 4.29462 48.1898 0.723232 44.3748 0.30558C44.3247 0.30558 44.2801 0.246181 44.2319 0.216481H42.6714C40.7267 0.587727 39.0233 1.38034 37.7281 2.9637C35.1137 6.16013 35.6276 10.7692 38.9343 13.4477C42.0219 15.948 46.761 15.4023 49.2011 12.191C49.6594 11.5878 49.9971 11.584 50.5928 11.8198C51.7061 12.2746 52.8603 12.6699 53.9996 13.0746C54.3466 13.199 54.4839 13.3308 54.3707 13.7577C53.5518 16.8204 53.629 20.054 54.5934 23.0741C54.7789 23.6514 54.3651 23.6848 54.0367 23.8166L41.79 29.0141C40.8882 29.3964 39.9715 29.7566 39.0901 30.1742C38.5687 30.4267 38.3201 30.3227 38.0269 29.8234C35.765 25.9513 32.5047 23.2894 28.2462 21.8694C24.6932 20.6475 20.8351 20.641 17.278 21.8509C16.649 22.0588 16.3688 21.9994 16.0719 21.3385C14.9845 18.9254 13.8174 16.5383 12.6576 14.1531C12.4443 13.7113 12.422 13.444 12.8432 13.0579C15.0086 11.0662 15.801 8.57509 15.0328 5.7462C14.2052 2.73539 12.1529 0.91628 9.0393 0.338992C8.96325 0.308936 8.89247 0.266955 8.82962 0.214625H7.09467C5.05355 0.619284 3.29819 1.48243 2.00115 3.1846C1.17542 4.27049 0.811734 5.52345 0.5 6.80982V8.54725C0.871112 9.93757 1.29604 11.2908 2.29062 12.4026C4.10721 14.4445 6.37285 15.2854 9.04301 14.8956C9.61638 14.812 9.78523 14.9717 10.0005 15.4135C11.1342 17.8433 12.2735 20.2712 13.4555 22.6769C13.7283 23.2338 13.6763 23.4973 13.1419 23.8333C10.2958 25.5947 8.03916 28.1649 6.66047 31.2155C4.13876 36.7805 4.38184 42.2638 7.35074 47.5968C8.53788 49.7613 10.2125 51.6196 12.242 53.0244C12.782 53.3957 12.7616 53.6871 12.4628 54.1901C11.741 55.406 11.0748 56.6534 10.3939 57.8915C10.2343 58.181 10.1285 58.3889 9.68132 58.2627C5.51373 57.1193 1.1346 60.0855 0.609477 64.3883C0.586016 64.4714 0.549702 64.5503 0.501855 64.6222V66.1851C0.702255 66.5044 0.551957 66.8608 0.616901 67.1986C1.0845 69.6507 2.59122 71.2508 4.76779 72.3032C7.84432 73.7882 11.7336 72.8137 13.8471 70.1444C16.0255 67.3935 16.1702 63.0908 13.5743 60.4438C13.1549 60.0168 13.0714 59.5881 13.3887 59.0442C13.9565 58.0697 14.5169 57.0896 15.0216 56.0742C15.3649 55.3856 15.7768 55.3057 16.4857 55.5749C19.1491 56.5787 22.0151 56.9261 24.8412 56.5879C27.6672 56.2496 30.3703 55.2355 32.7218 53.6314C33.2433 53.2843 33.581 53.2602 34.0449 53.7595C35.5423 55.367 36.9766 57.032 38.5075 58.608C38.9528 59.0646 38.8359 59.4451 38.4778 59.8943C35.4588 63.6662 34.0244 67.9448 34.4475 72.7933C34.5069 73.4727 34.3139 73.8903 33.5865 74.037C32.0557 74.3488 30.5416 74.733 29.0293 75.121C28.3483 75.2973 27.9159 75.1359 27.5151 74.5085C24.6464 69.9644 17.9627 70.1259 15.068 74.2876C13.2125 76.9438 13.1438 80.5486 15.0365 83.1511C16.957 85.7888 20.3823 86.9786 23.4218 85.9911C26.528 84.9832 28.3037 82.8021 28.7713 79.5834C28.8715 78.904 29.1517 78.5866 29.8142 78.4269C31.3339 78.0557 32.8684 77.7661 34.3714 77.3373C35.0747 77.135 35.4105 77.354 35.6703 78.0371C36.4534 80.101 37.6493 81.9832 39.1848 83.5687C42.8625 87.3814 47.2991 89.2989 52.6728 89.2098C58.3731 89.1151 62.9842 86.8431 66.404 82.442C70.8351 76.7545 71.4938 70.4489 68.6307 63.8166C68.3765 63.2318 68.4154 62.8884 68.9795 62.5283C71.1895 61.099 73.4106 59.6864 75.5927 58.2163C76.5669 57.561 76.5743 57.5796 77.5745 58.2738C79.3243 59.4878 81.2856 59.9649 83.349 59.5379C86.1806 58.9514 88.3275 57.2826 89.1179 54.4723C89.9232 51.5951 89.5354 48.8219 87.1844 46.5777ZM43.4488 12.0518C42.8634 12.0523 42.2836 11.9367 41.7431 11.7115C41.2026 11.4864 40.7121 11.1563 40.3 10.7402C39.8879 10.3242 39.5623 9.83048 39.3423 9.28773C39.1222 8.74499 39.0119 8.16397 39.0178 7.5783C39.0251 6.70366 39.291 5.85076 39.7821 5.12705C40.2731 4.40335 40.9673 3.84122 41.7771 3.51149C42.587 3.18176 43.4763 3.09919 44.3329 3.27417C45.1896 3.44915 45.9753 3.87386 46.5912 4.49479C47.207 5.11572 47.6253 5.90509 47.7934 6.76344C47.9615 7.62178 47.8719 8.5107 47.5359 9.3182C47.1999 10.1257 46.6325 10.8157 45.9052 11.3011C45.1779 11.7866 44.3232 12.0458 43.4488 12.0462V12.0518ZM7.88328 12.0518C7.00788 12.0496 6.15273 11.7882 5.42565 11.3005C4.69857 10.8127 4.13211 10.1206 3.79771 9.31128C3.4633 8.50197 3.37592 7.61174 3.54657 6.75282C3.71722 5.89389 4.13827 5.10475 4.75663 4.48487C5.37499 3.865 6.16298 3.44215 7.02123 3.26964C7.87949 3.09714 8.76958 3.1827 9.5793 3.51553C10.389 3.84837 11.0821 4.41358 11.5711 5.13991C12.0602 5.86623 12.3233 6.72115 12.3274 7.59686C12.3244 8.77588 11.8556 9.90591 11.023 10.7405C10.1905 11.575 9.06187 12.0464 7.88328 12.0518ZM7.83318 69.8345C7.24664 69.8329 6.66624 69.7149 6.12567 69.4872C5.5851 69.2594 5.09513 68.9266 4.6842 68.5079C4.27326 68.0892 3.94955 67.5931 3.73184 67.0482C3.51413 66.5034 3.40677 65.9207 3.41599 65.334C3.42521 64.7473 3.55081 64.1683 3.78553 63.6306C4.02024 63.0929 4.35937 62.6071 4.78326 62.2016C5.20714 61.796 5.70732 61.4787 6.25478 61.2681C6.80223 61.0575 7.38605 60.9577 7.97235 60.9747C9.13651 61.0082 10.2406 61.4992 11.0456 62.3411C11.8506 63.1831 12.2916 64.3083 12.2733 65.4733C12.2551 66.6382 11.7788 67.749 10.9478 68.5653C10.1168 69.3815 8.99782 69.8375 7.83318 69.8345ZM21.2359 83.1863C20.0565 83.1717 18.9305 82.692 18.1025 81.8516C17.2746 81.0112 16.8116 79.8779 16.8141 78.698C16.8244 77.5228 17.301 76.3999 18.1389 75.5763C18.5539 75.1685 19.045 74.8464 19.5843 74.6285C20.1237 74.4105 20.7006 74.301 21.2823 74.3061C21.8639 74.3112 22.4389 74.4309 22.9743 74.6583C23.5097 74.8857 23.9951 75.2164 24.4028 75.6314C24.8105 76.0465 25.1325 76.5378 25.3503 77.0774C25.5682 77.6169 25.6777 78.1941 25.6726 78.7759C25.65 79.9434 25.1745 81.0563 24.3465 81.8794C23.5186 82.7024 22.4031 83.1711 21.2359 83.1863ZM79.8494 30.2615C75.1418 33.6231 67.9849 33.6194 63.3126 30.2615C62.9118 29.9737 62.9193 29.7046 63.025 29.3203C63.8749 26.1369 66.7361 24.0171 70.3322 23.9261C70.7646 23.915 71.1988 23.9261 71.6311 23.9261C73.7242 23.8222 75.7226 24.0802 77.4465 25.4111C78.7702 26.4087 79.7267 27.8165 80.1667 29.415C80.2743 29.8289 80.1815 30.0257 79.8494 30.2615ZM67.1462 16.5253C67.1462 14.0937 69.1985 12.0333 71.5996 12.0704C72.4751 12.074 73.33 12.3369 74.0564 12.8258C74.7829 13.3147 75.3484 14.0077 75.6817 14.8176C76.0151 15.6275 76.1014 16.5179 75.9296 17.3768C75.7579 18.2356 75.3359 19.0244 74.7169 19.6437C74.0977 20.2631 73.3093 20.6852 72.4507 20.857C71.5922 21.0287 70.702 20.9425 69.8925 20.609C69.0829 20.2755 68.3901 19.7098 67.9014 18.983C67.4126 18.2563 67.1499 17.4012 67.1462 16.5253ZM60.2806 8.45073C65.6395 2.10798 75.2346 1.41746 81.2949 6.80982C87.7894 12.592 87.7894 22.0309 82.8053 27.5328C80.0442 23.4045 80.0442 23.4045 76.9009 21.6522C78.5134 19.8573 79.2445 17.7634 78.8771 15.3689C78.6134 13.577 77.6821 11.9511 76.27 10.8174C73.405 8.43588 69.2616 8.56952 66.4819 11.1887C64.0883 13.4366 62.9564 17.8618 66.263 21.6987C63.5576 22.8848 61.6018 24.8153 60.4588 27.5495C56.3617 23.4676 54.8921 14.8306 60.2769 8.4563L60.2806 8.45073ZM31.0092 50.951C28.5937 52.6122 25.7366 53.5124 22.8055 53.5359C19.8743 53.5594 17.0032 52.7051 14.5614 51.0828C14.105 50.7747 13.9899 50.5259 14.1569 49.9691C14.606 48.4803 15.5094 47.1694 16.7406 46.22C17.9717 45.2707 19.469 44.7304 21.0225 44.6751C21.5699 44.6491 22.1192 44.6751 22.8298 44.6751C24.8264 44.5433 26.8805 44.8292 28.6396 46.225C29.945 47.2442 30.8761 48.6671 31.2875 50.2716C31.3914 50.6429 31.2875 50.7617 31.0092 50.951ZM18.2355 37.2149C18.2579 36.0339 18.7471 34.91 19.596 34.089C20.4448 33.268 21.5843 32.8168 22.7649 32.8342C23.9298 32.8532 25.04 33.3323 25.8534 34.1668C26.6668 35.0013 27.1173 36.1237 27.1069 37.2891C27.0938 38.4562 26.6234 39.5715 25.7969 40.3952C24.9703 41.219 23.8536 41.6853 22.687 41.694C20.2617 41.7014 18.1909 39.6169 18.2355 37.2149ZM33.8556 48.3857C32.7422 45.7331 30.9516 43.8045 28.3965 42.6314C27.8399 42.3715 28.1906 42.158 28.3687 41.9409C29.6806 40.3408 30.1742 38.5161 30.0146 36.4557C29.6342 31.5534 23.9784 28.3532 19.5585 30.5677C15.1385 32.7822 13.9528 38.0019 16.9755 41.9093C17.1611 42.1413 17.5675 42.3232 16.9533 42.6518C14.0456 44.1906 12.9601 45.3563 11.5573 48.2558C7.56041 44.3113 6.04628 35.7429 11.279 29.3333C16.4523 22.985 26.1587 22.1107 32.2821 27.44C38.5409 32.8936 39.2942 42.4754 33.8556 48.3857ZM36.0507 51.2369C35.6054 50.7654 35.9264 50.5631 36.1769 50.2716C38.1198 48.0418 39.4611 45.3525 40.0736 42.4587C40.707 39.6257 40.6035 36.6775 39.773 33.896C39.606 33.3391 39.7136 33.1033 40.2536 32.8769C45.2487 30.7892 50.2353 28.6806 55.2131 26.5508C55.677 26.3522 55.9201 26.3058 56.217 26.8311C57.9575 29.9032 60.4421 32.2142 63.5743 33.8347C63.7839 33.9424 64.0827 33.9665 64.1309 34.2505C64.0641 34.451 64.014 34.6217 63.9565 34.7795C61.71 41.0127 59.4661 47.2466 57.2245 53.481C57.039 53.9897 56.8534 54.1901 56.2578 54.0546C51.0622 52.8704 46.3027 53.869 41.97 56.9466C41.6508 57.1731 41.469 57.1879 41.1906 56.8761C39.4928 54.9809 37.7949 53.0875 36.0507 51.2369ZM60.6425 83.5502C55.8459 86.9229 49.1955 86.9935 44.2579 83.7358C43.742 83.3942 43.614 83.0824 43.7958 82.4847C44.2414 81.0583 45.1084 79.8004 46.2826 78.8766C47.4568 77.9528 48.8831 77.4065 50.3738 77.3095C51.0344 77.2761 51.7005 77.3095 52.3184 77.3095C54.495 77.1461 56.5064 77.4524 58.2562 78.826C59.5442 79.8199 60.4711 81.2087 60.8948 82.7798C60.9765 83.0898 60.9895 83.3126 60.6425 83.5502ZM47.8725 69.8567C47.8712 69.2749 47.9844 68.6984 48.2057 68.1603C48.4271 67.6223 48.7522 67.1331 49.1626 66.7207C49.5729 66.3083 50.0604 65.9808 50.5973 65.7569C51.1342 65.533 51.7099 65.417 52.2915 65.4157C52.8732 65.4144 53.4494 65.5276 53.9873 65.7491C54.5252 65.9705 55.0142 66.2957 55.4265 66.7062C55.8387 67.1167 56.1661 67.6044 56.3899 68.1415C56.6137 68.6785 56.7296 69.2544 56.731 69.8363C56.731 72.2847 54.6898 74.3265 52.2683 74.2913C51.1018 74.2729 49.9888 73.7986 49.1673 72.9699C48.3458 72.1412 47.8811 71.0238 47.8725 69.8567ZM63.5223 80.8995C60.9765 76.9271 60.9765 76.9271 57.6365 74.9799C59.2582 73.1237 59.9986 70.9983 59.5588 68.5369C59.2588 66.7817 58.3195 65.1999 56.9221 64.0968C55.5264 62.9712 53.7684 62.393 51.9773 62.4705C50.1862 62.5481 48.4847 63.2761 47.1915 64.5182C44.8331 66.7457 43.6418 71.1227 46.98 75.0245C44.295 76.205 42.3411 78.1114 41.1999 80.8308C37.37 77.2074 35.5868 68.665 40.7509 62.1088C45.9149 55.5526 55.8384 54.6542 62.0564 60.1691C68.614 65.9865 68.4841 75.4904 63.5223 80.8995ZM81.9332 56.4974C81.3484 56.4965 80.7696 56.3793 80.2304 56.1527C79.6913 55.926 79.2026 55.5944 78.7927 55.1771C78.3828 54.7598 78.0599 54.2652 77.8428 53.7219C77.6257 53.1787 77.5187 52.5977 77.5281 52.0128C77.5489 50.8468 78.025 49.7353 78.8544 48.916C79.6839 48.0966 80.8009 47.6345 81.9666 47.6284C83.1322 47.6487 84.2447 48.1197 85.0708 48.9427C85.8969 49.7656 86.3724 50.8765 86.3977 52.0425C86.3969 52.628 86.2808 53.2076 86.056 53.7482C85.8312 54.2888 85.5021 54.7797 85.0874 55.1929C84.6728 55.6062 84.1808 55.9336 83.6396 56.1565C83.0983 56.3794 82.5185 56.4933 81.9332 56.4919V56.4974Z"/>
</mask>
<path d="M87.1844 46.5777C84.7574 44.2593 81.1613 43.7934 78.1293 45.5067C75.3051 47.1012 73.7539 50.6187 74.5406 53.7484C74.7095 54.4166 74.5833 54.8398 74.0044 55.2092C71.6627 56.7029 69.3345 58.2157 67.0201 59.7477C66.584 60.0373 66.2648 60.0336 65.9067 59.601C64.528 57.9304 62.8302 56.6404 60.9598 55.5656C60.058 55.0459 60.0524 55.0254 60.392 54.0806C62.5036 48.1407 64.682 42.2211 66.7844 36.2756C67.0145 35.6204 67.3244 35.4515 68.0035 35.6018C70.0665 36.0615 72.198 36.1245 74.2846 35.7874C78.6266 35.0914 82.2635 33.0978 85.1508 29.803C87.3496 27.2933 88.821 24.3716 89.259 21.0453C89.7729 17.1379 89.4891 13.3011 87.563 9.74452C85.6796 6.26037 83.015 3.57812 79.4337 1.82398C77.5188 0.895862 75.5241 0.292587 73.3883 0.212769H71.3045C71.0448 0.49306 70.7182 0.370548 70.4083 0.361267H69.5473C65.736 0.743651 62.4665 2.32887 59.6516 4.87934C58.0385 6.33427 56.7107 8.07737 55.7364 10.0192C55.5601 10.3719 55.4209 10.4684 55.0238 10.3088C53.7658 9.80949 52.4891 9.35471 51.2125 8.9055C50.8896 8.79227 50.7505 8.65306 50.7876 8.28738C51.194 4.29462 48.1898 0.723232 44.3748 0.30558C44.3247 0.30558 44.2801 0.246181 44.2319 0.216481H42.6714C40.7267 0.587727 39.0233 1.38034 37.7281 2.9637C35.1137 6.16013 35.6276 10.7692 38.9343 13.4477C42.0219 15.948 46.761 15.4023 49.2011 12.191C49.6594 11.5878 49.9971 11.584 50.5928 11.8198C51.7061 12.2746 52.8603 12.6699 53.9996 13.0746C54.3466 13.199 54.4839 13.3308 54.3707 13.7577C53.5518 16.8204 53.629 20.054 54.5934 23.0741C54.7789 23.6514 54.3651 23.6848 54.0367 23.8166L41.79 29.0141C40.8882 29.3964 39.9715 29.7566 39.0901 30.1742C38.5687 30.4267 38.3201 30.3227 38.0269 29.8234C35.765 25.9513 32.5047 23.2894 28.2462 21.8694C24.6932 20.6475 20.8351 20.641 17.278 21.8509C16.649 22.0588 16.3688 21.9994 16.0719 21.3385C14.9845 18.9254 13.8174 16.5383 12.6576 14.1531C12.4443 13.7113 12.422 13.444 12.8432 13.0579C15.0086 11.0662 15.801 8.57509 15.0328 5.7462C14.2052 2.73539 12.1529 0.91628 9.0393 0.338992C8.96325 0.308936 8.89247 0.266955 8.82962 0.214625H7.09467C5.05355 0.619284 3.29819 1.48243 2.00115 3.1846C1.17542 4.27049 0.811734 5.52345 0.5 6.80982V8.54725C0.871112 9.93757 1.29604 11.2908 2.29062 12.4026C4.10721 14.4445 6.37285 15.2854 9.04301 14.8956C9.61638 14.812 9.78523 14.9717 10.0005 15.4135C11.1342 17.8433 12.2735 20.2712 13.4555 22.6769C13.7283 23.2338 13.6763 23.4973 13.1419 23.8333C10.2958 25.5947 8.03916 28.1649 6.66047 31.2155C4.13876 36.7805 4.38184 42.2638 7.35074 47.5968C8.53788 49.7613 10.2125 51.6196 12.242 53.0244C12.782 53.3957 12.7616 53.6871 12.4628 54.1901C11.741 55.406 11.0748 56.6534 10.3939 57.8915C10.2343 58.181 10.1285 58.3889 9.68132 58.2627C5.51373 57.1193 1.1346 60.0855 0.609477 64.3883C0.586016 64.4714 0.549702 64.5503 0.501855 64.6222V66.1851C0.702255 66.5044 0.551957 66.8608 0.616901 67.1986C1.0845 69.6507 2.59122 71.2508 4.76779 72.3032C7.84432 73.7882 11.7336 72.8137 13.8471 70.1444C16.0255 67.3935 16.1702 63.0908 13.5743 60.4438C13.1549 60.0168 13.0714 59.5881 13.3887 59.0442C13.9565 58.0697 14.5169 57.0896 15.0216 56.0742C15.3649 55.3856 15.7768 55.3057 16.4857 55.5749C19.1491 56.5787 22.0151 56.9261 24.8412 56.5879C27.6672 56.2496 30.3703 55.2355 32.7218 53.6314C33.2433 53.2843 33.581 53.2602 34.0449 53.7595C35.5423 55.367 36.9766 57.032 38.5075 58.608C38.9528 59.0646 38.8359 59.4451 38.4778 59.8943C35.4588 63.6662 34.0244 67.9448 34.4475 72.7933C34.5069 73.4727 34.3139 73.8903 33.5865 74.037C32.0557 74.3488 30.5416 74.733 29.0293 75.121C28.3483 75.2973 27.9159 75.1359 27.5151 74.5085C24.6464 69.9644 17.9627 70.1259 15.068 74.2876C13.2125 76.9438 13.1438 80.5486 15.0365 83.1511C16.957 85.7888 20.3823 86.9786 23.4218 85.9911C26.528 84.9832 28.3037 82.8021 28.7713 79.5834C28.8715 78.904 29.1517 78.5866 29.8142 78.4269C31.3339 78.0557 32.8684 77.7661 34.3714 77.3373C35.0747 77.135 35.4105 77.354 35.6703 78.0371C36.4534 80.101 37.6493 81.9832 39.1848 83.5687C42.8625 87.3814 47.2991 89.2989 52.6728 89.2098C58.3731 89.1151 62.9842 86.8431 66.404 82.442C70.8351 76.7545 71.4938 70.4489 68.6307 63.8166C68.3765 63.2318 68.4154 62.8884 68.9795 62.5283C71.1895 61.099 73.4106 59.6864 75.5927 58.2163C76.5669 57.561 76.5743 57.5796 77.5745 58.2738C79.3243 59.4878 81.2856 59.9649 83.349 59.5379C86.1806 58.9514 88.3275 57.2826 89.1179 54.4723C89.9232 51.5951 89.5354 48.8219 87.1844 46.5777ZM43.4488 12.0518C42.8634 12.0523 42.2836 11.9367 41.7431 11.7115C41.2026 11.4864 40.7121 11.1563 40.3 10.7402C39.8879 10.3242 39.5623 9.83048 39.3423 9.28773C39.1222 8.74499 39.0119 8.16397 39.0178 7.5783C39.0251 6.70366 39.291 5.85076 39.7821 5.12705C40.2731 4.40335 40.9673 3.84122 41.7771 3.51149C42.587 3.18176 43.4763 3.09919 44.3329 3.27417C45.1896 3.44915 45.9753 3.87386 46.5912 4.49479C47.207 5.11572 47.6253 5.90509 47.7934 6.76344C47.9615 7.62178 47.8719 8.5107 47.5359 9.3182C47.1999 10.1257 46.6325 10.8157 45.9052 11.3011C45.1779 11.7866 44.3232 12.0458 43.4488 12.0462V12.0518ZM7.88328 12.0518C7.00788 12.0496 6.15273 11.7882 5.42565 11.3005C4.69857 10.8127 4.13211 10.1206 3.79771 9.31128C3.4633 8.50197 3.37592 7.61174 3.54657 6.75282C3.71722 5.89389 4.13827 5.10475 4.75663 4.48487C5.37499 3.865 6.16298 3.44215 7.02123 3.26964C7.87949 3.09714 8.76958 3.1827 9.5793 3.51553C10.389 3.84837 11.0821 4.41358 11.5711 5.13991C12.0602 5.86623 12.3233 6.72115 12.3274 7.59686C12.3244 8.77588 11.8556 9.90591 11.023 10.7405C10.1905 11.575 9.06187 12.0464 7.88328 12.0518ZM7.83318 69.8345C7.24664 69.8329 6.66624 69.7149 6.12567 69.4872C5.5851 69.2594 5.09513 68.9266 4.6842 68.5079C4.27326 68.0892 3.94955 67.5931 3.73184 67.0482C3.51413 66.5034 3.40677 65.9207 3.41599 65.334C3.42521 64.7473 3.55081 64.1683 3.78553 63.6306C4.02024 63.0929 4.35937 62.6071 4.78326 62.2016C5.20714 61.796 5.70732 61.4787 6.25478 61.2681C6.80223 61.0575 7.38605 60.9577 7.97235 60.9747C9.13651 61.0082 10.2406 61.4992 11.0456 62.3411C11.8506 63.1831 12.2916 64.3083 12.2733 65.4733C12.2551 66.6382 11.7788 67.749 10.9478 68.5653C10.1168 69.3815 8.99782 69.8375 7.83318 69.8345ZM21.2359 83.1863C20.0565 83.1717 18.9305 82.692 18.1025 81.8516C17.2746 81.0112 16.8116 79.8779 16.8141 78.698C16.8244 77.5228 17.301 76.3999 18.1389 75.5763C18.5539 75.1685 19.045 74.8464 19.5843 74.6285C20.1237 74.4105 20.7006 74.301 21.2823 74.3061C21.8639 74.3112 22.4389 74.4309 22.9743 74.6583C23.5097 74.8857 23.9951 75.2164 24.4028 75.6314C24.8105 76.0465 25.1325 76.5378 25.3503 77.0774C25.5682 77.6169 25.6777 78.1941 25.6726 78.7759C25.65 79.9434 25.1745 81.0563 24.3465 81.8794C23.5186 82.7024 22.4031 83.1711 21.2359 83.1863ZM79.8494 30.2615C75.1418 33.6231 67.9849 33.6194 63.3126 30.2615C62.9118 29.9737 62.9193 29.7046 63.025 29.3203C63.8749 26.1369 66.7361 24.0171 70.3322 23.9261C70.7646 23.915 71.1988 23.9261 71.6311 23.9261C73.7242 23.8222 75.7226 24.0802 77.4465 25.4111C78.7702 26.4087 79.7267 27.8165 80.1667 29.415C80.2743 29.8289 80.1815 30.0257 79.8494 30.2615ZM67.1462 16.5253C67.1462 14.0937 69.1985 12.0333 71.5996 12.0704C72.4751 12.074 73.33 12.3369 74.0564 12.8258C74.7829 13.3147 75.3484 14.0077 75.6817 14.8176C76.0151 15.6275 76.1014 16.5179 75.9296 17.3768C75.7579 18.2356 75.3359 19.0244 74.7169 19.6437C74.0977 20.2631 73.3093 20.6852 72.4507 20.857C71.5922 21.0287 70.702 20.9425 69.8925 20.609C69.0829 20.2755 68.3901 19.7098 67.9014 18.983C67.4126 18.2563 67.1499 17.4012 67.1462 16.5253ZM60.2806 8.45073C65.6395 2.10798 75.2346 1.41746 81.2949 6.80982C87.7894 12.592 87.7894 22.0309 82.8053 27.5328C80.0442 23.4045 80.0442 23.4045 76.9009 21.6522C78.5134 19.8573 79.2445 17.7634 78.8771 15.3689C78.6134 13.577 77.6821 11.9511 76.27 10.8174C73.405 8.43588 69.2616 8.56952 66.4819 11.1887C64.0883 13.4366 62.9564 17.8618 66.263 21.6987C63.5576 22.8848 61.6018 24.8153 60.4588 27.5495C56.3617 23.4676 54.8921 14.8306 60.2769 8.4563L60.2806 8.45073ZM31.0092 50.951C28.5937 52.6122 25.7366 53.5124 22.8055 53.5359C19.8743 53.5594 17.0032 52.7051 14.5614 51.0828C14.105 50.7747 13.9899 50.5259 14.1569 49.9691C14.606 48.4803 15.5094 47.1694 16.7406 46.22C17.9717 45.2707 19.469 44.7304 21.0225 44.6751C21.5699 44.6491 22.1192 44.6751 22.8298 44.6751C24.8264 44.5433 26.8805 44.8292 28.6396 46.225C29.945 47.2442 30.8761 48.6671 31.2875 50.2716C31.3914 50.6429 31.2875 50.7617 31.0092 50.951ZM18.2355 37.2149C18.2579 36.0339 18.7471 34.91 19.596 34.089C20.4448 33.268 21.5843 32.8168 22.7649 32.8342C23.9298 32.8532 25.04 33.3323 25.8534 34.1668C26.6668 35.0013 27.1173 36.1237 27.1069 37.2891C27.0938 38.4562 26.6234 39.5715 25.7969 40.3952C24.9703 41.219 23.8536 41.6853 22.687 41.694C20.2617 41.7014 18.1909 39.6169 18.2355 37.2149ZM33.8556 48.3857C32.7422 45.7331 30.9516 43.8045 28.3965 42.6314C27.8399 42.3715 28.1906 42.158 28.3687 41.9409C29.6806 40.3408 30.1742 38.5161 30.0146 36.4557C29.6342 31.5534 23.9784 28.3532 19.5585 30.5677C15.1385 32.7822 13.9528 38.0019 16.9755 41.9093C17.1611 42.1413 17.5675 42.3232 16.9533 42.6518C14.0456 44.1906 12.9601 45.3563 11.5573 48.2558C7.56041 44.3113 6.04628 35.7429 11.279 29.3333C16.4523 22.985 26.1587 22.1107 32.2821 27.44C38.5409 32.8936 39.2942 42.4754 33.8556 48.3857ZM36.0507 51.2369C35.6054 50.7654 35.9264 50.5631 36.1769 50.2716C38.1198 48.0418 39.4611 45.3525 40.0736 42.4587C40.707 39.6257 40.6035 36.6775 39.773 33.896C39.606 33.3391 39.7136 33.1033 40.2536 32.8769C45.2487 30.7892 50.2353 28.6806 55.2131 26.5508C55.677 26.3522 55.9201 26.3058 56.217 26.8311C57.9575 29.9032 60.4421 32.2142 63.5743 33.8347C63.7839 33.9424 64.0827 33.9665 64.1309 34.2505C64.0641 34.451 64.014 34.6217 63.9565 34.7795C61.71 41.0127 59.4661 47.2466 57.2245 53.481C57.039 53.9897 56.8534 54.1901 56.2578 54.0546C51.0622 52.8704 46.3027 53.869 41.97 56.9466C41.6508 57.1731 41.469 57.1879 41.1906 56.8761C39.4928 54.9809 37.7949 53.0875 36.0507 51.2369ZM60.6425 83.5502C55.8459 86.9229 49.1955 86.9935 44.2579 83.7358C43.742 83.3942 43.614 83.0824 43.7958 82.4847C44.2414 81.0583 45.1084 79.8004 46.2826 78.8766C47.4568 77.9528 48.8831 77.4065 50.3738 77.3095C51.0344 77.2761 51.7005 77.3095 52.3184 77.3095C54.495 77.1461 56.5064 77.4524 58.2562 78.826C59.5442 79.8199 60.4711 81.2087 60.8948 82.7798C60.9765 83.0898 60.9895 83.3126 60.6425 83.5502ZM47.8725 69.8567C47.8712 69.2749 47.9844 68.6984 48.2057 68.1603C48.4271 67.6223 48.7522 67.1331 49.1626 66.7207C49.5729 66.3083 50.0604 65.9808 50.5973 65.7569C51.1342 65.533 51.7099 65.417 52.2915 65.4157C52.8732 65.4144 53.4494 65.5276 53.9873 65.7491C54.5252 65.9705 55.0142 66.2957 55.4265 66.7062C55.8387 67.1167 56.1661 67.6044 56.3899 68.1415C56.6137 68.6785 56.7296 69.2544 56.731 69.8363C56.731 72.2847 54.6898 74.3265 52.2683 74.2913C51.1018 74.2729 49.9888 73.7986 49.1673 72.9699C48.3458 72.1412 47.8811 71.0238 47.8725 69.8567ZM63.5223 80.8995C60.9765 76.9271 60.9765 76.9271 57.6365 74.9799C59.2582 73.1237 59.9986 70.9983 59.5588 68.5369C59.2588 66.7817 58.3195 65.1999 56.9221 64.0968C55.5264 62.9712 53.7684 62.393 51.9773 62.4705C50.1862 62.5481 48.4847 63.2761 47.1915 64.5182C44.8331 66.7457 43.6418 71.1227 46.98 75.0245C44.295 76.205 42.3411 78.1114 41.1999 80.8308C37.37 77.2074 35.5868 68.665 40.7509 62.1088C45.9149 55.5526 55.8384 54.6542 62.0564 60.1691C68.614 65.9865 68.4841 75.4904 63.5223 80.8995ZM81.9332 56.4974C81.3484 56.4965 80.7696 56.3793 80.2304 56.1527C79.6913 55.926 79.2026 55.5944 78.7927 55.1771C78.3828 54.7598 78.0599 54.2652 77.8428 53.7219C77.6257 53.1787 77.5187 52.5977 77.5281 52.0128C77.5489 50.8468 78.025 49.7353 78.8544 48.916C79.6839 48.0966 80.8009 47.6345 81.9666 47.6284C83.1322 47.6487 84.2447 48.1197 85.0708 48.9427C85.8969 49.7656 86.3724 50.8765 86.3977 52.0425C86.3969 52.628 86.2808 53.2076 86.056 53.7482C85.8312 54.2888 85.5021 54.7797 85.0874 55.1929C84.6728 55.6062 84.1808 55.9336 83.6396 56.1565C83.0983 56.3794 82.5185 56.4933 81.9332 56.4919V56.4974Z" fill="#665775" stroke="#FFFCF5" mask="url(#path-1-inside-1_13264_77011)"/>
</svg>
