<svg width="36" height="37" viewBox="0 0 36 37" fill="none" xmlns="http://www.w3.org/2000/svg">
<path d="M34.7136 8.62382C33.4841 9.15417 32.1462 9.53587 30.7681 9.68453C32.1989 8.8345 33.2703 7.49158 33.7815 5.90775C32.4388 6.70645 30.968 7.26652 29.4341 7.5631C28.7931 6.87776 28.0177 6.33179 27.1564 5.9592C26.2951 5.58662 25.3663 5.3954 24.4279 5.39748C20.631 5.39748 17.5774 8.47516 17.5774 12.2519C17.5774 12.7823 17.6417 13.3127 17.7462 13.8229C12.0609 13.5256 6.99038 10.8095 3.6194 6.65105C3.00517 7.70017 2.68329 8.89472 2.68726 10.1104C2.68726 12.489 3.89663 14.5863 5.74083 15.8198C4.65401 15.777 3.59265 15.4783 2.64306 14.9479V15.0323C2.64306 18.3631 4.99752 21.1234 8.13547 21.7582C7.54629 21.9112 6.94019 21.9895 6.33145 21.9912C5.88547 21.9912 5.4636 21.947 5.0377 21.8868C5.90556 24.6028 8.43279 26.5756 11.4422 26.6399C9.0877 28.4841 6.1386 29.5689 2.93636 29.5689C2.36181 29.5689 1.83145 29.5488 1.28101 29.4845C4.31851 31.4332 7.92252 32.5582 11.8038 32.5582C24.4038 32.5582 31.2984 22.1198 31.2984 13.0595C31.2984 12.7622 31.2984 12.4649 31.2783 12.1676C32.6123 11.1912 33.7815 9.98185 34.7136 8.62382Z" fill="#1C252E"/>
</svg>
